{"glyphs":{"0":{"ha":699,"x_min":50,"x_max":649,"o":"m 390 0 l 390 106 q 447 133 419 111 q 494 197 474 154 q 528 307 515 239 q 540 471 540 375 l 540 532 q 528 667 540 607 q 493 771 515 728 q 444 838 471 814 q 390 864 418 861 l 390 971 q 481 946 435 969 q 565 867 526 922 q 626 720 603 813 q 649 489 649 628 q 624 240 649 336 q 558 92 599 144 q 474 21 518 40 q 390 0 429 1 m 308 0 q 225 21 269 1 q 140 92 181 40 q 75 240 100 144 q 50 489 50 336 q 73 720 50 628 q 134 867 96 813 q 218 946 172 922 q 310 971 264 969 l 310 864 q 255 838 282 861 q 206 773 228 815 q 172 669 185 731 q 160 532 160 608 l 160 471 q 174 307 160 375 q 210 196 188 239 q 258 131 232 153 q 308 106 285 108 l 308 0 z "},"1":{"ha":288,"x_min":50,"x_max":238,"o":"m 125 0 l 125 806 l 50 806 l 50 911 l 125 972 l 238 972 l 238 0 l 125 0 z "},"2":{"ha":700,"x_min":51,"x_max":651,"o":"m 78 172 q 102 278 78 231 q 163 360 126 325 q 242 423 200 396 q 319 469 283 450 q 374 499 354 488 q 455 550 415 525 q 519 609 494 575 q 544 693 544 643 q 528 780 544 740 q 472 844 511 819 q 367 868 433 868 l 367 972 q 533 932 471 972 q 624 828 596 892 q 650 690 651 764 q 607 551 649 606 q 486 449 565 496 q 419 411 457 431 q 342 369 381 392 q 272 317 304 346 q 219 253 239 289 q 200 172 200 218 l 78 172 m 78 0 l 78 108 l 639 108 l 639 0 l 78 0 m 149 703 l 51 722 q 88 839 56 783 q 174 932 119 894 q 299 972 228 969 l 299 868 q 242 852 275 868 q 183 800 210 836 q 149 703 157 764 z "},"3":{"ha":703,"x_min":51,"x_max":653,"o":"m 375 -3 l 375 100 q 463 119 424 101 q 524 175 501 138 q 547 269 547 213 q 540 327 547 299 q 510 380 532 356 q 447 419 488 404 q 340 433 407 433 l 340 536 q 447 551 407 536 q 510 590 488 565 q 540 643 532 614 q 547 699 547 672 q 498 826 547 786 q 375 868 449 867 l 375 972 q 483 954 433 972 q 572 901 533 936 q 631 817 610 867 q 653 704 653 768 q 626 574 653 628 q 549 485 600 519 q 626 396 600 450 q 653 265 653 342 q 631 152 653 201 q 572 67 610 103 q 483 15 533 32 q 375 -3 433 -3 m 299 -3 q 174 38 228 1 q 88 131 119 75 q 51 246 56 186 l 149 265 q 183 169 157 206 q 242 117 210 133 q 299 100 275 101 l 299 -3 m 149 703 l 51 722 q 88 839 56 783 q 174 932 119 894 q 299 972 228 969 l 299 868 q 242 851 275 868 q 183 799 210 835 q 149 703 157 764 z "},"4":{"ha":690,"x_min":36,"x_max":640,"o":"m 453 0 l 453 974 l 565 974 l 565 304 l 640 304 l 640 200 l 565 200 l 565 0 l 453 0 m 36 200 l 36 304 l 385 896 l 385 699 l 151 304 l 385 304 l 385 200 l 36 200 z "},"5":{"ha":722,"x_min":51,"x_max":672,"o":"m 154 433 l 58 492 l 99 972 l 593 972 l 593 868 l 196 868 l 172 578 q 229 607 194 593 q 311 621 264 621 l 311 521 q 225 498 265 519 q 154 433 185 476 m 310 0 q 194 26 247 0 q 103 94 140 51 q 51 188 65 138 l 146 218 q 187 156 163 181 q 243 119 211 132 q 310 103 275 106 l 310 0 m 379 0 l 379 101 q 443 117 410 103 q 504 158 476 132 q 550 223 532 185 q 568 311 568 261 q 549 406 568 367 q 502 471 531 446 q 440 508 474 496 q 379 521 407 519 l 379 621 q 545 575 481 621 q 641 458 610 529 q 672 310 672 386 q 629 142 672 211 q 519 38 586 74 q 379 0 453 1 z "},"6":{"ha":725,"x_min":50,"x_max":675,"o":"m 335 -1 q 188 43 244 1 q 102 155 132 85 q 61 310 72 225 q 50 485 50 396 q 56 597 50 535 q 78 724 61 660 q 126 842 94 788 q 209 931 158 896 q 335 969 260 965 l 335 865 q 238 816 274 856 q 185 722 203 776 q 163 608 168 667 q 158 499 158 549 q 238 569 188 549 q 335 590 288 590 l 335 486 q 247 456 282 483 q 194 385 213 428 q 175 293 175 343 q 183 240 175 271 q 210 178 192 208 q 258 126 228 147 q 335 103 289 104 l 335 -1 m 411 -1 l 411 103 q 497 135 463 106 q 551 209 532 165 q 569 293 569 253 q 547 398 569 356 q 488 463 524 440 q 411 488 451 485 l 411 590 q 556 551 497 590 q 645 444 615 511 q 675 296 675 376 q 638 141 675 208 q 542 37 601 74 q 411 -1 482 0 m 553 767 q 524 815 544 792 q 475 852 504 838 q 410 867 446 867 l 410 971 q 550 928 489 971 q 640 825 611 886 l 553 767 z "},"7":{"ha":615,"x_min":50,"x_max":604,"o":"m 263 0 q 285 192 268 90 q 328 399 301 293 q 393 606 356 504 q 479 800 431 708 l 594 800 q 503 595 542 700 q 438 385 464 490 q 397 183 411 281 q 376 0 382 85 l 263 0 m 50 867 l 50 972 l 604 972 l 604 868 l 50 867 z "},"8":{"ha":706,"x_min":50,"x_max":656,"o":"m 392 -1 l 392 103 q 472 127 436 106 q 530 187 508 149 q 551 281 551 225 q 537 351 551 322 q 499 397 522 379 q 447 423 476 414 q 390 433 418 432 l 390 536 q 480 561 446 539 q 531 618 514 583 q 547 690 547 653 q 530 770 547 732 q 478 836 513 808 q 389 867 444 864 l 389 971 q 491 949 443 971 q 575 888 539 926 q 632 798 611 849 q 653 690 653 747 q 624 568 653 622 q 550 485 596 514 q 630 399 604 453 q 656 275 656 344 q 635 169 656 219 q 579 81 615 118 q 495 21 543 43 q 392 -1 447 -1 m 314 -1 q 210 21 258 -1 q 126 81 163 43 q 70 169 90 118 q 50 275 50 219 q 76 399 50 344 q 156 485 101 453 q 81 568 110 514 q 53 690 53 622 q 74 798 53 747 q 131 888 94 849 q 215 949 168 926 q 317 971 263 971 l 317 867 q 228 836 263 864 q 176 770 193 808 q 160 690 160 732 q 176 618 160 653 q 226 561 192 583 q 315 536 260 539 l 315 433 q 259 423 288 432 q 207 397 231 414 q 169 351 183 379 q 154 281 154 322 q 176 187 154 225 q 235 127 199 149 q 314 103 271 106 l 314 -1 z "},"9":{"ha":724,"x_min":50,"x_max":674,"o":"m 386 1 l 386 106 q 453 128 421 107 q 510 193 485 150 q 550 303 535 236 q 565 464 565 371 q 544 443 557 457 q 512 415 532 429 q 461 391 492 401 q 386 381 431 381 l 386 486 q 506 543 465 490 q 546 679 546 596 q 536 737 546 706 q 508 797 526 768 q 458 844 489 825 q 386 867 428 864 l 386 972 q 534 930 478 972 q 621 817 590 888 q 663 656 651 746 q 674 468 674 565 q 668 363 674 424 q 646 240 663 303 q 597 122 629 176 q 514 33 565 67 q 386 1 463 0 m 319 0 q 174 44 238 0 q 78 154 111 89 l 164 211 q 228 137 185 167 q 319 106 271 107 l 319 0 m 319 381 q 172 419 232 381 q 81 523 111 457 q 50 674 50 589 q 88 829 50 763 q 188 934 125 896 q 319 972 250 972 l 319 867 q 245 844 276 864 q 194 796 214 825 q 165 735 174 767 q 156 675 156 703 q 199 542 156 594 q 319 486 242 490 l 319 381 z "},"අ":{"ha":753,"x_min":42,"x_max":711,"o":"m 424 0 l 347 0 q 196 30 265 0 q 84 121 126 60 q 42 278 42 182 q 82 434 42 372 q 194 527 122 496 q 356 558 265 558 l 500 558 q 477 639 500 607 q 417 687 454 671 q 338 703 381 703 q 244 677 288 703 q 188 603 201 651 l 89 635 q 141 728 104 690 q 228 785 178 765 q 333 804 278 804 q 464 776 401 804 q 566 690 526 747 q 606 547 606 633 l 606 447 l 347 447 q 249 428 292 447 q 181 372 206 410 q 156 278 156 333 q 206 154 156 200 q 349 108 257 108 l 424 108 l 424 0 m 500 -235 l 500 572 q 520 678 500 632 q 582 756 540 724 q 688 807 624 789 l 711 696 q 645 663 668 685 q 614 615 622 642 q 606 563 606 589 l 606 113 l 686 113 l 686 0 l 606 0 l 606 -235 l 500 -235 z "},"ආ":{"ha":1124,"x_min":42,"x_max":1079,"o":"m 792 0 l 792 111 l 819 111 q 873 117 847 111 q 920 141 899 124 q 954 190 942 158 q 967 274 967 222 l 967 496 q 954 581 967 547 q 920 632 942 614 q 873 658 899 650 q 819 665 847 665 l 792 665 l 792 775 l 819 775 q 969 742 913 775 q 1053 647 1026 708 q 1079 501 1079 586 l 1079 274 q 1053 128 1079 189 q 969 33 1026 67 q 819 0 913 0 l 792 0 m 424 0 l 347 0 q 196 30 265 0 q 84 121 126 60 q 42 278 42 182 q 82 434 42 372 q 194 527 122 496 q 356 558 265 558 l 500 558 q 477 639 500 607 q 417 687 454 671 q 338 703 381 703 q 244 677 288 703 q 188 603 201 651 l 89 635 q 141 728 104 690 q 228 785 178 765 q 333 804 278 804 q 464 776 401 804 q 566 690 526 747 q 606 547 606 633 l 606 447 l 347 447 q 249 428 292 447 q 181 372 206 410 q 156 278 156 333 q 206 154 156 200 q 349 108 257 108 l 424 108 l 424 0 m 500 -235 l 500 572 q 520 678 500 632 q 582 756 540 724 q 688 807 624 789 l 711 696 q 645 663 668 685 q 614 615 622 642 q 606 563 606 589 l 606 113 l 686 113 l 686 0 l 606 0 l 606 -235 l 500 -235 z "},"ඇ":{"ha":1121,"x_min":42,"x_max":1085,"o":"m 1064 0 q 925 26 986 0 q 829 107 864 51 q 794 251 794 163 l 794 379 q 801 469 794 432 q 825 540 808 507 q 872 607 842 572 q 950 689 901 642 l 797 689 l 797 797 l 1085 797 l 1085 689 q 986 588 1022 629 q 933 517 950 547 q 910 457 915 486 q 906 390 906 428 l 906 265 q 912 213 906 240 q 934 163 918 186 q 980 126 950 140 q 1057 113 1010 113 l 1085 113 l 1085 0 l 1064 0 m 424 0 l 347 0 q 196 30 265 0 q 84 121 126 60 q 42 278 42 182 q 82 434 42 372 q 194 527 122 496 q 356 558 265 558 l 500 558 q 477 639 500 607 q 417 687 454 671 q 338 703 381 703 q 244 677 288 703 q 188 603 201 651 l 89 635 q 141 728 104 690 q 228 785 178 765 q 333 804 278 804 q 464 776 401 804 q 566 690 526 747 q 606 547 606 633 l 606 447 l 347 447 q 249 428 292 447 q 181 372 206 410 q 156 278 156 333 q 206 154 156 200 q 349 108 257 108 l 424 108 l 424 0 m 500 -235 l 500 572 q 520 678 500 632 q 582 756 540 724 q 688 807 624 789 l 711 696 q 645 663 668 685 q 614 615 622 642 q 606 563 606 589 l 606 113 l 686 113 l 686 0 l 606 0 l 606 -235 l 500 -235 z "},"ඈ":{"ha":1138,"x_min":58,"x_max":1079,"o":"m 1042 0 q 916 20 972 0 q 827 85 860 40 q 794 204 794 131 l 794 265 q 807 342 794 310 q 852 409 819 375 q 944 488 885 443 l 794 488 l 794 582 l 954 703 l 794 703 l 794 797 l 1079 797 l 1079 703 l 917 582 l 1079 582 l 1079 488 q 981 413 1017 443 q 930 362 946 383 q 910 322 914 340 q 906 281 906 303 l 906 232 q 910 190 906 211 q 930 152 915 169 q 971 124 944 135 q 1040 113 997 113 l 1079 113 l 1079 0 l 1042 0 m 440 0 l 364 0 q 213 30 282 0 q 101 121 143 60 q 58 278 58 182 q 99 434 58 372 q 210 527 139 496 q 372 558 282 558 l 517 558 q 494 639 517 607 q 434 687 471 671 q 354 703 397 703 q 261 677 304 703 q 204 603 218 651 l 106 635 q 158 728 121 690 q 244 785 194 765 q 350 804 294 804 q 481 776 418 804 q 583 690 543 747 q 622 547 622 633 l 622 447 l 364 447 q 265 428 308 447 q 197 372 222 410 q 172 278 172 333 q 223 154 172 200 q 365 108 274 108 l 440 108 l 440 0 m 517 -235 l 517 572 q 537 678 517 632 q 599 756 557 724 q 704 807 640 789 l 728 696 q 662 663 685 685 q 631 615 639 642 q 622 563 622 589 l 622 113 l 703 113 l 703 0 l 622 0 l 622 -235 l 517 -235 z "},"ඉ":{"ha":779,"x_min":33,"x_max":738,"o":"m 269 0 l 269 104 l 361 104 q 457 117 410 104 q 543 158 504 129 q 605 238 582 188 q 628 363 628 288 l 628 506 q 608 597 628 563 q 557 651 588 632 q 492 676 526 669 q 431 683 458 683 l 431 796 l 453 796 q 590 765 525 796 q 697 676 656 735 q 738 531 738 617 l 738 346 q 713 200 738 264 q 644 92 689 136 q 536 24 599 47 q 396 0 474 0 l 269 0 m 347 -283 q 234 -262 286 -283 q 145 -201 182 -240 q 96 -108 108 -161 l 201 -81 q 233 -137 210 -115 q 285 -169 256 -158 q 344 -181 315 -181 q 414 -166 381 -181 q 469 -125 447 -151 q 490 -62 490 -99 l 600 -62 q 565 -181 600 -132 q 474 -257 531 -231 q 347 -283 417 -283 m 253 243 q 137 267 186 243 q 60 333 88 290 q 33 436 33 376 l 33 536 q 78 676 33 619 q 191 765 122 733 q 332 796 260 796 l 354 796 l 354 683 l 332 683 q 278 676 310 683 q 217 650 247 668 q 165 602 186 632 q 144 528 144 572 l 144 453 q 159 398 144 419 q 197 367 174 376 q 247 357 221 357 q 315 378 288 357 q 342 436 342 400 l 342 507 l 447 507 l 447 397 q 436 342 447 369 q 402 292 425 315 q 342 256 379 269 q 253 243 304 243 z "},"ඊ":{"ha":776,"x_min":42,"x_max":751,"o":"m 650 822 q 578 852 608 822 q 549 922 549 882 q 578 994 549 964 q 650 1024 608 1024 q 722 994 692 1024 q 751 922 751 964 q 722 852 751 882 q 650 822 692 822 m 171 968 q 99 998 129 968 q 69 1068 69 1028 q 99 1140 69 1110 q 171 1169 129 1169 q 242 1140 213 1169 q 272 1068 272 1110 q 242 998 272 1028 q 171 968 213 968 m 331 -8 q 226 9 278 -8 q 133 65 175 26 q 67 169 92 104 q 42 329 42 233 l 42 567 q 49 657 42 615 q 81 744 57 699 q 153 849 106 790 l 376 1129 l 464 1065 l 249 790 q 191 709 211 743 q 162 640 171 675 q 153 556 153 606 l 153 326 q 199 158 153 210 q 331 106 246 106 l 331 -8 m 453 783 q 591 750 539 783 q 667 656 643 717 q 690 511 690 594 l 690 315 q 653 117 690 188 q 551 20 615 47 q 408 -7 488 -7 l 408 107 q 541 161 503 107 q 579 326 579 215 l 579 482 q 560 600 579 558 q 507 659 542 642 q 421 676 472 676 l 251 676 l 251 682 l 326 783 l 453 783 z "},"උ":{"ha":769,"x_min":42,"x_max":790,"o":"m 372 -235 q 260 -212 318 -235 q 153 -146 203 -190 q 72 -35 103 -101 q 42 118 42 31 l 42 185 q 53 308 42 244 q 99 428 65 372 q 198 517 133 483 q 369 551 263 551 l 606 551 q 574 638 601 607 q 510 683 547 669 q 439 696 474 696 q 371 687 406 696 q 310 658 336 678 q 274 608 283 639 l 178 644 q 233 728 193 694 q 328 780 274 763 q 439 797 382 797 q 568 772 507 797 q 669 690 629 746 q 713 543 710 633 l 713 440 l 372 440 q 292 430 331 440 q 222 392 253 419 q 172 315 190 365 q 153 185 153 265 l 153 118 q 172 14 153 57 q 221 -56 192 -29 q 281 -98 250 -83 q 338 -117 313 -112 q 372 -124 363 -122 l 372 -235 m 450 -233 l 450 -122 q 513 -117 478 -122 q 583 -94 549 -111 q 645 -47 618 -78 q 683 36 672 -15 l 790 6 q 740 -113 775 -67 q 656 -186 704 -160 q 555 -223 608 -212 q 450 -233 501 -233 z "},"ඌ":{"ha":1344,"x_min":42,"x_max":1303,"o":"m 1058 -11 q 943 14 999 -11 q 852 90 888 39 q 817 217 817 140 l 817 281 l 921 281 l 921 215 q 942 149 921 176 q 994 107 963 121 q 1063 93 1026 93 q 1128 106 1097 93 q 1179 147 1160 119 q 1199 215 1199 175 l 1199 624 q 1182 667 1199 653 q 1144 682 1165 682 q 1106 667 1124 682 q 1089 624 1089 653 l 1089 553 q 1048 455 1089 489 q 957 421 1007 421 q 890 437 922 421 q 838 486 858 453 q 817 569 817 519 l 817 783 l 901 783 l 901 590 q 919 548 901 563 q 956 533 936 533 q 993 548 976 533 q 1010 590 1010 563 l 1010 644 q 1031 725 1010 693 q 1084 773 1051 757 q 1153 789 1117 789 q 1256 749 1210 789 q 1303 631 1301 708 l 1303 217 q 1267 91 1303 142 q 1176 15 1232 40 q 1058 -11 1121 -11 m 372 -235 q 260 -212 318 -235 q 153 -146 203 -190 q 72 -35 103 -101 q 42 118 42 31 l 42 185 q 53 308 42 244 q 99 428 65 372 q 198 517 133 483 q 369 551 263 551 l 606 551 q 574 638 601 607 q 510 683 547 669 q 439 696 474 696 q 371 687 406 696 q 310 658 336 678 q 274 608 283 639 l 178 644 q 233 728 193 694 q 328 780 274 763 q 439 797 382 797 q 568 772 507 797 q 669 690 629 746 q 713 543 710 633 l 713 440 l 372 440 q 292 430 331 440 q 222 392 253 419 q 172 315 190 365 q 153 185 153 265 l 153 118 q 172 14 153 57 q 221 -56 192 -29 q 281 -98 250 -83 q 338 -117 313 -112 q 372 -124 363 -122 l 372 -235 m 450 -233 l 450 -122 q 513 -117 478 -122 q 583 -94 549 -111 q 645 -47 618 -78 q 683 36 672 -15 l 790 6 q 740 -113 775 -67 q 656 -186 704 -160 q 555 -223 608 -212 q 450 -233 501 -233 z "},"ඍ":{"ha":1368,"x_min":42,"x_max":1325,"o":"m 268 -4 q 153 22 204 -4 q 72 95 101 49 q 42 206 42 142 l 42 272 l 153 272 l 153 213 q 188 133 153 160 q 271 106 222 106 q 356 133 321 106 q 390 214 390 160 l 390 272 l 496 272 l 496 214 q 531 133 496 160 q 615 106 565 106 q 699 133 664 106 q 733 213 733 160 l 733 272 l 844 272 l 844 206 q 815 93 844 140 q 734 21 785 46 q 619 -4 683 -4 q 517 16 563 -4 q 442 76 471 36 q 369 16 414 36 q 268 -4 324 -4 m 42 340 l 42 394 q 53 464 42 433 q 85 516 64 494 q 142 548 107 538 q 224 558 176 558 l 663 558 q 744 548 710 558 q 801 516 779 538 q 833 464 822 494 q 844 394 844 433 l 844 340 l 733 340 l 733 383 q 722 431 733 415 q 692 453 711 447 q 651 458 672 458 l 235 458 q 195 453 214 458 q 165 431 176 447 q 153 383 153 415 l 153 340 l 42 340 m 390 526 l 390 567 q 376 628 390 601 q 333 672 361 656 q 268 688 306 688 q 190 668 218 688 q 151 621 161 649 l 53 653 q 139 758 79 726 q 268 789 199 789 q 328 782 296 789 q 390 759 360 775 q 443 713 421 743 q 497 759 467 743 q 559 782 526 775 q 618 789 592 789 q 747 758 688 789 q 833 653 807 726 l 735 621 q 697 668 725 649 q 618 688 668 688 q 553 672 581 688 q 511 628 526 656 q 496 567 496 601 l 496 526 l 390 526 m 1124 0 q 1025 25 1072 0 q 949 96 978 50 q 921 203 921 142 q 944 301 921 256 q 1013 373 968 346 q 1121 400 1058 400 l 1158 400 l 1158 304 l 1121 304 q 1049 275 1078 304 q 1019 203 1019 246 q 1051 128 1019 158 q 1124 99 1082 99 q 1195 128 1165 99 q 1225 204 1225 158 l 1225 544 q 1215 617 1225 586 q 1182 665 1204 647 q 1124 683 1160 683 l 999 683 l 999 789 l 1132 789 q 1238 759 1194 789 q 1303 676 1281 729 q 1325 554 1325 624 l 1325 201 q 1297 96 1325 142 q 1224 25 1269 50 q 1124 0 1178 0 z "},"ඏ":{"ha":1281,"x_min":42,"x_max":1239,"o":"m 185 -8 q 103 25 138 -8 q 69 107 69 58 q 103 188 69 154 q 185 221 138 221 q 267 188 233 221 q 300 107 300 154 q 267 25 300 58 q 185 -8 233 -8 m 82 56 q 51 158 61 100 q 42 281 42 215 l 147 281 q 157 185 147 232 q 179 106 167 138 l 82 56 m 42 349 l 42 493 q 69 628 42 571 q 144 718 96 686 q 253 750 192 750 q 347 732 296 750 l 347 621 l 314 632 q 263 640 289 640 q 210 627 236 640 q 165 580 183 614 q 147 482 147 546 l 147 349 l 42 349 m 1132 349 l 1132 482 q 1115 580 1132 546 q 1071 627 1097 614 q 1017 640 1044 640 q 967 632 990 640 l 933 621 l 933 732 q 1028 750 983 750 q 1138 718 1090 750 q 1212 628 1185 686 q 1239 493 1239 571 l 1239 349 l 1132 349 m 1199 56 l 1101 106 q 1124 185 1115 138 q 1132 281 1132 232 l 1239 281 q 1229 158 1239 215 q 1199 56 1219 100 m 1096 -8 q 1014 25 1047 -8 q 981 107 981 58 q 1014 188 981 154 q 1096 221 1047 221 q 1176 188 1143 221 q 1210 107 1210 154 q 1176 25 1210 58 q 1096 -8 1143 -8 m 600 -11 q 333 57 415 -11 q 251 274 251 125 l 363 274 q 390 165 363 204 q 470 112 418 126 q 594 97 522 97 l 686 97 q 811 113 760 97 q 890 167 863 128 q 918 274 918 206 l 1029 274 q 946 58 1029 126 q 682 -11 863 -11 l 600 -11 m 251 342 q 281 474 251 426 q 361 540 310 521 q 479 558 413 558 l 792 558 q 919 541 867 558 q 1001 476 972 524 q 1029 342 1029 429 l 918 342 q 910 403 918 376 q 875 444 901 431 q 794 458 849 458 l 486 458 q 406 442 432 458 q 371 399 379 426 q 363 342 363 372 l 251 342 m 588 526 l 588 567 q 573 628 588 601 q 531 672 558 656 q 465 688 503 688 q 387 668 415 688 q 347 621 358 649 l 250 653 q 336 758 276 726 q 465 789 396 789 q 524 782 493 789 q 587 759 556 775 q 640 713 618 743 q 694 759 664 743 q 756 782 724 775 q 815 789 788 789 q 944 758 885 789 q 1031 653 1004 726 l 932 621 q 893 668 922 649 q 815 688 864 688 q 750 672 778 688 q 707 628 722 656 q 692 567 692 601 l 692 526 l 588 526 z "},"ඐ":{"ha":1849,"x_min":42,"x_max":1807,"o":"m 1564 -11 q 1449 14 1504 -11 q 1358 90 1393 39 q 1322 217 1322 140 l 1322 281 l 1426 281 l 1426 215 q 1447 149 1426 176 q 1500 107 1468 121 q 1568 93 1532 93 q 1634 106 1603 93 q 1685 147 1665 119 q 1704 215 1704 175 l 1704 624 q 1688 667 1704 653 q 1650 682 1671 682 q 1612 667 1629 682 q 1594 624 1594 653 l 1594 553 q 1553 455 1594 489 q 1463 421 1513 421 q 1396 437 1428 421 q 1343 486 1364 453 q 1322 569 1322 519 l 1322 783 l 1407 783 l 1407 590 q 1424 548 1407 563 q 1461 533 1442 533 q 1499 548 1482 533 q 1515 590 1515 563 l 1515 644 q 1536 725 1515 693 q 1590 773 1557 757 q 1658 789 1622 789 q 1761 749 1715 789 q 1808 631 1807 708 l 1808 217 q 1773 91 1808 142 q 1682 15 1738 40 q 1564 -11 1626 -11 m 185 -8 q 103 25 138 -8 q 69 107 69 58 q 103 188 69 154 q 185 221 138 221 q 267 188 233 221 q 300 107 300 154 q 267 25 300 58 q 185 -8 233 -8 m 82 56 q 51 158 61 100 q 42 281 42 215 l 147 281 q 157 185 147 232 q 179 106 167 138 l 82 56 m 42 349 l 42 493 q 69 628 42 571 q 144 718 96 686 q 253 750 192 750 q 347 732 296 750 l 347 621 l 314 632 q 263 640 289 640 q 210 627 236 640 q 165 580 183 614 q 147 482 147 546 l 147 349 l 42 349 m 1132 349 l 1132 482 q 1115 580 1132 546 q 1071 627 1097 614 q 1017 640 1044 640 q 967 632 990 640 l 933 621 l 933 732 q 1028 750 983 750 q 1138 718 1090 750 q 1212 628 1185 686 q 1239 493 1239 571 l 1239 349 l 1132 349 m 1199 56 l 1101 106 q 1124 185 1115 138 q 1132 281 1132 232 l 1239 281 q 1229 158 1239 215 q 1199 56 1219 100 m 1096 -8 q 1014 25 1047 -8 q 981 107 981 58 q 1014 188 981 154 q 1096 221 1047 221 q 1176 188 1143 221 q 1210 107 1210 154 q 1176 25 1210 58 q 1096 -8 1143 -8 m 600 -11 q 333 57 415 -11 q 251 274 251 125 l 363 274 q 390 165 363 204 q 470 112 418 126 q 594 97 522 97 l 686 97 q 811 113 760 97 q 890 167 863 128 q 918 274 918 206 l 1029 274 q 946 58 1029 126 q 682 -11 863 -11 l 600 -11 m 251 342 q 281 474 251 426 q 361 540 310 521 q 479 558 413 558 l 792 558 q 919 541 867 558 q 1001 476 972 524 q 1029 342 1029 429 l 918 342 q 910 403 918 376 q 875 444 901 431 q 794 458 849 458 l 486 458 q 406 442 432 458 q 371 399 379 426 q 363 342 363 372 l 251 342 m 588 526 l 588 567 q 573 628 588 601 q 531 672 558 656 q 465 688 503 688 q 387 668 415 688 q 347 621 358 649 l 250 653 q 336 758 276 726 q 465 789 396 789 q 524 782 493 789 q 587 759 556 775 q 640 713 618 743 q 694 759 664 743 q 756 782 724 775 q 815 789 788 789 q 944 758 885 789 q 1031 653 1004 726 l 932 621 q 893 668 922 649 q 815 688 864 688 q 750 672 778 688 q 707 628 722 656 q 692 567 692 601 l 692 526 l 588 526 z "},"එ":{"ha":826,"x_min":42,"x_max":785,"o":"m 390 -3 q 231 36 296 -3 q 132 138 165 75 q 99 269 99 200 q 109 337 99 303 q 140 397 119 371 l 42 397 l 42 488 l 383 488 l 383 497 q 368 547 383 526 q 328 577 353 567 q 279 588 304 588 q 226 574 253 588 q 189 533 199 561 l 101 556 q 144 629 114 603 q 210 667 174 656 q 281 679 247 679 q 356 666 319 679 q 419 628 393 653 q 460 572 446 604 q 474 489 474 539 l 474 397 l 322 397 q 269 382 296 397 q 227 339 243 367 q 211 271 211 311 q 230 195 211 232 q 288 135 249 158 q 390 111 328 111 l 390 -3 m 467 -3 l 467 111 q 572 132 526 111 q 645 203 618 153 q 672 340 672 253 l 785 340 q 708 83 785 169 q 467 -3 631 -3 m 465 1049 q 629 1019 557 1049 q 743 917 701 989 q 785 718 785 846 l 785 340 l 672 340 l 672 697 q 628 885 672 824 q 472 946 585 946 l 465 946 l 465 872 q 483 788 465 821 q 533 740 501 756 q 606 725 565 725 l 606 632 q 468 664 522 632 q 389 750 414 696 q 364 868 364 804 l 364 1049 l 465 1049 z "},"ඒ":{"ha":826,"x_min":42,"x_max":785,"o":"m 674 719 l 674 1138 l 785 1138 l 785 719 l 674 719 m 390 -3 q 231 36 296 -3 q 132 138 165 75 q 99 269 99 200 q 109 337 99 303 q 140 397 119 371 l 42 397 l 42 488 l 383 488 l 383 497 q 368 547 383 526 q 328 577 353 567 q 279 588 304 588 q 226 574 253 588 q 189 533 199 561 l 101 556 q 144 629 114 603 q 210 667 174 656 q 281 679 247 679 q 356 666 319 679 q 419 628 393 653 q 460 572 446 604 q 474 489 474 539 l 474 397 l 322 397 q 269 382 296 397 q 227 339 243 367 q 211 271 211 311 q 230 195 211 232 q 288 135 249 158 q 390 111 328 111 l 390 -3 m 467 -3 l 467 111 q 572 132 526 111 q 645 203 618 153 q 672 340 672 253 l 785 340 q 708 83 785 169 q 467 -3 631 -3 m 465 1049 q 629 1019 557 1049 q 743 917 701 989 q 785 718 785 846 l 785 340 l 672 340 l 672 697 q 628 885 672 824 q 472 946 585 946 l 465 946 l 465 872 q 483 788 465 821 q 533 740 501 756 q 606 725 565 725 l 606 632 q 468 664 522 632 q 389 750 414 696 q 364 868 364 804 l 364 1049 l 465 1049 z "},"ඓ":{"ha":1461,"x_min":42,"x_max":1419,"o":"m 1025 -3 q 865 36 931 -3 q 767 138 800 75 q 733 269 733 200 q 744 337 733 303 q 775 397 754 371 l 676 397 l 676 488 l 1018 488 l 1018 497 q 1003 547 1018 526 q 963 577 988 567 q 914 588 939 588 q 860 574 888 588 q 824 533 833 561 l 736 556 q 778 629 749 603 q 845 667 808 656 q 915 679 882 679 q 991 666 954 679 q 1054 628 1028 653 q 1094 572 1081 604 q 1108 489 1108 539 l 1108 397 l 957 397 q 904 382 931 397 q 862 339 878 367 q 846 271 846 311 q 865 195 846 232 q 923 135 883 158 q 1025 111 963 111 l 1025 -3 m 1101 -3 l 1101 111 q 1207 132 1161 111 q 1280 203 1253 153 q 1307 340 1307 253 l 1419 340 q 1342 83 1419 169 q 1101 -3 1265 -3 m 1100 1049 q 1264 1019 1192 1049 q 1378 917 1336 989 q 1419 718 1419 846 l 1419 340 l 1307 340 l 1307 697 q 1263 885 1307 824 q 1107 946 1219 946 l 1100 946 l 1100 872 q 1118 788 1100 821 q 1168 740 1136 756 q 1240 725 1200 725 l 1240 632 q 1103 664 1157 632 q 1024 750 1049 696 q 999 868 999 804 l 999 1049 l 1100 1049 m 261 -7 q 142 25 186 -7 q 76 104 97 57 q 48 198 54 151 q 42 275 42 244 l 42 515 q 52 602 42 556 q 90 690 63 649 q 165 757 117 731 q 289 783 214 783 l 346 783 l 346 678 l 296 678 q 210 656 243 678 q 164 597 178 633 q 150 515 150 560 l 150 275 q 162 183 150 224 q 204 121 174 143 q 290 99 235 99 l 290 -7 l 261 -7 m 357 -7 l 357 99 q 455 131 425 99 q 485 219 485 164 l 485 321 q 472 365 485 351 q 442 383 460 379 q 404 386 424 386 l 324 386 l 324 492 l 444 492 q 519 481 486 492 q 573 440 553 469 q 593 354 593 410 l 593 218 q 571 107 593 158 q 504 24 549 56 q 392 -7 460 -7 l 357 -7 m 488 574 q 480 602 486 585 q 458 637 474 619 q 416 666 443 654 q 346 678 389 678 l 346 783 l 375 783 q 488 753 443 783 q 559 681 533 724 q 589 599 585 638 l 488 574 z "},"ඔ":{"ha":819,"x_min":42,"x_max":778,"o":"m 251 -4 q 144 21 192 -4 q 69 92 96 46 q 42 200 42 138 l 42 494 q 67 588 42 550 q 130 644 92 625 q 210 663 168 663 q 283 646 247 663 q 340 596 318 629 q 361 511 361 563 l 361 456 q 375 425 361 436 q 404 414 389 414 q 434 425 421 414 q 447 456 447 436 l 447 651 l 532 651 l 532 447 q 513 376 532 406 q 465 333 494 347 q 403 319 436 319 q 319 349 357 319 q 282 436 282 378 l 282 490 q 262 542 282 525 q 218 560 242 560 q 174 542 194 560 q 153 488 153 524 l 153 210 q 164 164 153 189 q 199 122 175 139 q 260 104 222 104 q 320 122 297 104 q 354 163 343 139 q 365 210 365 188 l 365 272 l 456 272 l 456 210 q 466 164 456 189 q 500 122 476 139 q 560 106 524 106 q 622 122 599 106 q 656 164 644 139 q 667 210 667 189 l 667 279 l 778 279 l 778 200 q 751 92 778 138 q 676 21 724 46 q 568 -4 629 -4 q 410 68 464 -4 q 342 13 383 31 q 251 -4 300 -4 m 157 756 l 49 783 q 76 892 49 843 q 149 976 103 942 q 249 1030 194 1011 q 360 1049 304 1049 l 360 939 q 262 919 308 939 q 186 858 215 899 q 157 756 157 817 m 667 279 l 667 711 q 639 853 667 804 q 560 920 611 903 q 439 938 510 938 l 439 1049 q 633 1015 558 1049 q 743 908 708 981 q 778 717 778 835 l 778 279 l 667 279 z "},"ඕ":{"ha":819,"x_min":42,"x_max":778,"o":"m 251 -4 q 144 21 192 -4 q 69 92 96 46 q 42 200 42 138 l 42 494 q 67 588 42 550 q 130 644 92 625 q 208 663 168 663 q 283 646 247 663 q 340 596 318 629 q 361 511 361 563 l 361 456 q 375 425 361 436 q 404 414 389 414 q 434 425 421 414 q 447 456 447 436 l 447 651 l 532 651 l 532 447 q 513 376 532 404 q 466 333 494 347 q 406 319 438 319 q 321 349 360 319 q 282 436 282 379 l 282 490 q 262 542 282 525 q 218 560 242 560 q 174 542 194 560 q 153 488 153 524 l 153 210 q 164 164 153 189 q 199 122 175 139 q 260 104 222 104 q 320 122 297 104 q 354 163 343 139 q 365 210 365 188 l 365 272 l 456 272 l 456 210 q 466 164 456 189 q 500 122 476 139 q 560 106 524 106 q 622 122 599 106 q 656 164 644 139 q 667 210 667 189 l 667 276 l 778 276 l 778 200 q 751 92 778 138 q 676 21 724 46 q 568 -4 629 -4 q 410 68 464 -4 q 342 13 383 31 q 251 -4 300 -4 m 667 276 l 667 640 q 647 741 667 707 q 586 788 626 775 q 483 800 546 800 l 483 906 q 659 877 594 906 q 751 794 724 849 q 778 658 778 739 l 778 276 l 667 276 m 88 800 l 88 906 l 136 906 q 106 948 114 925 q 97 993 97 971 q 119 1063 97 1031 q 178 1117 140 1096 q 261 1138 215 1138 l 383 1138 l 383 1040 l 283 1040 q 222 1019 240 1040 q 204 974 204 997 q 224 926 204 946 q 283 906 244 906 l 483 906 l 483 800 l 88 800 m 661 935 q 643 1008 661 986 q 595 1035 625 1031 q 526 1040 565 1040 l 461 1040 l 461 1138 l 544 1138 q 667 1121 622 1138 q 734 1075 713 1104 q 763 1010 756 1046 q 769 935 769 974 l 661 935 z "},"ඖ":{"ha":1389,"x_min":42,"x_max":1347,"o":"m 1103 -11 q 988 14 1043 -11 q 897 90 932 39 q 861 217 861 140 l 861 281 l 965 281 l 965 215 q 986 149 965 176 q 1039 107 1007 121 q 1107 93 1071 93 q 1173 106 1142 93 q 1224 147 1204 119 q 1243 215 1243 175 l 1243 624 q 1226 667 1243 653 q 1189 682 1210 682 q 1151 667 1168 682 q 1133 624 1133 653 l 1133 553 q 1092 455 1133 489 q 1001 421 1051 421 q 935 437 967 421 q 882 486 903 453 q 861 569 861 519 l 861 783 l 946 783 l 946 590 q 963 548 946 563 q 1000 533 981 533 q 1038 548 1021 533 q 1054 590 1054 563 l 1054 644 q 1075 725 1054 693 q 1128 773 1096 757 q 1197 789 1161 789 q 1300 749 1254 789 q 1347 631 1346 708 l 1347 217 q 1312 91 1347 142 q 1221 15 1276 40 q 1103 -11 1165 -11 m 251 -4 q 144 21 192 -4 q 69 92 96 46 q 42 200 42 138 l 42 494 q 67 588 42 550 q 130 644 92 625 q 210 663 168 663 q 283 646 247 663 q 340 596 318 629 q 361 511 361 563 l 361 456 q 375 425 361 436 q 404 414 389 414 q 434 425 421 414 q 447 456 447 436 l 447 651 l 532 651 l 532 447 q 513 376 532 406 q 465 333 494 347 q 403 319 436 319 q 319 349 357 319 q 282 436 282 378 l 282 490 q 262 542 282 525 q 218 560 242 560 q 174 542 194 560 q 153 488 153 524 l 153 210 q 164 164 153 189 q 199 122 175 139 q 260 104 222 104 q 320 122 297 104 q 354 163 343 139 q 365 210 365 188 l 365 272 l 456 272 l 456 210 q 466 164 456 189 q 500 122 476 139 q 560 106 524 106 q 622 122 599 106 q 656 164 644 139 q 667 210 667 189 l 667 279 l 778 279 l 778 200 q 751 92 778 138 q 676 21 724 46 q 568 -4 629 -4 q 410 68 464 -4 q 342 13 383 31 q 251 -4 300 -4 m 157 756 l 49 783 q 76 892 49 843 q 149 976 103 942 q 249 1030 194 1011 q 360 1049 304 1049 l 360 939 q 262 919 308 939 q 186 858 215 899 q 157 756 157 817 m 667 279 l 667 711 q 639 853 667 804 q 560 920 611 903 q 439 938 510 938 l 439 1049 q 633 1015 558 1049 q 743 908 708 981 q 778 717 778 835 l 778 279 l 667 279 z "},"ක":{"ha":1078,"x_min":42,"x_max":1036,"o":"m 263 786 q 383 753 329 786 q 454 674 438 721 l 376 594 q 333 660 368 638 q 260 682 299 682 q 189 659 222 682 q 142 590 156 636 l 44 621 q 97 718 61 682 q 176 770 132 754 q 263 786 221 786 m 715 786 q 872 749 799 786 q 990 635 944 711 q 1036 440 1036 560 l 1036 274 q 1013 127 1036 189 q 933 32 989 65 q 781 -1 878 -1 l 781 111 q 837 118 811 111 q 883 142 863 125 q 914 192 903 160 q 925 274 925 224 l 925 432 q 893 565 925 511 q 810 647 861 619 q 699 675 758 675 q 610 659 654 675 q 526 611 565 643 l 143 288 l 42 253 l 42 338 l 433 678 q 567 758 493 731 q 715 786 640 786 m 267 -8 q 182 12 222 -8 q 116 69 142 32 q 90 154 90 106 l 90 189 q 83 233 90 211 q 61 256 76 256 q 51 255 57 256 q 42 253 46 254 l 107 340 q 159 316 142 332 q 183 282 176 300 q 189 250 189 264 l 189 183 q 215 126 189 146 q 271 106 242 106 q 324 124 300 106 q 347 183 347 143 l 347 272 l 436 272 l 436 185 q 462 124 436 143 q 518 106 488 106 q 580 126 551 106 q 608 185 608 146 l 608 313 q 595 388 608 360 q 551 434 582 417 q 468 461 521 451 l 553 532 q 639 497 603 521 q 694 431 675 474 q 713 321 713 389 l 713 171 q 687 74 713 114 q 619 13 661 33 q 532 -7 578 -7 q 458 8 494 -7 q 392 50 421 22 q 334 6 367 21 q 267 -8 301 -8 z "},"ඛ":{"ha":836,"x_min":42,"x_max":794,"o":"m 588 -7 q 483 17 533 -7 q 400 87 432 42 q 368 193 368 132 l 368 283 l 476 283 l 476 217 q 509 140 476 165 q 579 115 542 115 q 649 140 617 115 q 681 217 681 165 l 681 706 q 630 885 681 832 q 476 938 579 938 l 450 938 l 450 1049 l 476 1049 q 650 1013 579 1049 q 758 903 721 978 q 794 706 794 828 l 794 229 q 764 94 794 146 q 687 17 733 42 q 588 -7 640 -7 m 368 -90 l 368 382 q 335 474 368 443 q 260 506 301 506 q 185 474 219 506 q 151 382 151 443 l 151 260 q 167 171 151 203 q 214 125 182 139 q 294 111 246 111 l 294 0 q 147 29 203 0 q 67 115 92 58 q 42 253 42 171 l 42 389 q 74 518 42 467 q 158 595 107 569 q 263 621 208 621 q 366 597 317 621 q 446 524 415 572 q 476 403 476 476 l 476 -90 l 368 -90 m 169 756 l 61 783 q 88 892 61 843 q 160 976 115 942 q 260 1030 206 1011 q 372 1049 315 1049 l 372 938 q 274 917 319 938 q 199 857 228 897 q 169 756 169 817 z "},"ග":{"ha":985,"x_min":42,"x_max":943,"o":"m 678 -11 l 678 101 q 765 126 731 101 q 815 192 799 150 q 831 290 831 235 l 831 476 q 815 577 831 533 q 766 646 800 621 q 678 671 732 671 l 678 783 q 825 745 767 783 q 913 639 883 707 q 943 482 943 571 l 943 290 q 913 133 943 201 q 825 27 883 65 q 678 -11 767 -11 m 306 -11 q 159 27 218 -11 q 71 133 100 65 q 42 290 42 201 l 42 482 q 71 639 42 571 q 159 745 100 707 q 306 783 218 783 l 306 671 q 219 646 253 671 q 169 577 185 621 q 153 476 153 533 l 153 290 q 169 192 153 235 q 219 126 186 150 q 306 101 253 101 l 306 -11 m 383 -11 l 383 101 q 462 117 432 101 q 506 161 492 132 q 519 231 519 190 q 514 285 519 256 q 485 338 508 315 q 413 360 463 360 l 375 360 l 375 451 l 461 451 q 549 427 514 451 q 603 360 585 403 q 622 257 622 317 l 622 213 q 559 44 622 99 q 383 -11 496 -11 m 351 360 l 351 494 q 376 642 351 576 q 455 745 400 707 q 600 783 510 783 l 600 671 q 513 644 543 671 q 473 577 483 618 q 463 496 463 536 l 463 360 l 351 360 z "},"ඝ":{"ha":946,"x_min":42,"x_max":904,"o":"m 300 -6 q 201 19 246 -6 q 128 90 156 43 q 101 203 101 136 l 101 271 l 213 271 l 213 208 q 240 131 213 158 q 307 104 267 104 q 379 133 358 104 q 400 210 400 161 q 416 263 400 243 q 479 283 432 283 l 533 283 q 590 262 575 282 q 606 211 606 242 q 626 133 606 161 q 699 104 646 104 q 766 133 739 104 q 793 208 793 161 l 793 271 l 904 271 l 904 203 q 877 90 904 136 q 805 19 850 43 q 706 -6 760 -6 q 583 36 624 -6 q 542 156 542 78 q 533 186 542 176 q 503 196 524 196 q 473 186 482 196 q 464 156 464 176 q 423 36 464 78 q 300 -6 382 -6 m 101 340 l 101 385 q 107 430 101 410 q 126 458 113 450 l 42 458 l 42 558 l 722 558 q 804 548 769 558 q 860 516 839 538 q 893 464 882 494 q 904 394 904 433 l 904 340 l 793 340 l 793 383 q 782 431 793 414 q 751 453 771 447 q 711 458 732 458 l 297 458 q 254 453 274 458 q 224 431 235 447 q 213 383 213 414 l 213 340 l 101 340 m 451 526 l 451 567 q 436 628 451 601 q 393 672 421 656 q 328 688 365 688 q 250 668 279 688 q 211 621 221 649 l 114 653 q 200 758 140 726 q 329 789 260 789 q 388 782 357 789 q 450 759 419 775 q 504 713 481 743 q 557 759 526 743 q 619 782 588 775 q 678 789 651 789 q 808 758 747 789 q 894 653 868 726 l 796 621 q 757 668 786 649 q 679 688 728 688 q 614 672 642 688 q 571 628 586 656 q 556 567 556 601 l 556 526 l 451 526 z "},"ඞ":{"ha":813,"x_min":42,"x_max":771,"o":"m 257 -4 q 147 21 196 -4 q 69 92 97 46 q 42 200 42 138 l 42 299 q 49 375 42 340 q 77 435 57 410 q 134 473 97 460 q 228 486 171 486 l 328 486 l 328 397 l 288 397 q 201 388 231 397 q 163 358 172 378 q 153 311 153 339 l 153 208 q 163 167 153 190 q 195 125 172 143 q 257 107 218 107 q 319 125 297 107 q 351 167 342 143 q 360 208 360 190 l 360 272 l 451 272 l 451 208 q 460 167 451 190 q 492 125 469 143 q 554 107 514 107 q 616 125 593 107 q 649 167 639 143 q 658 208 658 190 l 658 313 l 771 313 l 771 200 q 713 51 771 107 q 565 -4 656 -4 q 478 13 519 -4 q 408 68 436 31 q 344 13 383 31 q 257 -4 306 -4 m 297 397 l 297 486 l 343 486 q 389 505 374 486 q 404 546 404 524 q 390 583 404 567 q 346 600 375 600 l 242 600 q 188 589 204 600 q 166 565 171 578 q 161 543 161 551 l 74 543 q 92 619 74 586 q 148 670 111 651 q 240 689 185 689 l 347 689 q 430 668 397 689 q 478 614 463 647 q 494 544 494 581 q 478 474 494 508 q 428 419 461 440 q 347 397 396 397 l 297 397 m 158 754 l 49 782 q 76 892 49 843 q 151 975 104 940 q 253 1028 197 1010 q 365 1047 308 1047 l 365 938 q 265 917 313 938 q 188 856 218 897 q 158 754 158 815 m 658 313 l 658 704 q 635 842 658 792 q 565 915 611 893 q 443 938 518 938 l 443 1047 q 626 1015 553 1047 q 735 909 699 982 q 771 717 771 836 l 771 313 l 658 313 z "},"ඟ":{"ha":1208,"x_min":42,"x_max":1167,"o":"m 136 -22 q 74 79 94 32 q 48 177 54 126 q 42 290 42 228 l 42 399 q 53 556 42 485 q 99 677 65 626 q 197 756 132 728 q 368 783 263 783 l 531 783 l 531 671 l 322 671 q 224 646 258 671 q 174 581 189 621 q 154 493 158 542 q 150 399 150 444 l 150 290 q 155 192 150 235 q 179 108 160 149 q 243 13 199 67 l 136 -22 m 531 -11 q 384 27 443 -11 q 296 133 325 65 q 267 290 267 201 l 267 482 q 296 639 267 571 q 384 745 325 707 q 531 783 443 783 l 531 671 q 442 646 476 671 q 393 577 408 621 q 378 476 378 533 l 378 290 q 394 192 378 235 q 444 126 410 150 q 531 101 478 101 l 531 -11 m 608 -11 l 608 101 q 687 117 657 101 q 731 161 717 132 q 744 231 744 190 q 738 285 744 256 q 710 338 732 315 q 636 360 688 360 l 599 360 l 599 451 l 686 451 q 774 427 738 451 q 828 360 810 403 q 846 257 846 317 l 846 213 q 783 44 846 99 q 608 -11 719 -11 m 575 360 l 575 494 q 600 642 575 576 q 679 745 625 707 q 825 783 733 783 l 825 671 q 738 644 768 671 q 697 577 707 618 q 688 496 688 536 l 688 360 l 575 360 m 903 -11 l 903 101 q 989 126 956 101 q 1039 192 1022 150 q 1056 290 1056 235 l 1056 476 q 1040 577 1056 533 q 991 646 1025 621 q 903 671 957 671 l 903 783 q 1050 745 992 783 q 1138 639 1108 707 q 1167 482 1167 571 l 1167 290 q 1138 133 1167 201 q 1050 27 1108 65 q 903 -11 992 -11 z "},"ච":{"ha":828,"x_min":42,"x_max":786,"o":"m 468 -3 l 468 108 q 573 129 526 108 q 647 201 619 150 q 674 340 674 251 l 674 706 q 622 884 674 831 q 468 938 571 938 l 468 1049 q 642 1014 571 1049 q 749 906 713 979 q 786 717 786 833 l 786 340 q 708 83 786 169 q 468 -3 631 -3 m 390 -3 q 231 36 296 -3 q 132 137 165 75 q 99 268 99 199 q 109 337 99 303 q 140 397 119 371 l 42 397 l 42 488 l 383 488 l 383 494 q 368 547 383 526 q 328 577 353 567 q 279 588 304 588 q 226 574 253 588 q 189 533 199 561 l 101 556 q 144 629 114 603 q 210 667 174 656 q 281 679 247 679 q 356 666 319 679 q 419 628 393 653 q 460 572 446 604 q 474 489 474 539 l 474 397 l 322 397 q 263 378 288 397 q 224 331 238 360 q 211 268 211 301 q 230 193 211 229 q 288 133 249 157 q 390 108 328 108 l 390 -3 m 203 756 l 94 783 q 120 889 94 840 q 190 973 146 938 q 285 1028 233 1008 q 390 1049 338 1049 l 390 939 q 301 917 343 939 q 231 853 258 894 q 203 756 203 813 z "},"ඡ":{"ha":881,"x_min":42,"x_max":838,"o":"m 394 -11 q 128 57 210 -11 q 46 274 46 125 l 157 274 q 185 165 157 204 q 265 112 213 126 q 389 97 317 97 l 481 97 q 606 113 554 97 q 685 167 657 128 q 713 274 713 206 l 713 351 l 601 350 q 488 380 539 350 q 408 460 438 410 q 379 568 379 510 q 410 679 379 629 q 491 758 440 729 q 601 788 542 788 q 697 765 653 788 q 771 705 740 743 q 810 618 801 667 l 711 608 q 670 664 700 642 q 601 686 640 686 q 543 670 569 686 q 501 628 517 654 q 485 569 485 601 q 501 510 485 538 q 543 467 517 483 q 601 451 569 451 l 729 451 q 801 427 778 451 q 824 367 824 403 l 824 274 q 740 58 824 126 q 476 -11 657 -11 l 394 -11 m 46 342 q 75 474 46 426 q 156 540 104 521 q 274 558 207 558 l 379 558 q 365 626 379 597 q 322 672 350 656 q 257 688 294 688 q 178 668 207 688 q 140 621 150 649 l 42 653 q 128 758 68 726 q 260 789 188 789 q 318 782 286 789 q 379 758 350 775 q 430 710 408 740 q 458 631 451 679 l 489 458 l 281 458 q 200 442 226 458 q 165 399 174 426 q 157 342 157 372 l 46 342 m 429 701 l 756 1128 l 838 1068 l 542 676 l 429 701 z "},"ජ":{"ha":879,"x_min":43,"x_max":831,"o":"m 393 -11 q 126 57 208 -11 q 44 274 44 125 l 156 274 q 183 165 156 204 q 263 112 210 126 q 388 97 315 97 l 479 97 q 604 113 553 97 q 683 167 656 128 q 711 274 711 206 l 822 274 q 739 58 822 126 q 474 -11 656 -11 l 393 -11 m 44 342 q 74 474 44 426 q 154 540 103 521 q 272 558 206 558 l 585 558 q 713 541 660 558 q 794 476 765 524 q 822 342 822 429 l 711 342 q 703 403 711 376 q 668 444 694 431 q 588 458 642 458 l 279 458 q 198 442 225 458 q 163 399 171 426 q 156 342 156 372 l 44 342 m 381 526 l 381 567 q 365 628 381 601 q 322 672 350 656 q 257 688 294 688 q 179 668 208 688 q 140 621 150 649 l 43 653 q 129 758 69 726 q 258 789 189 789 q 317 782 286 789 q 379 759 349 775 q 433 713 410 743 q 486 759 456 743 q 549 782 517 775 q 607 789 581 789 q 737 758 676 789 q 824 653 797 726 l 725 621 q 686 668 715 649 q 608 688 657 688 q 543 672 571 688 q 500 628 515 656 q 485 567 485 601 l 485 526 l 381 526 m 428 706 l 749 1128 l 831 1068 l 535 676 l 428 706 z "},"ඣ":{"ha":1551,"x_min":42,"x_max":1510,"o":"m 42 253 l 42 349 l 453 694 q 604 775 524 749 q 763 801 685 801 q 904 776 838 801 q 1017 695 971 750 q 1076 553 1063 640 l 961 553 q 919 635 950 604 q 845 681 888 667 q 756 694 803 694 q 638 673 697 694 q 526 611 578 651 l 143 288 l 42 253 m 142 590 l 44 621 q 97 718 61 682 q 176 770 132 754 q 263 786 221 786 q 383 753 329 786 q 454 674 438 721 l 376 594 q 333 660 368 638 q 260 682 299 682 q 189 659 222 682 q 142 590 156 636 m 994 -4 q 885 21 935 -4 q 808 92 836 46 q 781 200 781 138 l 781 401 q 798 504 781 453 q 858 594 815 556 q 975 642 900 632 l 1022 653 l 1076 553 l 1049 553 q 971 538 1001 553 q 923 498 940 522 q 899 447 906 474 q 892 396 892 419 l 892 208 q 901 167 892 190 q 933 125 911 143 q 996 107 956 107 q 1058 125 1036 107 q 1090 167 1081 143 q 1099 208 1099 190 l 1099 272 l 1189 272 l 1189 208 q 1199 167 1189 190 q 1231 125 1208 143 q 1292 107 1253 107 q 1355 125 1332 107 q 1387 167 1378 143 q 1396 208 1396 190 l 1396 314 l 1510 314 l 1510 200 q 1452 51 1510 107 q 1304 -4 1394 -4 q 1215 13 1257 -4 q 1147 68 1174 31 q 1082 13 1121 31 q 994 -4 1043 -4 m 926 850 l 818 890 q 885 978 842 943 q 985 1031 929 1014 q 1099 1049 1042 1049 l 1099 939 q 1028 930 1063 939 q 966 901 993 921 q 926 850 939 882 m 1396 313 l 1396 706 q 1372 844 1396 793 q 1299 916 1347 894 q 1178 938 1251 938 l 1178 1049 q 1361 1016 1288 1049 q 1472 910 1435 983 q 1510 717 1510 838 l 1510 313 l 1396 313 m 478 471 l 553 532 q 639 497 603 521 q 694 431 675 474 q 713 321 713 389 l 713 171 q 687 74 713 114 q 619 13 661 33 q 532 -7 578 -7 q 458 8 494 -7 q 392 50 421 22 q 334 6 367 21 q 267 -8 301 -8 q 182 12 222 -8 q 116 69 142 32 q 90 154 90 106 l 90 189 q 86 233 90 211 q 61 256 82 256 q 51 255 57 256 q 42 253 46 254 l 107 347 q 159 321 142 339 q 183 283 176 303 q 189 250 189 264 l 189 183 q 215 126 189 146 q 271 106 242 106 q 324 124 300 106 q 347 183 347 143 l 347 272 l 436 272 l 436 185 q 462 124 436 143 q 518 106 488 106 q 580 126 551 106 q 608 185 608 146 l 608 313 q 596 385 608 357 q 555 431 583 414 q 478 457 526 447 l 478 471 z "},"ඤ":{"ha":1576,"x_min":42,"x_max":1576,"o":"m 1185 0 q 1029 28 1101 0 q 913 118 957 57 q 869 276 869 179 q 910 432 869 371 q 1021 524 950 493 q 1183 556 1092 556 l 1321 556 q 1295 642 1321 610 q 1231 690 1269 674 q 1149 710 1192 706 q 1071 715 1106 715 l 1071 822 q 1193 811 1129 822 q 1311 769 1257 800 q 1399 685 1365 739 q 1433 544 1433 631 l 1433 447 l 1175 447 q 1076 428 1119 447 q 1008 372 1033 410 q 983 276 983 333 q 1008 187 983 225 q 1077 128 1032 149 q 1185 108 1122 108 l 1238 108 q 1343 134 1296 108 q 1417 218 1390 160 l 1518 192 q 1468 101 1500 138 q 1397 42 1436 64 q 1316 10 1357 19 q 1238 0 1275 0 l 1185 0 m 140 -43 q 78 58 99 11 q 49 157 57 106 q 42 271 42 208 l 42 429 q 74 596 42 532 q 158 689 106 660 q 267 718 210 718 q 306 715 285 718 q 356 699 328 711 l 356 590 q 304 606 324 601 q 268 610 285 610 q 205 590 232 610 q 164 529 178 569 q 150 429 150 489 l 150 271 q 156 172 150 215 q 182 88 161 129 q 247 -7 203 47 l 140 -43 m 481 -8 q 397 12 438 -8 q 330 69 356 32 q 304 154 304 106 l 304 189 q 301 233 304 211 q 275 256 297 256 q 265 255 271 256 q 256 253 260 254 l 321 347 q 373 321 356 339 q 397 283 390 303 q 403 250 403 264 l 403 183 q 429 126 403 146 q 486 106 456 106 q 538 124 514 106 q 561 183 561 143 l 561 272 l 650 272 l 650 185 q 676 124 650 143 q 732 106 701 106 q 794 126 765 106 q 822 185 822 146 l 822 313 q 809 388 822 360 q 766 434 796 417 q 682 461 736 451 l 768 532 q 853 497 817 521 q 908 431 889 474 q 928 321 928 389 l 928 171 q 901 74 928 114 q 834 13 875 33 q 747 -7 793 -7 q 672 8 708 -7 q 606 50 635 22 q 549 6 582 21 q 481 -8 515 -8 m 356 590 l 258 621 q 312 718 276 682 q 391 770 347 754 q 478 786 435 786 q 598 753 544 786 q 668 674 651 721 l 592 594 q 549 660 583 638 q 474 682 514 682 q 403 659 436 682 q 356 590 371 636 m 1332 -283 q 1209 -258 1264 -283 q 1122 -182 1154 -232 q 1089 -62 1089 -132 l 1199 -62 q 1218 -125 1199 -99 q 1269 -166 1238 -151 q 1336 -181 1300 -181 q 1419 -156 1379 -181 q 1469 -82 1458 -132 l 1576 -108 q 1528 -201 1563 -162 q 1444 -262 1494 -240 q 1332 -283 1393 -283 m 256 253 l 256 349 l 665 692 q 775 765 721 736 q 883 808 829 794 q 994 822 938 822 l 994 715 q 865 688 928 715 q 742 611 801 660 l 358 288 l 256 253 z "},"ඥ":{"ha":1478,"x_min":42,"x_max":1478,"o":"m 1086 -4 q 928 28 997 -4 q 821 122 860 61 q 782 268 782 183 q 818 409 782 350 q 922 499 854 468 q 1081 529 989 529 l 1222 529 q 1194 613 1222 583 q 1124 657 1167 643 q 1040 674 1082 671 q 972 678 999 678 l 972 792 q 1058 788 1010 792 q 1156 769 1107 783 q 1244 726 1204 756 q 1310 647 1285 697 q 1335 518 1335 596 l 1335 421 l 1076 421 q 938 379 983 421 q 892 267 892 338 q 940 151 892 199 q 1086 104 989 104 l 1139 104 q 1244 130 1197 104 q 1318 214 1292 156 l 1419 188 q 1369 97 1401 133 q 1298 38 1338 60 q 1217 6 1258 15 q 1139 -4 1175 -4 l 1086 -4 m 140 -31 q 78 71 99 24 q 49 169 57 118 q 42 283 42 221 l 42 399 q 53 556 42 485 q 99 677 65 626 q 197 756 132 728 q 368 783 263 783 l 531 783 l 531 671 l 322 671 q 224 646 258 671 q 174 581 189 621 q 154 493 158 542 q 150 399 150 444 l 150 283 q 156 185 150 228 q 182 101 161 142 q 247 6 203 60 l 140 -31 m 531 -11 q 384 27 443 -11 q 296 133 325 65 q 267 290 267 201 l 267 482 q 296 639 267 571 q 384 745 325 707 q 531 783 443 783 l 531 671 q 442 646 476 671 q 393 577 408 621 q 378 476 378 533 l 378 290 q 394 192 378 235 q 444 126 410 150 q 531 101 478 101 l 531 -11 m 608 -11 l 608 101 q 687 117 657 101 q 731 161 717 132 q 744 231 744 190 q 738 285 744 256 q 710 338 732 315 q 636 360 688 360 l 599 360 l 599 451 l 686 451 q 774 424 738 451 q 828 351 810 397 q 846 244 846 304 l 846 213 q 783 44 846 99 q 608 -11 719 -11 m 1233 -287 q 1110 -261 1165 -287 q 1022 -185 1054 -235 q 990 -67 990 -136 l 1100 -67 q 1119 -129 1100 -103 q 1170 -170 1139 -156 q 1236 -185 1201 -185 q 1319 -160 1281 -185 q 1371 -86 1358 -136 l 1478 -112 q 1430 -206 1464 -167 q 1345 -266 1396 -244 q 1233 -287 1294 -287 m 575 360 l 575 494 q 613 658 575 592 q 717 757 650 724 q 875 792 785 790 l 894 792 l 894 679 l 875 679 q 776 656 818 678 q 710 594 733 635 q 688 496 688 553 l 688 360 l 575 360 z "},"ඦ":{"ha":1097,"x_min":42,"x_max":1049,"o":"m 138 -29 q 75 72 96 25 q 48 168 54 118 q 42 281 42 218 l 42 475 q 49 551 42 513 q 72 625 56 590 q 115 688 88 660 q 185 733 143 717 q 285 750 228 750 q 325 747 304 750 q 353 732 346 743 l 353 622 q 307 638 326 633 q 271 642 288 642 q 206 622 233 642 q 163 561 178 601 q 147 461 147 521 l 147 283 q 153 185 147 228 q 179 101 158 143 q 244 6 200 60 l 138 -29 m 611 -11 q 344 57 426 -11 q 263 274 263 125 l 374 274 q 401 165 374 204 q 481 112 428 126 q 606 97 533 97 l 697 97 q 822 113 771 97 q 901 167 874 128 q 929 274 929 206 l 1040 274 q 957 58 1040 126 q 692 -11 874 -11 l 611 -11 m 263 342 q 292 474 263 426 q 372 540 321 521 q 490 558 424 558 l 803 558 q 931 541 878 558 q 1012 476 983 524 q 1040 342 1040 429 l 929 342 q 921 403 929 376 q 886 444 913 431 q 806 458 860 458 l 497 458 q 416 442 443 458 q 381 399 389 426 q 374 342 374 372 l 263 342 m 599 526 l 599 567 q 583 628 599 601 q 540 672 568 656 q 475 688 513 688 q 397 668 426 688 q 358 621 368 649 l 261 653 q 347 758 288 726 q 476 789 407 789 q 535 782 504 789 q 597 759 567 775 q 651 713 628 743 q 704 759 674 743 q 767 782 735 775 q 825 789 799 789 q 955 758 894 789 q 1042 653 1015 726 l 943 621 q 904 668 933 649 q 826 688 875 688 q 761 672 789 688 q 718 628 733 656 q 703 567 703 601 l 703 526 l 599 526 m 646 706 l 967 1128 l 1049 1068 l 753 676 l 646 706 z "},"ට":{"ha":769,"x_min":42,"x_max":728,"o":"m 411 -3 l 411 108 q 519 129 474 108 q 590 200 564 150 q 615 339 615 250 l 615 711 q 590 848 615 799 q 519 917 564 897 q 411 938 474 938 l 411 1049 q 652 965 576 1049 q 728 717 728 882 l 728 332 q 712 202 728 263 q 660 95 696 142 q 563 23 624 49 q 411 -3 503 -3 m 333 -3 q 203 24 257 -3 q 114 94 149 51 q 63 188 79 138 q 47 282 47 238 l 47 371 q 58 464 47 414 q 99 557 69 514 q 186 628 129 600 q 333 656 243 656 l 333 544 q 237 523 276 544 q 178 463 197 501 q 158 371 158 424 l 158 290 q 178 201 158 243 q 238 134 199 160 q 333 108 278 108 l 333 -3 m 150 756 l 42 783 q 67 889 42 840 q 136 973 93 938 q 231 1028 179 1008 q 333 1049 282 1049 l 333 939 q 247 917 289 939 q 177 853 204 894 q 150 756 150 813 z "},"ඨ":{"ha":824,"x_min":53,"x_max":782,"o":"m 267 -4 q 158 21 207 -4 q 81 92 108 46 q 53 200 53 138 l 53 397 q 64 481 53 438 q 103 564 75 525 q 183 628 132 603 q 314 653 235 653 l 354 653 l 354 542 l 314 542 q 240 526 269 542 q 194 488 210 511 q 171 438 178 464 q 164 390 164 411 l 164 213 q 174 168 164 193 q 206 125 183 143 q 268 107 228 107 q 331 125 308 107 q 362 167 353 143 q 371 208 371 190 l 371 272 l 461 272 l 461 208 q 471 167 461 190 q 503 125 481 143 q 564 107 525 107 q 628 125 606 107 q 660 167 650 143 q 669 208 669 190 l 669 279 l 782 279 l 782 200 q 724 51 782 107 q 576 -4 667 -4 q 488 13 529 -4 q 419 68 446 31 q 354 13 393 31 q 267 -4 315 -4 m 463 1049 q 626 1019 554 1049 q 740 917 699 989 q 782 718 782 846 l 782 276 l 669 276 l 669 697 q 626 885 669 824 q 469 946 582 946 l 463 946 l 463 872 q 481 788 463 821 q 531 740 499 756 q 603 725 563 725 l 603 632 q 465 664 519 632 q 386 750 411 696 q 361 868 361 804 l 361 1049 l 463 1049 z "},"ඩ":{"ha":871,"x_min":42,"x_max":829,"o":"m 315 -4 q 206 21 254 -4 q 130 92 158 46 q 101 200 101 138 l 101 318 q 107 364 101 340 q 129 397 113 388 l 42 397 l 42 488 l 418 488 q 385 562 418 538 q 314 586 353 586 q 263 574 290 586 q 224 532 235 563 l 136 556 q 180 629 150 603 q 247 667 210 656 q 317 678 283 678 q 392 665 356 678 q 456 628 429 653 q 495 571 481 604 q 510 489 510 538 l 510 397 l 293 397 q 252 390 271 397 q 222 366 233 383 q 211 318 211 349 l 211 208 q 221 167 211 190 q 253 125 231 143 q 315 107 276 107 q 378 125 356 107 q 409 167 400 143 q 418 208 418 190 l 418 272 l 510 272 l 510 208 q 519 167 510 190 q 550 125 528 143 q 613 107 572 107 q 674 125 651 107 q 707 167 697 143 q 717 208 717 190 l 717 276 l 829 276 l 829 200 q 772 51 829 107 q 624 -4 714 -4 q 536 13 578 -4 q 467 68 494 31 q 403 13 442 31 q 315 -4 364 -4 m 221 756 l 111 783 q 139 892 111 843 q 213 976 167 942 q 315 1030 260 1011 q 428 1049 371 1049 l 428 939 q 328 919 375 939 q 251 858 281 899 q 221 756 221 817 m 717 276 l 717 706 q 694 843 717 792 q 624 916 671 894 q 506 938 578 938 l 506 1049 q 685 1015 613 1049 q 793 909 757 982 q 829 717 829 836 l 829 276 l 717 276 z "},"ඪ":{"ha":871,"x_min":42,"x_max":829,"o":"m 315 -4 q 206 21 254 -4 q 130 92 158 46 q 101 200 101 138 l 101 301 q 110 362 101 336 q 135 397 118 388 l 42 397 l 42 488 l 418 488 q 385 562 418 538 q 314 586 353 586 q 263 574 290 586 q 224 532 235 563 l 136 556 q 180 629 150 603 q 247 667 210 656 q 317 678 283 678 q 392 665 356 678 q 456 628 429 653 q 495 571 481 604 q 510 489 510 538 l 510 399 l 294 399 q 252 392 271 399 q 222 367 233 385 q 211 318 211 349 l 211 208 q 221 167 211 190 q 253 125 231 143 q 315 107 276 107 q 378 125 356 107 q 409 167 400 143 q 418 208 418 190 l 418 272 l 510 272 l 510 208 q 519 167 510 190 q 550 125 528 143 q 613 107 572 107 q 675 125 653 107 q 707 167 697 143 q 717 208 717 190 l 717 278 l 829 278 l 829 200 q 772 51 829 107 q 624 -4 714 -4 q 536 13 578 -4 q 467 68 494 31 q 403 13 442 31 q 315 -4 364 -4 m 510 1049 q 674 1019 601 1049 q 788 917 746 989 q 829 718 829 846 l 829 357 l 717 357 l 717 697 q 674 885 717 824 q 517 946 631 946 l 510 946 l 510 872 q 528 788 510 821 q 578 740 546 756 q 651 725 611 725 l 651 632 q 514 664 567 632 q 437 750 461 696 q 413 868 413 804 l 413 1049 l 510 1049 z "},"ණ":{"ha":1368,"x_min":8,"x_max":1326,"o":"m 115 -8 l 8 18 q 62 97 29 67 q 133 144 94 128 q 211 160 172 160 q 294 148 257 160 q 367 124 332 136 q 440 113 403 113 q 501 126 469 113 q 556 177 533 140 q 579 282 579 214 l 579 510 q 567 600 579 558 q 531 672 556 642 q 470 718 507 701 q 383 735 433 735 q 283 714 321 735 q 224 663 244 693 q 197 602 204 632 q 190 554 190 572 q 196 508 190 538 q 219 450 201 479 q 269 401 236 421 q 360 381 303 381 l 429 381 l 429 274 l 331 272 q 207 307 264 272 q 115 405 150 342 q 81 553 81 468 q 124 713 81 649 q 237 809 167 776 q 389 842 307 842 q 534 815 478 842 q 622 748 590 789 q 667 661 653 707 q 683 574 681 615 q 686 510 686 533 l 686 282 q 666 154 686 208 q 613 67 646 100 q 539 17 579 33 q 458 0 499 0 q 375 13 414 0 q 300 39 336 26 q 225 51 264 51 q 158 37 188 51 q 115 -8 128 22 m 1035 -10 q 892 19 957 -10 q 789 100 826 47 q 751 225 751 153 l 751 274 l 863 274 l 863 238 q 888 159 863 190 q 955 113 914 128 q 1039 99 996 99 q 1122 113 1082 99 q 1189 157 1163 126 q 1215 236 1215 188 l 1215 274 l 1326 274 l 1326 233 q 1285 99 1326 154 q 1178 17 1244 44 q 1035 -10 1111 -10 m 922 383 l 922 554 q 893 642 922 615 q 826 669 864 669 q 787 660 804 669 q 757 639 769 651 l 719 740 q 765 770 735 757 q 838 783 796 783 q 920 765 883 783 q 979 714 957 746 q 1042 765 1003 746 q 1131 783 1081 783 q 1228 762 1183 783 q 1299 696 1272 740 q 1326 585 1326 651 l 1326 342 l 1215 342 l 1215 567 q 1190 640 1215 613 q 1124 668 1165 668 q 1057 642 1083 668 q 1031 567 1031 615 l 1031 383 l 922 383 m 549 714 l 450 764 l 731 1128 l 815 1068 l 549 714 z "},"ඬ":{"ha":1044,"x_min":42,"x_max":1003,"o":"m 489 -4 q 380 21 428 -4 q 303 92 332 46 q 275 200 275 138 l 275 307 q 281 353 275 329 q 303 386 286 376 l 226 386 l 226 476 l 585 476 q 550 553 585 526 q 469 579 515 579 q 418 567 443 579 q 375 525 393 554 l 288 556 q 332 627 301 600 q 401 666 363 654 q 478 678 440 678 q 585 653 539 678 q 657 583 631 628 q 683 478 683 538 l 683 386 l 468 386 q 426 379 444 386 q 397 355 407 372 q 386 307 386 338 l 386 208 q 395 167 386 190 q 427 125 404 143 q 490 107 450 107 q 551 125 529 107 q 583 167 574 143 q 593 208 593 190 l 593 272 l 683 272 l 683 208 q 692 167 683 190 q 724 125 701 143 q 786 107 747 107 q 849 125 826 107 q 881 167 871 143 q 890 208 890 190 l 890 347 l 1003 347 l 1003 200 q 945 51 1003 107 q 797 -4 888 -4 q 710 13 751 -4 q 640 68 668 31 q 576 13 615 31 q 489 -4 538 -4 m 126 -22 q 72 69 90 26 q 47 156 53 111 q 42 253 42 201 l 42 396 q 73 535 42 478 q 156 622 104 592 q 272 651 208 651 q 381 631 326 651 l 367 528 q 317 542 338 538 q 276 546 296 546 q 204 525 233 546 q 160 466 175 504 q 146 379 146 428 l 146 249 q 152 169 146 206 q 176 96 158 132 q 233 14 194 60 l 126 -22 m 394 756 l 286 783 q 313 892 286 843 q 387 976 340 942 q 490 1030 433 1011 q 601 1049 546 1049 l 601 939 q 502 919 550 939 q 424 858 454 899 q 394 756 394 817 m 890 313 l 890 706 q 867 843 890 792 q 798 916 844 894 q 679 938 751 938 l 679 1049 q 858 1015 786 1049 q 967 909 931 982 q 1003 717 1003 836 l 1003 313 l 890 313 z "},"ත":{"ha":1061,"x_min":42,"x_max":1019,"o":"m 764 -1 l 764 111 q 820 118 794 111 q 866 142 846 125 q 897 192 886 160 q 908 274 908 224 l 908 432 q 878 565 908 511 q 797 644 847 618 q 690 671 747 671 q 606 656 649 671 q 526 611 563 640 l 143 292 l 42 249 l 42 349 l 433 678 q 517 734 475 711 q 604 769 558 757 q 700 782 650 782 q 856 745 783 782 q 974 633 929 708 q 1019 440 1019 557 l 1019 274 q 996 127 1019 189 q 917 32 972 65 q 764 -1 861 -1 m 431 -8 q 308 10 360 -8 q 221 62 257 29 q 158 138 185 94 q 129 191 142 165 q 101 234 117 217 q 63 251 86 251 q 52 251 57 251 q 42 249 47 250 l 83 333 q 99 337 92 336 q 113 338 107 338 q 163 320 143 338 q 198 276 183 303 q 228 219 213 249 q 268 162 244 189 q 329 117 292 135 q 424 100 367 100 q 517 122 479 100 q 576 182 556 144 q 597 267 597 219 q 588 346 597 310 q 549 410 579 382 q 451 454 518 438 l 536 524 q 645 460 610 503 q 692 367 681 418 q 703 264 703 315 q 670 124 703 185 q 576 27 638 63 q 431 -8 515 -8 m 172 590 l 75 621 q 127 718 92 682 q 207 770 163 754 q 292 786 251 786 q 379 770 339 786 q 448 728 419 754 q 485 676 476 703 l 407 594 q 364 660 399 638 q 290 682 329 682 q 219 659 253 682 q 172 590 186 636 z "},"ථ":{"ha":765,"x_min":42,"x_max":724,"o":"m 332 -3 q 200 23 254 -3 q 110 90 146 49 q 58 180 75 132 q 42 272 42 228 l 42 367 q 53 461 42 414 q 91 549 64 508 q 169 614 118 589 q 300 639 221 639 l 328 639 l 328 528 l 303 528 q 192 487 233 528 q 153 356 151 446 l 153 286 q 174 195 153 235 q 236 133 196 156 q 332 111 276 111 l 332 -3 m 408 -3 l 408 111 q 513 132 468 111 q 585 203 558 153 q 611 340 611 253 l 724 340 q 648 83 724 169 q 408 -3 572 -3 m 404 1049 q 567 1019 494 1049 q 682 917 640 989 q 724 718 724 846 l 724 340 l 611 340 l 611 697 q 567 885 611 824 q 411 946 524 946 l 404 946 l 404 872 q 422 788 404 821 q 472 740 440 756 q 544 725 504 725 l 544 632 q 407 664 461 632 q 328 750 353 696 q 303 868 303 804 l 303 1049 l 404 1049 z "},"ද":{"ha":750,"x_min":42,"x_max":750,"o":"m 357 0 q 202 29 274 0 q 86 119 131 58 q 42 276 42 181 q 82 433 42 371 q 194 527 122 496 q 356 558 265 558 l 500 558 q 477 639 500 607 q 417 687 454 671 q 338 703 381 703 q 244 677 288 703 q 188 603 200 651 l 89 635 q 141 728 104 690 q 228 785 178 765 q 333 804 279 804 q 465 776 403 804 q 566 690 526 747 q 606 546 606 633 l 606 447 l 347 447 q 249 428 292 447 q 181 372 206 410 q 156 278 156 333 q 180 188 156 225 q 249 129 204 150 q 357 108 294 108 l 410 108 q 515 134 468 108 q 589 219 563 160 l 692 192 q 640 101 672 138 q 569 42 608 64 q 488 10 529 19 q 410 0 447 0 l 357 0 m 506 -283 q 383 -257 438 -283 q 295 -181 328 -231 q 263 -62 263 -132 l 372 -62 q 392 -125 372 -99 q 442 -166 411 -151 q 510 -181 474 -181 q 592 -156 553 -181 q 643 -81 632 -132 l 750 -108 q 702 -201 736 -161 q 617 -262 668 -240 q 506 -283 567 -283 z "},"ධ":{"ha":813,"x_min":42,"x_max":771,"o":"m 257 -4 q 147 21 196 -4 q 69 92 97 46 q 42 200 42 138 l 42 401 q 53 489 42 443 q 93 574 64 535 q 175 639 122 614 q 310 664 228 664 l 354 664 l 354 553 l 310 553 q 232 538 263 553 q 184 498 201 522 q 160 447 167 474 q 153 396 153 419 l 153 208 q 163 167 153 190 q 195 125 172 143 q 257 107 218 107 q 319 125 297 107 q 351 167 342 143 q 360 208 360 190 l 360 272 l 451 272 l 451 208 q 460 167 451 190 q 492 125 469 143 q 554 107 514 107 q 616 125 593 107 q 649 167 639 143 q 658 208 658 190 l 658 279 l 771 279 l 771 200 q 713 51 771 107 q 565 -4 656 -4 q 478 13 519 -4 q 408 68 436 31 q 344 13 383 31 q 257 -4 306 -4 m 163 756 l 53 783 q 81 892 53 843 q 155 976 108 942 q 257 1030 201 1011 q 369 1049 313 1049 l 369 939 q 269 919 317 939 q 192 858 222 899 q 163 756 163 817 m 658 279 l 658 706 q 635 843 658 792 q 566 916 613 894 q 447 938 519 938 l 447 1049 q 626 1015 554 1049 q 735 909 699 982 q 771 717 771 836 l 771 279 l 658 279 z "},"න":{"ha":1028,"x_min":42,"x_max":986,"o":"m 731 -6 l 731 107 q 787 114 761 107 q 833 138 813 121 q 864 188 853 156 q 875 269 875 219 l 875 456 q 842 576 875 526 q 759 651 810 625 q 651 678 708 678 q 556 656 603 678 q 478 590 510 633 l 369 447 q 297 360 333 400 q 222 294 260 319 q 142 269 183 269 l 111 269 l 111 383 l 136 382 q 187 403 160 382 q 240 452 214 424 q 283 506 265 481 l 403 671 q 513 759 444 729 q 658 789 582 789 q 778 769 719 789 q 883 710 836 750 q 958 610 931 671 q 986 467 986 550 l 986 269 q 963 124 986 185 q 883 28 939 63 q 731 -6 828 -6 m 382 -8 q 254 15 315 -8 q 145 83 193 38 q 69 197 97 128 q 42 356 42 265 l 42 478 l 142 478 l 142 375 q 157 270 142 319 q 203 183 172 221 q 278 123 233 144 q 378 101 322 101 q 478 124 433 101 q 549 189 522 147 q 575 286 575 231 q 565 347 575 317 q 531 404 556 378 q 461 447 506 431 l 525 532 q 618 472 582 511 q 672 383 654 432 q 689 283 689 335 q 649 133 689 199 q 540 29 610 67 q 382 -8 471 -8 m 143 590 l 46 621 q 98 718 63 682 q 177 770 133 754 q 261 786 221 786 q 349 769 308 786 q 417 728 390 753 q 450 675 444 703 l 378 594 q 335 660 369 638 q 261 682 300 682 q 190 659 222 682 q 143 590 157 636 z "},"ඳ":{"ha":972,"x_min":42,"x_max":972,"o":"m 581 0 q 426 29 497 0 q 310 119 354 58 q 265 276 265 181 q 306 433 265 371 q 417 525 346 494 q 579 556 488 556 l 724 556 q 698 640 724 608 q 635 685 672 671 q 560 700 597 700 q 499 690 531 700 q 444 659 468 681 q 408 603 419 638 l 307 640 q 365 733 326 697 q 453 785 404 768 q 557 801 503 801 q 691 774 629 801 q 791 688 753 746 q 829 538 829 631 l 829 447 l 571 447 q 472 428 515 447 q 404 372 429 410 q 379 278 379 333 q 403 188 379 225 q 473 129 428 150 q 581 108 518 108 l 633 108 q 739 134 692 108 q 813 219 786 160 l 914 192 q 864 101 896 138 q 792 42 832 64 q 712 10 753 19 q 633 0 671 0 l 581 0 m 728 -283 q 605 -257 660 -283 q 517 -181 550 -231 q 485 -62 485 -132 l 594 -62 q 614 -125 594 -99 q 665 -166 633 -151 q 732 -181 696 -181 q 815 -156 775 -181 q 865 -81 854 -132 l 972 -108 q 924 -201 958 -161 q 840 -262 890 -240 q 728 -283 789 -283 m 136 -22 q 74 79 94 32 q 48 177 54 126 q 42 290 42 228 l 42 411 q 80 589 42 518 q 178 694 118 660 q 307 729 239 729 q 400 713 353 729 l 400 606 q 360 617 381 613 q 319 621 340 621 q 231 594 269 621 q 172 519 193 567 q 150 411 150 472 l 150 290 q 155 192 150 235 q 179 108 160 149 q 243 13 199 67 l 136 -22 z "},"ප":{"ha":865,"x_min":43,"x_max":824,"o":"m 393 -11 q 126 57 208 -11 q 44 274 44 125 l 156 274 q 183 165 156 204 q 263 112 210 126 q 388 97 315 97 l 479 97 q 604 113 553 97 q 683 167 656 128 q 711 274 711 206 l 822 274 q 739 58 822 126 q 474 -11 656 -11 l 393 -11 m 44 342 q 74 474 44 426 q 154 540 103 521 q 272 558 206 558 l 585 558 q 713 541 660 558 q 794 476 765 524 q 822 342 822 429 l 711 342 q 703 403 711 376 q 668 444 694 431 q 588 458 642 458 l 279 458 q 198 442 225 458 q 163 399 171 426 q 156 342 156 372 l 44 342 m 381 526 l 381 567 q 365 628 381 601 q 322 672 350 656 q 257 688 294 688 q 179 668 208 688 q 140 621 150 649 l 43 653 q 129 758 69 726 q 258 789 189 789 q 317 782 286 789 q 379 759 349 775 q 433 713 410 743 q 486 759 456 743 q 549 782 517 775 q 607 789 581 789 q 737 758 676 789 q 824 653 797 726 l 725 621 q 686 668 715 649 q 608 688 657 688 q 543 672 571 688 q 500 628 515 656 q 485 567 485 601 l 485 526 l 381 526 z "},"ඵ":{"ha":772,"x_min":43,"x_max":731,"o":"m 240 678 q 335 658 292 678 q 406 598 379 638 q 433 500 433 558 l 433 397 l 346 397 q 243 388 286 397 q 176 350 200 379 q 153 263 153 321 q 174 190 153 225 q 235 133 194 156 q 335 111 276 111 l 335 -3 q 184 34 250 -3 q 81 130 118 71 q 43 257 43 189 q 48 323 43 292 q 67 381 53 354 q 107 432 81 408 q 205 483 147 471 q 343 496 263 496 q 311 563 343 540 q 239 586 279 586 q 185 574 211 586 q 149 532 160 561 l 61 556 q 101 626 74 600 q 166 665 129 653 q 240 678 203 678 m 413 -3 l 413 111 q 518 132 472 111 q 591 203 564 153 q 618 340 618 253 l 731 340 q 653 83 731 169 q 413 -3 576 -3 m 411 1049 q 575 1019 503 1049 q 689 917 647 989 q 731 718 731 846 l 731 340 l 618 340 l 618 697 q 574 885 618 824 q 418 946 531 946 l 411 946 l 411 872 q 429 788 411 821 q 479 740 447 756 q 551 725 511 725 l 551 632 q 414 664 468 632 q 335 750 360 696 q 310 868 310 804 l 310 1049 l 411 1049 z "},"බ":{"ha":826,"x_min":42,"x_max":793,"o":"m 574 -8 q 469 17 517 -8 q 394 87 422 42 q 367 194 367 132 l 367 415 q 335 503 367 469 q 256 536 303 536 q 178 503 208 536 q 149 415 149 471 l 149 254 q 183 144 149 176 q 293 111 217 111 l 293 0 q 103 59 164 0 q 42 251 42 118 l 42 424 q 72 545 42 494 q 151 623 101 596 q 260 650 200 650 q 369 622 319 650 q 447 543 418 594 q 475 418 475 492 l 475 214 q 506 140 475 168 q 579 111 536 111 q 652 140 624 111 q 681 214 681 168 l 681 339 l 793 339 l 793 217 q 763 97 793 147 q 683 19 733 46 q 574 -8 633 -8 m 165 756 l 57 783 q 99 918 57 858 q 210 1013 140 978 q 360 1049 279 1049 l 360 939 q 260 917 304 939 q 191 854 217 896 q 165 756 165 813 m 681 339 l 681 686 q 658 819 681 763 q 588 906 635 875 q 468 938 540 938 l 439 938 l 439 1049 l 468 1049 q 642 1011 569 1049 q 753 894 714 974 q 793 689 793 814 l 793 339 l 681 339 z "},"භ":{"ha":1038,"x_min":42,"x_max":996,"o":"m 361 -11 q 214 26 274 -11 q 125 128 154 64 q 96 274 96 193 l 96 350 q 144 493 96 444 l 42 493 l 42 592 l 379 592 q 349 667 379 642 q 275 693 318 693 q 222 679 247 693 q 185 638 196 665 l 97 661 q 168 753 117 722 q 278 783 219 783 q 370 763 326 783 q 442 704 414 743 q 471 607 471 665 l 463 493 l 361 493 q 273 477 307 493 q 224 428 239 461 q 208 343 208 394 l 208 274 q 224 188 208 226 q 274 125 240 149 q 361 101 308 101 l 361 -11 m 438 -11 l 438 101 q 516 117 486 101 q 560 161 546 132 q 574 231 574 190 q 567 285 574 256 q 540 338 561 315 q 469 360 518 360 l 406 360 l 406 494 q 430 642 406 576 q 509 745 454 707 q 654 783 564 783 l 654 671 q 568 644 599 671 q 527 578 538 618 q 517 496 517 539 l 517 450 q 609 423 574 449 q 660 354 644 397 q 676 257 676 311 l 676 213 q 613 44 676 99 q 438 -11 549 -11 m 732 -11 l 732 101 q 819 126 785 101 q 869 192 853 150 q 885 290 885 235 l 885 479 q 869 579 885 536 q 820 647 854 622 q 732 671 786 671 l 732 783 q 879 745 821 783 q 967 638 938 707 q 996 479 996 569 l 996 290 q 967 133 996 201 q 879 27 938 65 q 732 -11 821 -11 z "},"ම":{"ha":808,"x_min":42,"x_max":767,"o":"m 432 651 l 517 651 l 517 447 q 498 376 517 404 q 451 333 479 347 q 390 319 422 319 q 306 349 344 319 q 267 436 267 379 l 267 499 q 250 542 267 526 q 211 558 233 558 q 167 536 188 558 q 146 463 146 514 l 146 350 q 160 241 146 285 q 198 170 175 197 q 248 131 221 143 q 301 113 275 118 q 347 108 328 108 l 347 -3 q 191 31 251 -3 q 99 117 131 64 q 54 232 67 171 q 42 350 42 293 l 42 446 q 67 567 42 519 q 132 638 93 614 q 211 661 171 661 q 305 625 264 661 q 346 519 346 589 l 346 456 q 360 425 346 436 q 389 414 374 414 q 419 425 406 414 q 432 456 432 436 l 432 651 m 44 783 q 72 890 44 842 q 142 973 99 938 q 240 1028 186 1008 q 347 1049 294 1049 l 347 938 q 254 916 299 938 q 181 853 210 894 q 153 754 153 813 l 44 783 m 425 1049 q 585 1023 519 1049 q 690 951 650 997 q 748 843 729 906 q 767 706 767 781 l 767 340 q 748 203 767 265 q 690 94 729 140 q 585 22 650 47 q 425 -3 519 -3 l 425 108 q 543 129 492 108 q 624 201 594 150 q 654 340 654 251 l 654 706 q 624 847 654 796 q 543 917 594 897 q 425 938 492 938 l 425 1049 z "},"ඹ":{"ha":824,"x_min":42,"x_max":782,"o":"m 260 -15 q 145 16 194 -15 q 69 101 96 47 q 42 226 42 156 l 42 493 q 67 588 42 550 q 130 644 92 625 q 210 663 168 663 q 282 646 247 663 q 339 596 317 629 q 361 511 361 563 l 361 456 q 374 425 361 436 q 403 414 388 414 q 433 425 419 414 q 447 456 447 436 l 447 651 l 532 651 l 532 447 q 513 376 532 404 q 465 333 494 347 q 404 319 436 319 q 319 349 358 319 q 281 436 281 379 l 281 490 q 261 542 281 525 q 217 560 242 560 q 172 542 193 560 q 151 488 151 524 l 151 232 q 165 168 151 199 q 203 118 178 138 q 263 99 229 99 q 299 111 288 99 q 310 150 310 124 q 308 185 310 163 q 308 229 306 207 q 324 267 311 251 q 369 283 338 283 l 451 283 q 497 267 483 283 q 513 229 510 251 q 513 185 515 207 q 511 150 511 163 q 522 111 511 124 q 558 99 533 99 q 618 118 593 99 q 657 168 643 138 q 671 232 671 199 l 671 706 q 640 848 671 797 q 557 918 608 899 q 443 938 506 938 l 443 1049 q 694 966 607 1049 q 782 713 782 883 l 782 226 q 754 101 782 156 q 678 16 726 47 q 561 -15 629 -15 q 491 4 515 -15 q 461 54 467 24 q 455 102 454 74 q 456 153 456 131 q 441 190 456 182 q 410 199 426 199 q 381 190 394 199 q 367 153 367 182 q 367 102 367 131 q 361 54 367 74 q 331 4 356 24 q 260 -15 307 -15 m 164 756 l 54 783 q 81 892 54 843 q 154 976 108 942 q 255 1030 200 1011 q 365 1049 310 1049 l 365 939 q 267 919 314 939 q 192 858 221 899 q 164 756 164 817 z "},"ය":{"ha":889,"x_min":42,"x_max":844,"o":"m 268 -4 q 153 22 204 -4 q 72 95 101 49 q 42 206 42 142 l 42 272 l 153 272 l 153 213 q 188 133 153 160 q 271 106 222 106 q 356 133 321 106 q 390 214 390 160 l 390 272 l 496 272 l 496 214 q 531 133 496 160 q 615 106 565 106 q 699 133 664 106 q 733 213 733 160 l 733 272 l 844 272 l 844 206 q 815 93 844 140 q 734 21 785 46 q 619 -4 683 -4 q 517 16 563 -4 q 442 76 471 36 q 369 16 414 36 q 268 -4 324 -4 m 42 342 l 42 472 q 84 647 42 579 q 195 749 126 715 q 344 782 264 782 l 368 782 l 368 676 l 342 676 q 201 618 249 676 q 153 460 153 560 l 153 342 l 42 342 m 733 342 l 733 389 q 723 434 733 419 q 694 453 713 449 q 650 458 675 458 l 408 458 l 408 549 q 426 658 408 614 q 476 731 444 703 q 547 772 507 758 q 626 785 586 785 q 753 756 694 785 q 842 651 811 728 l 749 621 q 706 668 736 651 q 631 685 676 685 q 540 653 567 685 q 514 558 514 621 l 665 558 q 781 535 742 558 q 832 474 819 511 q 844 397 844 438 l 844 342 l 733 342 z "},"ර":{"ha":732,"x_min":42,"x_max":690,"o":"m 331 -8 q 226 9 278 -8 q 133 65 175 26 q 67 169 92 104 q 42 329 42 233 l 42 567 q 49 657 42 615 q 81 744 57 699 q 153 849 106 790 l 376 1129 l 464 1065 l 249 790 q 191 709 211 743 q 162 640 171 675 q 153 556 153 606 l 153 326 q 199 158 153 210 q 331 106 246 106 l 331 -8 m 453 783 q 591 750 539 783 q 667 656 643 717 q 690 511 690 594 l 690 315 q 653 117 690 188 q 551 20 615 47 q 408 -7 488 -7 l 408 107 q 541 161 503 107 q 579 326 579 215 l 579 482 q 560 600 579 558 q 507 659 542 642 q 421 676 472 676 l 251 676 l 251 682 l 326 783 l 453 783 z "},"ල":{"ha":853,"x_min":42,"x_max":811,"o":"m 382 -236 q 267 -221 326 -236 q 156 -169 207 -206 q 74 -65 106 -132 q 42 104 42 1 l 42 456 q 73 626 42 560 q 155 729 104 693 q 265 780 206 765 q 382 794 325 794 l 382 683 q 267 660 319 683 q 185 588 215 638 q 154 456 154 539 l 154 104 q 185 -28 154 22 q 267 -102 215 -79 q 382 -125 319 -125 l 382 -236 m 467 -237 l 467 -126 q 606 -91 550 -126 q 689 21 663 -56 l 796 -10 q 742 -123 776 -79 q 663 -192 707 -167 q 567 -227 618 -217 q 467 -237 517 -237 m 283 382 l 283 479 l 560 479 l 560 382 l 283 382 m 579 110 q 499 122 533 110 q 439 154 464 133 q 399 202 414 175 q 376 258 383 229 q 368 315 368 288 l 368 429 l 475 429 l 475 326 q 505 251 475 279 q 581 222 535 222 q 642 239 615 222 q 685 285 669 256 q 700 353 700 315 l 700 464 q 669 598 700 551 q 585 664 638 644 q 467 683 532 683 l 467 794 q 584 783 524 794 q 697 737 644 771 q 780 637 749 703 q 811 464 811 571 l 811 353 q 781 218 811 272 q 698 137 750 164 q 579 110 646 110 z "},"ව":{"ha":775,"x_min":42,"x_max":733,"o":"m 415 -3 l 415 108 q 520 129 474 108 q 594 201 567 150 q 621 340 621 251 l 621 706 q 569 884 621 831 q 415 938 518 938 l 415 1049 q 590 1014 519 1049 q 697 906 660 979 q 733 717 733 833 l 733 340 q 656 83 733 169 q 415 -3 579 -3 m 338 -3 q 187 34 253 -3 q 83 130 121 71 q 46 257 46 189 q 51 323 46 292 q 69 381 56 354 q 108 432 82 408 q 208 483 150 471 q 346 496 265 496 q 314 563 346 540 q 242 586 282 586 q 188 574 214 586 q 151 532 161 561 l 64 556 q 104 626 76 600 q 169 665 132 653 q 243 678 206 678 q 338 658 294 678 q 409 598 382 638 q 436 500 436 558 l 436 397 l 349 397 q 246 388 289 397 q 179 350 203 379 q 156 263 156 321 q 177 188 156 222 q 239 131 199 153 q 338 108 279 108 l 338 -3 m 150 756 l 42 783 q 68 889 42 840 q 138 973 94 938 q 233 1028 181 1008 q 338 1049 285 1049 l 338 939 q 248 917 292 939 q 177 853 204 894 q 150 756 150 813 z "},"ශ":{"ha":985,"x_min":42,"x_max":943,"o":"m 42 482 q 71 639 42 571 q 159 745 100 707 q 306 783 218 783 l 306 671 q 219 646 253 671 q 169 577 185 621 q 153 476 153 533 l 153 290 q 169 192 153 235 q 219 126 186 150 q 306 101 253 101 l 306 -11 q 159 27 218 -11 q 71 133 100 65 q 42 290 42 201 l 42 482 m 351 494 q 376 642 351 576 q 455 745 400 707 q 600 783 510 783 l 600 671 q 513 647 544 671 q 469 583 482 622 q 457 501 457 544 l 457 443 l 471 443 q 560 415 526 443 q 608 344 593 388 q 622 251 622 300 l 622 218 q 559 45 622 101 q 383 -11 496 -11 l 383 101 q 462 117 432 101 q 506 160 492 132 q 519 229 519 189 q 512 291 519 261 q 482 340 504 321 q 415 360 460 360 l 351 360 l 351 494 m 831 290 l 831 476 q 815 577 831 533 q 766 646 800 621 q 678 671 732 671 l 678 783 q 825 745 767 783 q 913 639 883 707 q 943 482 943 571 l 943 290 q 913 133 943 201 q 825 27 883 65 q 678 -11 767 -11 l 678 101 q 765 126 731 101 q 815 192 799 150 q 831 290 831 235 m 542 197 q 546 252 542 222 q 563 311 550 282 q 599 365 575 340 q 660 403 622 389 q 754 417 697 417 l 782 417 l 782 326 l 746 326 q 679 314 704 326 q 642 282 654 301 q 625 240 629 263 q 621 197 621 217 l 542 197 z "},"ෂ":{"ha":883,"x_min":42,"x_max":842,"o":"m 390 -11 q 124 57 206 -11 q 42 274 42 125 l 153 274 q 181 165 153 204 q 260 112 208 126 q 385 97 313 97 l 499 97 q 624 113 572 97 q 703 167 676 128 q 731 274 731 206 l 842 274 q 758 58 842 126 q 494 -11 675 -11 l 390 -11 m 42 342 q 71 475 42 426 q 151 542 100 524 q 269 561 203 561 l 604 561 q 732 543 679 561 q 813 477 785 525 q 842 342 842 429 l 731 342 q 722 405 731 378 q 688 447 714 432 q 607 461 661 461 l 276 461 q 196 444 222 461 q 161 400 169 428 q 153 342 153 372 l 42 342 m 371 233 q 400 357 371 301 q 478 452 429 413 q 588 510 528 492 l 735 510 q 640 464 686 490 q 557 404 593 438 q 499 329 521 371 q 478 235 478 288 l 371 233 m 390 526 l 390 567 q 376 628 390 601 q 333 672 361 656 q 268 688 306 688 q 190 668 218 688 q 150 621 161 649 l 53 653 q 139 758 79 726 q 268 789 199 789 q 327 782 296 789 q 390 759 358 775 q 443 713 421 743 q 497 759 467 743 q 558 782 526 775 q 618 789 590 789 q 747 758 688 789 q 833 653 807 726 l 735 621 q 696 668 725 649 q 618 688 667 688 q 553 672 581 688 q 510 628 525 656 q 494 567 494 601 l 494 526 l 390 526 z "},"ස":{"ha":946,"x_min":42,"x_max":904,"o":"m 328 -4 q 213 22 264 -4 q 131 95 161 49 q 101 206 101 142 l 101 274 l 213 274 l 213 213 q 247 133 213 160 q 331 106 282 106 q 415 133 381 106 q 450 214 450 160 l 450 274 l 556 274 l 556 214 q 590 133 556 160 q 675 106 625 106 q 758 133 724 106 q 793 213 793 160 l 793 274 l 904 274 l 904 206 q 874 93 904 140 q 794 21 844 46 q 679 -4 743 -4 q 576 16 622 -4 q 501 76 531 36 q 428 16 474 36 q 328 -4 383 -4 m 101 342 l 101 385 q 108 431 101 411 q 129 458 114 451 l 42 458 l 42 558 l 722 558 q 804 548 769 558 q 860 516 839 538 q 893 464 882 494 q 904 394 904 433 l 904 342 l 793 342 l 793 381 q 782 431 793 414 q 751 453 771 447 q 711 458 732 458 l 297 458 q 256 453 275 458 q 224 431 236 447 q 213 381 213 414 l 213 342 l 101 342 m 451 526 l 451 567 q 436 628 451 601 q 393 672 421 656 q 328 688 365 688 q 250 668 279 688 q 211 621 221 649 l 114 653 q 200 758 140 726 q 329 789 260 789 q 388 782 357 789 q 450 759 419 775 q 504 713 481 743 q 557 759 526 743 q 619 782 588 775 q 678 789 651 789 q 808 758 747 789 q 894 653 868 726 l 796 621 q 757 668 786 649 q 679 688 728 688 q 614 672 642 688 q 571 628 586 656 q 556 567 556 601 l 556 526 l 451 526 z "},"හ":{"ha":983,"x_min":42,"x_max":942,"o":"m 306 -11 q 159 26 218 -11 q 71 128 100 64 q 42 274 42 193 l 42 340 q 69 476 42 419 q 151 563 96 532 q 290 593 207 593 l 331 593 q 300 667 331 640 q 226 693 269 693 q 173 679 199 693 q 136 638 147 665 l 49 661 q 118 753 67 722 q 229 783 169 783 q 321 763 276 783 q 393 704 365 743 q 421 607 421 665 l 421 485 l 306 485 q 215 468 250 485 q 163 419 179 451 q 147 335 147 386 l 147 274 q 164 188 147 226 q 215 125 181 149 q 306 101 250 101 l 306 -11 m 383 -11 l 383 101 q 462 117 432 101 q 506 161 492 132 q 519 231 519 190 q 513 285 519 256 q 485 338 507 315 q 414 360 464 360 l 350 360 l 350 494 q 375 642 350 576 q 454 745 400 707 q 600 783 508 783 l 600 671 q 514 645 544 671 q 473 579 483 619 q 463 497 463 539 l 463 450 q 554 423 519 449 q 605 354 589 397 q 621 257 621 311 l 621 213 q 558 44 621 99 q 383 -11 494 -11 m 678 -11 l 678 101 q 764 126 731 101 q 814 192 797 150 q 831 290 831 235 l 831 476 q 815 577 831 533 q 766 646 800 621 q 678 671 732 671 l 678 783 q 825 745 767 783 q 913 639 883 707 q 942 482 942 571 l 942 290 q 913 133 942 201 q 825 27 883 65 q 678 -11 767 -11 z "},"ළ":{"ha":846,"x_min":42,"x_max":818,"o":"m 393 -236 q 139 -151 236 -236 q 42 107 42 -67 l 42 269 q 82 418 42 358 q 182 508 122 478 q 299 539 242 539 l 750 539 l 750 432 l 319 432 q 241 412 279 432 q 178 350 203 392 q 154 243 154 308 l 154 106 q 174 -4 154 40 q 227 -75 193 -49 q 304 -112 261 -101 q 393 -124 347 -124 l 393 -236 m 478 -236 l 478 -125 q 578 -112 531 -125 q 661 -65 626 -99 q 710 31 696 -31 l 818 0 q 767 -118 803 -72 q 684 -190 732 -164 q 583 -226 636 -217 q 478 -236 529 -236 m 504 119 l 443 119 q 322 144 374 119 q 238 208 271 168 q 190 296 206 249 q 176 389 175 343 l 261 458 q 267 396 261 429 q 285 331 272 363 q 320 274 299 300 q 374 233 342 249 q 449 218 406 218 l 503 218 q 598 241 558 218 q 654 303 638 264 l 751 278 q 692 188 729 224 q 606 136 654 153 q 504 119 558 119 m 154 579 l 154 613 q 203 742 154 696 q 332 789 251 789 q 399 776 365 789 q 454 735 432 764 q 510 777 476 765 q 572 789 544 789 q 703 740 657 789 q 750 607 750 692 l 653 607 q 630 672 653 651 q 571 693 607 693 q 516 670 539 693 q 493 606 493 647 l 413 606 q 391 670 413 647 q 333 693 369 693 q 273 669 294 693 q 251 596 251 646 l 154 579 z "},"ෆ":{"ha":886,"x_min":42,"x_max":844,"o":"m 42 342 l 42 574 q 72 686 42 639 q 152 758 101 733 q 267 783 203 783 q 370 763 324 783 q 444 703 417 743 q 518 763 474 743 q 618 783 563 783 q 733 758 682 783 q 815 684 785 732 q 844 574 844 636 l 844 342 l 733 342 l 733 567 q 699 646 733 619 q 615 672 664 672 q 531 645 565 672 q 496 565 496 618 l 496 342 l 390 342 l 390 565 q 356 645 390 618 q 271 672 321 672 q 188 646 222 672 q 153 567 153 619 l 153 342 l 42 342 m 313 0 q 157 38 217 0 q 69 137 97 75 q 42 272 42 199 l 153 272 q 165 202 153 239 q 213 139 178 165 q 313 113 247 113 l 313 0 m 574 0 l 574 113 q 674 139 639 113 q 721 202 708 165 q 733 272 733 239 l 844 272 q 817 137 844 199 q 730 38 789 75 q 574 0 671 0 z "},"ා":{"ha":371,"x_min":42,"x_max":329,"o":"m 42 0 l 42 113 l 69 113 q 123 119 97 113 q 170 144 149 126 q 204 194 192 161 q 217 279 217 226 l 217 504 q 204 592 217 558 q 170 644 192 625 q 123 669 149 663 q 69 676 97 676 l 42 676 l 42 789 l 69 789 q 219 755 163 789 q 303 659 276 721 q 329 510 329 597 l 329 279 q 303 131 329 193 q 219 34 276 68 q 69 0 163 0 l 42 0 z "},"ෑ":{"ha":368,"x_min":42,"x_max":326,"o":"m 289 0 q 163 20 219 0 q 74 85 107 40 q 42 204 42 131 l 42 265 q 54 342 42 310 q 99 409 67 375 q 192 488 132 443 l 42 488 l 42 582 l 201 703 l 42 703 l 42 797 l 326 797 l 326 703 l 164 582 l 326 582 l 326 488 q 228 413 264 443 q 177 362 193 383 q 157 322 161 340 q 153 281 153 303 l 153 232 q 158 190 153 211 q 177 152 163 169 q 218 124 192 135 q 288 113 244 113 l 326 113 l 326 0 l 289 0 z "},"ැ":{"ha":374,"x_min":42,"x_max":332,"o":"m 311 0 q 172 26 233 0 q 76 107 111 51 q 42 251 42 163 l 42 379 q 49 469 42 432 q 72 540 56 507 q 119 607 89 572 q 197 689 149 642 l 44 689 l 44 797 l 332 797 l 332 689 q 233 588 269 629 q 180 517 197 547 q 158 457 163 486 q 153 390 153 428 l 153 265 q 159 213 153 240 q 181 163 165 186 q 227 126 197 140 q 304 113 257 113 l 332 113 l 332 0 l 311 0 z "},"ෛ":{"ha":1269,"x_min":42,"x_max":1228,"o":"m 261 -7 q 142 25 186 -7 q 76 104 97 57 q 48 198 54 151 q 42 275 42 244 l 42 515 q 52 602 42 556 q 90 690 63 649 q 165 757 117 731 q 289 783 214 783 l 346 783 l 346 678 l 296 678 q 210 656 243 678 q 164 597 178 633 q 150 515 150 560 l 150 275 q 162 183 150 224 q 204 121 174 143 q 290 99 235 99 l 290 -7 l 261 -7 m 357 -7 l 357 99 q 455 131 425 99 q 485 219 485 164 l 485 321 q 472 365 485 351 q 442 383 460 379 q 404 386 424 386 l 324 386 l 324 492 l 444 492 q 519 481 486 492 q 573 440 553 469 q 593 354 593 410 l 593 218 q 571 107 593 158 q 504 24 549 56 q 392 -7 460 -7 l 357 -7 m 488 574 q 480 602 486 585 q 458 637 474 619 q 416 666 443 654 q 346 678 389 678 l 346 783 l 375 783 q 488 753 443 783 q 559 681 533 724 q 589 599 585 638 l 488 574 m 896 -7 q 776 25 821 -7 q 710 104 732 57 q 683 198 689 151 q 676 275 676 244 l 676 515 q 687 602 676 556 q 724 690 697 649 q 800 757 751 731 q 924 783 849 783 l 981 783 l 981 678 l 931 678 q 845 656 878 678 q 799 597 813 633 q 785 515 785 560 l 785 275 q 797 183 785 224 q 839 121 808 143 q 925 99 869 99 l 925 -7 l 896 -7 m 992 -7 l 992 99 q 1090 131 1060 99 q 1119 219 1119 164 l 1119 321 q 1107 365 1119 351 q 1076 383 1094 379 q 1039 386 1058 386 l 958 386 l 958 492 l 1079 492 q 1154 481 1121 492 q 1208 440 1188 469 q 1228 354 1228 410 l 1228 218 q 1206 107 1228 158 q 1139 24 1183 56 q 1026 -7 1094 -7 l 992 -7 m 1122 574 q 1115 602 1121 585 q 1093 637 1108 619 q 1051 666 1078 654 q 981 678 1024 678 l 981 783 l 1010 783 q 1123 753 1078 783 q 1194 681 1168 724 q 1224 599 1219 638 l 1122 574 z "},"ෞ":{"ha":1204,"x_min":42,"x_max":1163,"o":"m 918 -11 q 803 14 858 -11 q 712 90 747 39 q 676 217 676 140 l 676 281 l 781 281 l 781 215 q 801 149 781 176 q 854 107 822 121 q 922 93 886 93 q 988 106 957 93 q 1039 147 1019 119 q 1058 215 1058 175 l 1058 624 q 1042 667 1058 653 q 1004 682 1025 682 q 966 667 983 682 q 949 624 949 653 l 949 553 q 908 455 949 489 q 817 421 867 421 q 750 437 782 421 q 697 486 718 453 q 676 569 676 519 l 676 783 l 761 783 l 761 590 q 778 548 761 563 q 815 533 796 533 q 853 548 836 533 q 869 590 869 563 l 869 644 q 890 725 869 693 q 944 773 911 757 q 1013 789 976 789 q 1115 749 1069 789 q 1163 631 1161 708 l 1163 217 q 1127 91 1163 142 q 1036 15 1092 40 q 918 -11 981 -11 m 261 -7 q 142 25 186 -7 q 76 104 97 57 q 48 198 54 151 q 42 275 42 244 l 42 515 q 52 602 42 556 q 90 690 63 649 q 165 757 117 731 q 289 783 214 783 l 346 783 l 346 678 l 296 678 q 210 656 243 678 q 164 597 178 633 q 150 515 150 560 l 150 275 q 162 183 150 224 q 204 121 174 143 q 290 99 235 99 l 290 -7 l 261 -7 m 357 -7 l 357 99 q 455 131 425 99 q 485 219 485 164 l 485 321 q 472 365 485 351 q 442 383 460 379 q 404 386 424 386 l 324 386 l 324 492 l 444 492 q 519 481 486 492 q 573 440 553 469 q 593 354 593 410 l 593 218 q 571 107 593 158 q 504 24 549 56 q 392 -7 460 -7 l 357 -7 m 488 574 q 480 602 486 585 q 458 637 474 619 q 416 666 443 654 q 346 678 389 678 l 346 783 l 375 783 q 488 753 443 783 q 559 681 533 724 q 589 599 585 638 l 488 574 z "},"ෙ":{"ha":635,"x_min":42,"x_max":593,"o":"m 261 -7 q 142 25 186 -7 q 76 104 97 57 q 48 198 54 151 q 42 275 42 244 l 42 515 q 52 602 42 556 q 90 690 63 649 q 165 757 117 731 q 289 783 214 783 l 346 783 l 346 678 l 296 678 q 210 656 243 678 q 164 597 178 633 q 150 515 150 560 l 150 275 q 162 183 150 224 q 204 121 174 143 q 290 99 235 99 l 290 -7 l 261 -7 m 357 -7 l 357 99 q 455 131 425 99 q 485 219 485 164 l 485 321 q 472 365 485 351 q 442 383 460 379 q 404 386 424 386 l 324 386 l 324 492 l 444 492 q 519 481 486 492 q 573 440 553 469 q 593 354 593 410 l 593 218 q 571 107 593 158 q 504 24 549 56 q 392 -7 460 -7 l 357 -7 m 488 574 q 480 602 486 585 q 458 637 474 619 q 416 666 443 654 q 346 678 389 678 l 346 783 l 375 783 q 488 753 443 783 q 559 681 533 724 q 589 599 585 638 l 488 574 z "},"ේ":{"ha":1025,"x_min":42,"x_max":983,"o":"m 875 860 l 875 1138 l 983 1138 l 983 860 l 875 860 m 261 -7 q 142 25 186 -7 q 76 104 97 57 q 48 198 54 151 q 42 275 42 244 l 42 515 q 52 602 42 556 q 90 690 63 649 q 165 757 117 731 q 289 783 214 783 l 346 783 l 346 678 l 296 678 q 210 656 243 678 q 164 597 178 633 q 150 515 150 560 l 150 275 q 162 183 150 224 q 204 121 174 143 q 290 99 235 99 l 290 -7 l 261 -7 m 357 -7 l 357 99 q 455 131 425 99 q 485 219 485 164 l 485 321 q 472 365 485 351 q 442 383 460 379 q 404 386 424 386 l 324 386 l 324 492 l 444 492 q 519 481 486 492 q 573 440 553 469 q 593 354 593 410 l 593 218 q 571 107 593 158 q 504 24 549 56 q 392 -7 460 -7 l 357 -7 m 488 574 q 480 602 486 585 q 458 637 474 619 q 416 666 443 654 q 346 678 389 678 l 346 783 l 375 783 q 488 753 443 783 q 559 681 533 724 q 589 599 585 638 l 488 574 z "},"ි":{"ha":0,"x_min":-806,"x_max":-79,"o":"m -806 836 l -806 875 q -773 990 -806 940 q -685 1067 -740 1039 q -561 1096 -629 1096 l -324 1096 q -199 1067 -254 1096 q -111 990 -143 1039 q -79 875 -79 940 l -79 836 l -185 836 q -191 891 -185 864 q -215 940 -197 918 q -263 976 -232 963 q -346 990 -294 990 l -539 990 q -620 976 -589 990 q -669 940 -651 963 q -693 891 -686 918 q -700 836 -700 864 l -806 836 z "},"ී":{"ha":0,"x_min":-825,"x_max":-75,"o":"m -711 924 l -711 885 l -825 885 l -825 925 q -762 1091 -825 1028 q -585 1154 -699 1154 l -511 1154 l -511 1049 l -569 1049 q -677 1016 -643 1049 q -711 924 -711 983 m -350 1154 q -144 1100 -214 1154 q -75 940 -75 1046 q -124 804 -75 857 q -249 750 -174 751 q -345 773 -303 750 q -411 838 -387 796 q -435 929 -435 879 l -435 979 l -337 979 l -337 938 q -314 874 -337 899 q -254 850 -290 850 q -197 874 -219 850 q -175 938 -175 899 q -217 1022 -175 994 q -336 1049 -258 1049 l -435 1049 l -435 1154 l -350 1154 z "},"ෳ":{"ha":553,"x_min":25,"x_max":511,"o":"m 267 -11 q 151 14 207 -11 q 60 90 96 39 q 25 217 25 140 l 25 281 l 129 281 l 129 215 q 150 149 129 176 q 203 107 171 121 q 271 93 235 93 q 337 106 306 93 q 388 147 368 119 q 407 215 407 175 l 407 624 q 390 667 407 653 q 353 682 374 682 q 315 667 332 682 q 297 624 297 653 l 297 553 q 256 455 297 489 q 165 421 215 421 q 99 437 131 421 q 46 486 67 453 q 25 569 25 519 l 25 783 l 110 783 l 110 590 q 127 548 110 563 q 164 533 144 533 q 201 548 185 533 q 218 590 218 563 l 218 644 q 239 725 218 693 q 292 773 260 757 q 361 789 325 789 q 464 749 418 789 q 511 631 510 708 l 511 217 q 476 91 511 142 q 385 15 440 40 q 267 -11 329 -11 z "},"ෟ":{"ha":553,"x_min":25,"x_max":511,"o":"m 267 -11 q 151 14 207 -11 q 60 90 96 39 q 25 217 25 140 l 25 281 l 129 281 l 129 215 q 150 149 129 176 q 203 107 171 121 q 271 93 235 93 q 337 106 306 93 q 388 147 368 119 q 407 215 407 175 l 407 624 q 390 667 407 653 q 353 682 374 682 q 315 667 332 682 q 297 624 297 653 l 297 553 q 256 455 297 489 q 165 421 215 421 q 99 437 131 421 q 46 486 67 453 q 25 569 25 519 l 25 783 l 110 783 l 110 590 q 127 548 110 563 q 164 533 144 533 q 201 548 185 533 q 218 590 218 563 l 218 644 q 239 725 218 693 q 292 773 260 757 q 361 789 325 789 q 464 749 418 789 q 511 631 510 708 l 511 217 q 476 91 511 142 q 385 15 440 40 q 267 -11 329 -11 z "},"ො":{"ha":1006,"x_min":42,"x_max":964,"o":"m 676 0 l 676 113 l 704 113 q 758 119 732 113 q 805 144 783 126 q 839 194 826 161 q 851 279 851 226 l 851 504 q 839 592 851 558 q 805 644 826 625 q 758 669 783 663 q 704 676 732 676 l 676 676 l 676 789 l 704 789 q 854 755 797 789 q 938 659 911 721 q 964 510 964 597 l 964 279 q 938 131 964 193 q 854 34 911 68 q 704 0 797 0 l 676 0 m 261 -7 q 142 25 186 -7 q 76 104 97 57 q 48 198 54 151 q 42 275 42 244 l 42 515 q 52 602 42 556 q 90 690 63 649 q 165 757 117 731 q 289 783 214 783 l 346 783 l 346 678 l 296 678 q 210 656 243 678 q 164 597 178 633 q 150 515 150 560 l 150 275 q 162 183 150 224 q 204 121 174 143 q 290 99 235 99 l 290 -7 l 261 -7 m 357 -7 l 357 99 q 455 131 425 99 q 485 219 485 164 l 485 321 q 472 365 485 351 q 442 383 460 379 q 404 386 424 386 l 324 386 l 324 492 l 444 492 q 519 481 486 492 q 573 440 553 469 q 593 354 593 410 l 593 218 q 571 107 593 158 q 504 24 549 56 q 392 -7 460 -7 l 357 -7 m 488 574 q 480 602 486 585 q 458 637 474 619 q 416 666 443 654 q 346 678 389 678 l 346 783 l 375 783 q 488 753 443 783 q 559 681 533 724 q 589 599 585 638 l 488 574 z "},"ෝ":{"ha":1099,"x_min":42,"x_max":1057,"o":"m 768 860 l 768 1138 l 876 1138 l 876 860 l 768 860 m 769 0 l 769 113 l 797 113 q 851 119 825 113 q 898 144 876 126 q 932 194 919 161 q 944 279 944 226 l 944 504 q 932 592 944 558 q 898 644 919 625 q 851 669 876 663 q 797 676 825 676 l 769 676 l 769 789 l 797 789 q 947 755 890 789 q 1031 659 1004 721 q 1057 510 1057 597 l 1057 279 q 1031 131 1057 193 q 947 34 1004 68 q 797 0 890 0 l 769 0 m 261 -7 q 142 25 186 -7 q 76 104 97 57 q 48 198 54 151 q 42 275 42 244 l 42 515 q 52 602 42 556 q 90 690 63 649 q 165 757 117 731 q 289 783 214 783 l 346 783 l 346 678 l 296 678 q 210 656 243 678 q 164 597 178 633 q 150 515 150 560 l 150 275 q 162 183 150 224 q 204 121 174 143 q 290 99 235 99 l 290 -7 l 261 -7 m 357 -7 l 357 99 q 455 131 425 99 q 485 219 485 164 l 485 321 q 472 365 485 351 q 442 383 460 379 q 404 386 424 386 l 324 386 l 324 492 l 444 492 q 519 481 486 492 q 573 440 553 469 q 593 354 593 410 l 593 218 q 571 107 593 158 q 504 24 549 56 q 392 -7 460 -7 l 357 -7 m 488 574 q 480 602 486 585 q 458 637 474 619 q 416 666 443 654 q 346 678 389 678 l 346 783 l 375 783 q 488 753 443 783 q 559 681 533 724 q 589 599 585 638 l 488 574 z "},"ෘ":{"ha":469,"x_min":24,"x_max":428,"o":"m 226 0 q 127 25 174 0 q 52 96 81 50 q 24 203 24 142 q 47 301 24 256 q 116 373 71 346 q 222 400 161 400 l 260 400 l 260 304 l 222 304 q 151 275 181 304 q 121 203 121 246 q 152 128 121 158 q 226 99 183 99 q 298 128 268 99 q 328 204 328 158 l 328 544 q 317 617 328 586 q 283 665 306 647 q 225 683 261 683 l 100 683 l 100 789 l 233 789 q 339 759 296 789 q 405 676 382 729 q 428 554 428 624 l 428 201 q 399 96 428 142 q 325 25 371 50 q 226 0 279 0 z "},"ෲ":{"ha":940,"x_min":24,"x_max":897,"o":"m 226 0 q 127 25 174 0 q 52 96 81 50 q 24 203 24 142 q 47 301 24 256 q 116 373 71 346 q 222 400 161 400 l 260 400 l 260 304 l 222 304 q 151 275 181 304 q 121 203 121 246 q 152 128 121 158 q 226 99 183 99 q 298 128 268 99 q 328 204 328 158 l 328 544 q 317 617 328 586 q 283 665 306 647 q 225 683 261 683 l 100 683 l 100 789 l 233 789 q 339 759 296 789 q 405 676 382 729 q 428 554 428 624 l 428 201 q 399 96 428 142 q 325 25 371 50 q 226 0 279 0 m 696 0 q 597 25 643 0 q 522 96 550 50 q 493 203 493 142 q 517 301 493 256 q 585 373 540 346 q 692 400 631 400 l 729 400 l 729 304 l 692 304 q 620 275 650 304 q 590 203 590 246 q 622 128 590 158 q 696 99 653 99 q 767 128 738 99 q 797 204 797 158 l 797 544 q 786 617 797 586 q 753 665 775 647 q 694 683 731 683 l 569 683 l 569 789 l 703 789 q 808 759 765 789 q 874 676 851 729 q 897 554 897 624 l 897 201 q 869 96 897 142 q 794 25 840 50 q 696 0 749 0 z "},"ු":{"ha":0,"x_min":-689,"x_max":-67,"o":"m -178 -285 l -178 179 l -67 179 l -67 -285 l -178 -285 m -689 -285 l -689 -174 l -436 -174 l -436 -285 l -689 -285 m -358 -285 l -358 -174 l -164 -174 l -164 -285 l -358 -285 z "},"ූ":{"ha":0,"x_min":-700,"x_max":-68,"o":"m -179 -285 l -179 171 l -68 171 l -68 -285 l -179 -285 m -179 -285 q -258 -251 -222 -261 q -318 -240 -293 -242 q -356 -237 -343 -237 l -356 -125 q -321 -126 -346 -125 q -259 -137 -296 -128 q -179 -168 -222 -146 l -179 -285 m -599 -279 q -645 -270 -621 -279 q -700 -236 -669 -261 l -700 -124 q -644 -158 -669 -147 q -597 -168 -619 -168 q -542 -157 -568 -168 q -490 -135 -517 -146 q -433 -125 -464 -125 l -433 -237 q -490 -248 -464 -237 q -543 -269 -517 -258 q -599 -279 -569 -279 z "},"්":{"ha":192,"x_min":42,"x_max":150,"o":"m 42 860 l 42 1138 l 150 1138 l 150 860 l 42 860 z "},"ං":{"ha":474,"x_min":38,"x_max":417,"o":"m 206 131 q 117 154 154 131 q 58 215 79 178 q 38 292 38 251 l 38 500 q 58 578 38 540 q 115 639 78 615 q 206 663 153 663 l 206 576 q 163 564 181 576 q 135 531 144 551 q 126 490 126 511 l 126 301 q 136 263 126 282 q 165 231 146 243 q 206 218 183 218 l 206 131 m 250 131 l 250 218 q 292 230 274 218 q 319 261 310 242 q 328 299 328 281 l 328 490 q 319 531 328 511 q 292 563 310 550 q 250 576 275 576 l 250 663 q 340 639 303 663 q 397 578 378 615 q 417 500 417 540 l 417 292 q 396 215 417 251 q 338 154 375 178 q 250 131 300 131 z "},"ඃ":{"ha":536,"x_min":43,"x_max":493,"o":"m 303 414 l 303 507 q 372 537 349 507 q 396 603 396 567 q 372 669 396 639 q 303 700 349 700 l 303 789 l 322 789 q 417 761 379 789 q 474 692 456 733 q 493 603 493 650 q 474 512 493 556 q 417 441 456 468 q 322 414 379 414 l 303 414 m 214 -10 q 119 17 157 -10 q 62 88 81 44 q 43 179 43 132 q 62 268 43 226 q 119 338 81 310 q 214 365 157 365 l 233 365 l 233 276 q 164 246 188 276 q 140 179 140 215 q 164 113 140 143 q 233 83 188 83 l 233 -10 l 214 -10 m 303 -10 l 303 83 q 372 113 349 83 q 396 179 396 143 q 372 246 396 215 q 303 276 349 276 l 303 365 l 322 365 q 417 338 379 365 q 474 268 456 310 q 493 179 493 226 q 474 88 493 132 q 417 17 456 44 q 322 -10 379 -10 l 303 -10 m 214 414 q 119 441 157 414 q 62 512 81 468 q 43 603 43 556 q 62 692 43 650 q 119 761 81 733 q 214 789 157 789 l 233 789 l 233 700 q 164 669 188 700 q 140 603 140 639 q 164 537 140 567 q 233 507 188 507 l 233 414 l 214 414 z "},"A":{"ha":651,"x_min":43,"x_max":615,"o":"m 504 0 l 469 160 l 256 160 l 279 268 l 442 268 l 286 971 l 397 971 l 615 0 l 504 0 m 43 0 l 229 822 l 251 822 l 293 629 l 153 0 l 43 0 z "},"Æ":{"ha":1010,"x_min":82,"x_max":974,"o":"m 82 0 l 332 972 l 974 972 l 974 863 l 621 863 l 621 538 l 843 538 l 843 428 l 621 428 l 621 110 l 974 110 l 974 0 l 510 0 l 510 239 l 333 239 l 357 339 l 510 339 l 510 863 l 422 863 l 206 0 l 82 0 z "},"Á":{"ha":651,"x_min":43,"x_max":615,"o":"m 307 1064 l 358 1275 l 463 1275 l 381 1064 l 307 1064 m 504 0 l 469 160 l 256 160 l 279 268 l 442 268 l 286 971 l 397 971 l 615 0 l 504 0 m 43 0 l 229 822 l 251 822 l 293 629 l 153 0 l 43 0 z "},"Ă":{"ha":651,"x_min":43,"x_max":615,"o":"m 344 1064 q 288 1081 311 1064 q 251 1122 264 1097 q 238 1169 238 1147 l 300 1169 q 313 1138 300 1151 q 344 1125 326 1125 q 376 1138 364 1125 q 389 1169 389 1151 l 451 1169 q 438 1122 451 1147 q 401 1081 425 1097 q 344 1064 378 1064 m 504 0 l 469 160 l 256 160 l 279 268 l 442 268 l 286 971 l 397 971 l 615 0 l 504 0 m 43 0 l 229 822 l 251 822 l 293 629 l 153 0 l 43 0 z "},"Â":{"ha":651,"x_min":43,"x_max":615,"o":"m 207 1064 l 311 1275 l 375 1275 l 481 1064 l 406 1064 l 343 1190 l 282 1064 l 207 1064 m 504 0 l 469 160 l 256 160 l 279 268 l 442 268 l 286 971 l 397 971 l 615 0 l 504 0 m 43 0 l 229 822 l 251 822 l 293 629 l 153 0 l 43 0 z "},"Ä":{"ha":651,"x_min":43,"x_max":615,"o":"m 433 1064 q 388 1083 407 1064 q 369 1129 369 1103 q 388 1174 369 1156 q 433 1193 407 1193 q 480 1174 461 1193 q 499 1129 499 1156 q 480 1083 499 1103 q 433 1064 461 1064 m 256 1064 q 210 1083 229 1064 q 190 1129 190 1103 q 210 1174 190 1156 q 256 1193 229 1193 q 301 1174 282 1193 q 319 1129 319 1156 q 301 1083 319 1103 q 256 1064 282 1064 m 504 0 l 469 160 l 256 160 l 279 268 l 442 268 l 286 971 l 397 971 l 615 0 l 504 0 m 43 0 l 229 822 l 251 822 l 293 629 l 153 0 l 43 0 z "},"À":{"ha":651,"x_min":43,"x_max":615,"o":"m 301 1064 l 221 1275 l 325 1275 l 376 1064 l 301 1064 m 504 0 l 469 160 l 256 160 l 279 268 l 442 268 l 286 971 l 397 971 l 615 0 l 504 0 m 43 0 l 229 822 l 251 822 l 293 629 l 153 0 l 43 0 z "},"Ā":{"ha":651,"x_min":43,"x_max":615,"o":"m 125 1064 l 125 1133 l 564 1133 l 564 1064 l 125 1064 m 504 0 l 469 160 l 256 160 l 279 268 l 442 268 l 286 971 l 397 971 l 615 0 l 504 0 m 43 0 l 229 822 l 251 822 l 293 629 l 153 0 l 43 0 z "},"Ą":{"ha":651,"x_min":43,"x_max":736,"o":"m 736 -254 q 612 -223 658 -254 q 545 -146 565 -192 q 525 -56 525 -100 l 610 -56 q 647 -142 610 -112 q 736 -172 685 -172 l 736 -254 m 504 0 l 469 160 l 256 160 l 279 268 l 442 268 l 286 971 l 397 971 l 615 0 l 504 0 m 43 0 l 229 822 l 251 822 l 293 629 l 153 0 l 43 0 z "},"Å":{"ha":717,"x_min":76,"x_max":642,"o":"m 532 0 l 497 160 l 289 160 l 313 268 l 475 268 l 321 967 q 277 1004 294 978 q 260 1063 260 1031 q 292 1143 260 1110 q 372 1176 325 1176 q 453 1143 419 1176 q 488 1063 488 1110 q 472 1007 488 1032 q 432 968 457 982 l 642 0 l 532 0 m 76 0 l 263 822 l 285 822 l 326 629 l 186 0 l 76 0 m 372 1013 q 409 1027 394 1013 q 424 1063 424 1042 q 409 1099 424 1085 q 372 1113 394 1113 q 338 1099 353 1113 q 324 1063 324 1085 q 338 1027 324 1042 q 372 1013 351 1013 z "},"Ã":{"ha":651,"x_min":43,"x_max":615,"o":"m 422 1054 q 357 1068 386 1054 q 301 1096 328 1082 q 240 1110 274 1110 q 199 1103 222 1110 q 149 1079 176 1096 l 149 1168 q 202 1192 178 1185 q 246 1199 226 1199 q 310 1185 282 1199 q 365 1156 338 1171 q 428 1142 393 1142 q 478 1151 451 1142 q 539 1181 504 1160 l 539 1093 q 475 1063 504 1071 q 422 1054 446 1054 m 504 0 l 469 160 l 256 160 l 279 268 l 442 268 l 286 971 l 397 971 l 615 0 l 504 0 m 43 0 l 229 822 l 251 822 l 293 629 l 153 0 l 43 0 z "},"B":{"ha":697,"x_min":50,"x_max":647,"o":"m 229 -1 l 229 99 l 313 99 q 418 116 375 99 q 488 161 461 133 q 525 222 514 189 q 536 285 536 254 q 497 393 536 349 q 368 438 458 438 l 229 438 l 229 538 l 368 538 q 466 558 431 538 q 517 613 501 578 q 533 689 533 647 q 513 772 533 729 q 451 844 493 815 q 339 872 408 872 l 229 872 l 229 972 l 351 972 q 485 947 429 972 q 576 881 542 922 q 628 792 611 840 q 644 694 644 743 q 617 572 644 626 q 549 488 589 518 q 599 438 576 467 q 634 370 621 408 q 647 279 647 332 q 612 139 647 203 q 511 37 576 75 q 356 -1 446 -1 l 229 -1 m 50 0 l 50 972 l 161 972 l 161 0 l 50 0 z "},"C":{"ha":704,"x_min":54,"x_max":660,"o":"m 332 -7 q 203 21 256 -7 q 117 91 150 49 q 69 177 85 133 q 54 251 54 221 l 54 719 q 69 795 54 751 q 117 881 85 839 q 203 952 150 924 q 332 981 256 981 l 332 869 q 255 852 286 869 q 203 810 224 835 q 175 761 183 786 q 167 719 167 736 l 167 251 q 176 210 167 235 q 204 160 185 185 q 256 119 224 136 q 332 103 288 103 l 332 -7 m 399 -7 l 399 103 q 453 116 424 106 q 508 149 483 126 q 544 208 533 172 q 551 232 549 219 q 553 256 553 244 q 555 269 554 263 q 556 278 556 275 l 660 253 q 622 120 660 179 q 525 27 585 61 q 399 -7 465 -7 m 553 689 q 553 700 553 694 q 553 711 553 706 q 550 733 551 722 q 544 754 549 743 q 509 817 531 794 q 465 851 488 840 q 424 865 442 861 q 399 869 406 868 l 399 981 q 495 958 449 981 q 579 899 542 936 q 638 814 617 861 q 660 717 660 767 l 553 689 z "},"\r":{"ha":947,"x_min":0,"x_max":0,"o":""},"Ć":{"ha":704,"x_min":54,"x_max":660,"o":"m 350 1064 l 401 1275 l 506 1275 l 424 1064 l 350 1064 m 332 -7 q 203 21 256 -7 q 117 91 150 49 q 69 177 85 133 q 54 251 54 221 l 54 719 q 69 795 54 751 q 117 881 85 839 q 203 952 150 924 q 332 981 256 981 l 332 869 q 255 852 286 869 q 203 810 224 835 q 175 761 183 786 q 167 719 167 736 l 167 251 q 176 210 167 235 q 204 160 185 185 q 256 119 224 136 q 332 103 288 103 l 332 -7 m 399 -7 l 399 103 q 453 116 424 106 q 508 149 483 126 q 544 208 533 172 q 551 232 549 219 q 553 256 553 244 q 555 269 554 263 q 556 278 556 275 l 660 253 q 622 120 660 179 q 525 27 585 61 q 399 -7 465 -7 m 553 689 q 553 700 553 694 q 553 711 553 706 q 550 733 551 722 q 544 754 549 743 q 509 817 531 794 q 465 851 488 840 q 424 865 442 861 q 399 869 406 868 l 399 981 q 495 958 449 981 q 579 899 542 936 q 638 814 617 861 q 660 717 660 767 l 553 689 z "},"Č":{"ha":704,"x_min":54,"x_max":660,"o":"m 332 1064 l 226 1275 l 301 1275 l 364 1149 l 425 1275 l 500 1275 l 394 1064 l 332 1064 m 332 -7 q 203 21 256 -7 q 117 91 150 49 q 69 177 85 133 q 54 251 54 221 l 54 719 q 69 795 54 751 q 117 881 85 839 q 203 952 150 924 q 332 981 256 981 l 332 869 q 255 852 286 869 q 203 810 224 835 q 175 761 183 786 q 167 719 167 736 l 167 251 q 176 210 167 235 q 204 160 185 185 q 256 119 224 136 q 332 103 288 103 l 332 -7 m 399 -7 l 399 103 q 453 116 424 106 q 508 149 483 126 q 544 208 533 172 q 551 232 549 219 q 553 256 553 244 q 555 269 554 263 q 556 278 556 275 l 660 253 q 622 120 660 179 q 525 27 585 61 q 399 -7 465 -7 m 553 689 q 553 700 553 694 q 553 711 553 706 q 550 733 551 722 q 544 754 549 743 q 509 817 531 794 q 465 851 488 840 q 424 865 442 861 q 399 869 406 868 l 399 981 q 495 958 449 981 q 579 899 542 936 q 638 814 617 861 q 660 717 660 767 l 553 689 z "},"Ç":{"ha":704,"x_min":54,"x_max":660,"o":"m 196 -256 l 196 -174 q 285 -144 247 -174 q 322 -57 322 -114 l 407 -57 q 387 -147 407 -101 q 320 -224 367 -193 q 196 -256 274 -256 m 332 -7 q 203 21 256 -7 q 117 91 150 49 q 69 177 85 133 q 54 251 54 221 l 54 719 q 69 795 54 751 q 117 881 85 839 q 203 952 150 924 q 332 981 256 981 l 332 869 q 255 852 286 869 q 203 810 224 835 q 175 761 183 786 q 167 719 167 736 l 167 251 q 176 210 167 235 q 204 160 185 185 q 256 119 224 136 q 332 103 288 103 l 332 -7 m 399 -7 l 399 103 q 453 116 424 106 q 508 149 483 126 q 544 208 533 172 q 551 232 549 219 q 553 256 553 244 q 555 269 554 263 q 556 278 556 275 l 660 253 q 622 120 660 179 q 525 27 585 61 q 399 -7 465 -7 m 553 689 q 553 700 553 694 q 553 711 553 706 q 550 733 551 722 q 544 754 549 743 q 509 817 531 794 q 465 851 488 840 q 424 865 442 861 q 399 869 406 868 l 399 981 q 495 958 449 981 q 579 899 542 936 q 638 814 617 861 q 660 717 660 767 l 553 689 z "},"D":{"ha":656,"x_min":57,"x_max":601,"o":"m 236 0 l 236 110 q 327 114 282 110 q 409 133 372 118 q 467 182 446 149 q 489 274 489 215 l 489 699 q 469 783 489 751 q 415 833 450 815 q 335 856 381 850 q 236 863 289 863 l 236 972 q 381 958 314 972 q 497 912 447 943 q 574 828 546 881 q 601 699 601 775 l 601 274 q 568 127 601 182 q 481 44 535 72 q 363 8 426 17 q 236 0 299 0 m 57 0 l 57 972 l 168 972 l 168 0 l 57 0 z "},"Ď":{"ha":656,"x_min":57,"x_max":601,"o":"m 300 1064 l 194 1275 l 269 1275 l 332 1149 l 393 1275 l 468 1275 l 363 1064 l 300 1064 m 236 0 l 236 110 q 327 114 282 110 q 409 133 372 118 q 467 182 446 149 q 489 274 489 215 l 489 699 q 469 783 489 751 q 415 833 450 815 q 335 856 381 850 q 236 863 289 863 l 236 972 q 381 958 314 972 q 497 912 447 943 q 574 828 546 881 q 601 699 601 775 l 601 274 q 568 127 601 182 q 481 44 535 72 q 363 8 426 17 q 236 0 299 0 m 57 0 l 57 972 l 168 972 l 168 0 l 57 0 z "},"Đ":{"ha":699,"x_min":36,"x_max":658,"o":"m 114 0 l 114 442 l 36 442 l 36 544 l 114 544 l 114 972 l 226 972 l 226 544 l 304 544 l 304 442 l 226 442 l 226 0 l 114 0 m 293 0 l 293 110 q 385 114 340 110 q 466 133 429 118 q 525 182 503 149 q 547 274 547 215 l 547 699 q 527 783 547 751 q 473 833 507 815 q 392 856 439 850 q 293 863 346 863 l 293 972 q 438 958 372 972 q 553 912 504 943 q 631 828 603 881 q 658 699 658 775 l 658 274 q 626 127 658 182 q 539 44 593 72 q 421 8 485 17 q 293 0 357 0 z "},"E":{"ha":617,"x_min":57,"x_max":563,"o":"m 57 0 l 57 972 l 563 972 l 563 863 l 168 863 l 168 539 l 432 539 l 432 429 l 168 429 l 168 110 l 563 110 l 563 0 l 57 0 z "},"É":{"ha":617,"x_min":57,"x_max":563,"o":"m 335 1064 l 386 1275 l 490 1275 l 408 1064 l 335 1064 m 57 0 l 57 972 l 563 972 l 563 863 l 168 863 l 168 539 l 432 539 l 432 429 l 168 429 l 168 110 l 563 110 l 563 0 l 57 0 z "},"Ě":{"ha":617,"x_min":57,"x_max":563,"o":"m 279 1064 l 174 1275 l 249 1275 l 311 1149 l 372 1275 l 447 1275 l 342 1064 l 279 1064 m 57 0 l 57 972 l 563 972 l 563 863 l 168 863 l 168 539 l 432 539 l 432 429 l 168 429 l 168 110 l 563 110 l 563 0 l 57 0 z "},"Ê":{"ha":617,"x_min":57,"x_max":563,"o":"m 174 1064 l 278 1275 l 342 1275 l 447 1064 l 372 1064 l 310 1190 l 249 1064 l 174 1064 m 57 0 l 57 972 l 563 972 l 563 863 l 168 863 l 168 539 l 432 539 l 432 429 l 168 429 l 168 110 l 563 110 l 563 0 l 57 0 z "},"Ë":{"ha":617,"x_min":57,"x_max":563,"o":"m 400 1064 q 355 1083 374 1064 q 336 1129 336 1103 q 355 1174 336 1156 q 400 1193 374 1193 q 447 1174 428 1193 q 465 1129 465 1156 q 447 1083 465 1103 q 400 1064 428 1064 m 222 1064 q 176 1083 196 1064 q 157 1129 157 1103 q 176 1174 157 1156 q 222 1193 196 1193 q 267 1174 249 1193 q 286 1129 286 1156 q 267 1083 286 1103 q 222 1064 249 1064 m 57 0 l 57 972 l 563 972 l 563 863 l 168 863 l 168 539 l 432 539 l 432 429 l 168 429 l 168 110 l 563 110 l 563 0 l 57 0 z "},"Ė":{"ha":617,"x_min":57,"x_max":563,"o":"m 311 1064 q 264 1083 283 1064 q 244 1131 244 1103 q 264 1179 244 1160 q 311 1199 283 1199 q 359 1179 340 1199 q 378 1131 378 1160 q 359 1083 378 1103 q 311 1064 340 1064 m 57 0 l 57 972 l 563 972 l 563 863 l 168 863 l 168 539 l 432 539 l 432 429 l 168 429 l 168 110 l 563 110 l 563 0 l 57 0 z "},"È":{"ha":617,"x_min":57,"x_max":563,"o":"m 268 1064 l 188 1275 l 292 1275 l 343 1064 l 268 1064 m 57 0 l 57 972 l 563 972 l 563 863 l 168 863 l 168 539 l 432 539 l 432 429 l 168 429 l 168 110 l 563 110 l 563 0 l 57 0 z "},"Ē":{"ha":617,"x_min":57,"x_max":563,"o":"m 92 1064 l 92 1133 l 531 1133 l 531 1064 l 92 1064 m 57 0 l 57 972 l 563 972 l 563 863 l 168 863 l 168 539 l 432 539 l 432 429 l 168 429 l 168 110 l 563 110 l 563 0 l 57 0 z "},"Ę":{"ha":617,"x_min":57,"x_max":578,"o":"m 578 -254 q 455 -223 501 -254 q 388 -146 408 -192 q 368 -56 368 -100 l 451 -56 q 489 -142 451 -112 q 578 -172 526 -172 l 578 -254 m 57 0 l 57 972 l 563 972 l 563 863 l 168 863 l 168 539 l 432 539 l 432 429 l 168 429 l 168 110 l 563 110 l 563 0 l 57 0 z "},"Ð":{"ha":699,"x_min":36,"x_max":658,"o":"m 114 0 l 114 442 l 36 442 l 36 544 l 114 544 l 114 972 l 226 972 l 226 544 l 304 544 l 304 442 l 226 442 l 226 0 l 114 0 m 293 0 l 293 110 q 385 114 340 110 q 466 133 429 118 q 525 182 503 149 q 547 274 547 215 l 547 699 q 527 783 547 751 q 473 833 507 815 q 392 856 439 850 q 293 863 346 863 l 293 972 q 438 958 372 972 q 553 912 504 943 q 631 828 603 881 q 658 699 658 775 l 658 274 q 626 127 658 182 q 539 44 593 72 q 421 8 485 17 q 293 0 357 0 z "},"€":{"ha":726,"x_min":71,"x_max":725,"o":"m 618 679 q 618 711 618 694 q 614 740 618 728 q 576 813 601 785 q 523 853 551 840 q 467 865 494 865 l 467 976 q 566 954 519 975 q 649 897 613 933 q 705 814 685 861 q 725 715 725 767 l 618 679 m 396 -3 q 280 24 329 -1 q 197 88 231 49 q 147 172 164 128 q 129 251 131 215 l 129 378 l 71 378 l 71 440 l 129 440 l 129 524 l 71 524 l 71 586 l 129 586 l 129 707 q 147 795 129 749 q 197 883 164 842 q 281 949 231 924 q 396 976 331 975 l 396 865 q 324 850 354 865 q 276 811 294 835 q 248 762 257 788 q 239 714 239 736 l 239 586 l 568 586 l 568 524 l 239 524 l 239 440 l 568 440 l 568 378 l 239 378 l 239 263 q 249 210 239 238 q 278 159 258 183 q 326 120 297 135 q 396 106 356 106 l 396 -3 m 467 -3 l 467 107 q 526 121 496 108 q 581 159 557 133 q 614 226 604 185 q 619 263 618 244 q 621 290 621 281 l 725 256 q 703 158 725 204 q 644 76 682 113 q 561 19 607 40 q 467 -3 515 -3 z "},"F":{"ha":610,"x_min":57,"x_max":563,"o":"m 57 1 l 57 972 l 563 972 l 563 863 l 168 863 l 168 539 l 432 539 l 432 429 l 168 429 l 168 1 l 57 1 z "},"G":{"ha":711,"x_min":54,"x_max":658,"o":"m 331 -7 q 251 8 297 -7 q 159 55 204 22 q 84 140 114 88 q 54 267 54 192 l 54 728 q 73 803 56 760 q 124 886 90 846 q 209 953 158 926 q 331 979 260 979 l 331 869 q 246 845 283 869 q 188 784 208 821 q 167 706 167 747 l 167 267 q 187 190 167 221 q 235 139 207 158 q 290 111 263 119 q 331 103 317 103 l 331 -7 m 397 -7 l 397 103 q 440 115 415 103 q 490 149 465 126 q 530 200 514 171 q 546 264 546 229 l 546 386 l 397 386 l 397 490 l 658 490 l 658 244 q 635 158 658 203 q 573 76 611 114 q 488 16 535 39 q 397 -7 442 -7 m 550 676 l 549 711 q 528 784 546 754 q 487 833 511 814 q 438 860 463 851 q 397 869 414 869 l 397 979 q 524 942 464 981 q 621 844 583 904 q 658 717 658 783 l 550 676 z "},"Ğ":{"ha":711,"x_min":54,"x_max":658,"o":"m 361 1064 q 304 1081 328 1064 q 267 1122 281 1097 q 254 1169 254 1147 l 317 1169 q 330 1138 317 1151 q 361 1125 343 1125 q 393 1138 381 1125 q 406 1169 406 1151 l 468 1169 q 455 1122 468 1147 q 418 1081 442 1097 q 361 1064 394 1064 m 331 -7 q 251 8 297 -7 q 159 55 204 22 q 84 140 114 88 q 54 267 54 192 l 54 728 q 73 803 56 760 q 124 886 90 846 q 209 953 158 926 q 331 979 260 979 l 331 869 q 246 845 283 869 q 188 784 208 821 q 167 706 167 747 l 167 267 q 187 190 167 221 q 235 139 207 158 q 290 111 263 119 q 331 103 317 103 l 331 -7 m 397 -7 l 397 103 q 440 115 415 103 q 490 149 465 126 q 530 200 514 171 q 546 264 546 229 l 546 386 l 397 386 l 397 490 l 658 490 l 658 244 q 635 158 658 203 q 573 76 611 114 q 488 16 535 39 q 397 -7 442 -7 m 550 676 l 549 711 q 528 784 546 754 q 487 833 511 814 q 438 860 463 851 q 397 869 414 869 l 397 979 q 524 942 464 981 q 621 844 583 904 q 658 717 658 783 l 550 676 z "},"H":{"ha":686,"x_min":56,"x_max":631,"o":"m 519 0 l 519 438 l 378 438 l 378 540 l 519 540 l 519 972 l 631 972 l 631 0 l 519 0 m 56 0 l 56 972 l 167 972 l 167 540 l 308 540 l 308 438 l 167 438 l 167 0 l 56 0 z "},"I":{"ha":228,"x_min":58,"x_max":169,"o":"m 58 0 l 58 972 l 169 972 l 169 0 l 58 0 z "},"Í":{"ha":228,"x_min":58,"x_max":232,"o":"m 78 1064 l 129 1275 l 233 1275 l 151 1064 l 78 1064 m 58 0 l 58 972 l 169 972 l 169 0 l 58 0 z "},"Î":{"ha":228,"x_min":-22,"x_max":251,"o":"m -22 1064 l 82 1275 l 146 1275 l 251 1064 l 176 1064 l 114 1190 l 53 1064 l -22 1064 m 58 0 l 58 972 l 169 972 l 169 0 l 58 0 z "},"Ï":{"ha":228,"x_min":-40,"x_max":268,"o":"m 203 1064 q 158 1083 176 1064 q 139 1129 139 1103 q 158 1174 139 1156 q 203 1193 176 1193 q 249 1174 231 1193 q 268 1129 268 1156 q 249 1083 268 1103 q 203 1064 231 1064 m 25 1064 q -21 1083 -1 1064 q -40 1129 -40 1103 q -21 1174 -40 1156 q 25 1193 -1 1193 q 70 1174 51 1193 q 89 1129 89 1156 q 70 1083 89 1103 q 25 1064 51 1064 m 58 0 l 58 972 l 169 972 l 169 0 l 58 0 z "},"İ":{"ha":228,"x_min":47,"x_max":181,"o":"m 114 1064 q 67 1083 86 1064 q 47 1131 47 1103 q 67 1179 47 1160 q 114 1199 86 1199 q 162 1179 143 1199 q 181 1131 181 1160 q 162 1083 181 1103 q 114 1064 143 1064 m 58 0 l 58 972 l 169 972 l 169 0 l 58 0 z "},"Ì":{"ha":228,"x_min":-6,"x_max":169,"o":"m 75 1064 l -6 1275 l 99 1275 l 150 1064 l 75 1064 m 58 0 l 58 972 l 169 972 l 169 0 l 58 0 z "},"Ī":{"ha":228,"x_min":-106,"x_max":333,"o":"m -106 1064 l -106 1133 l 333 1133 l 333 1064 l -106 1064 m 58 0 l 58 972 l 169 972 l 169 0 l 58 0 z "},"Į":{"ha":228,"x_min":58,"x_max":283,"o":"m 283 -253 q 159 -222 206 -253 q 92 -144 113 -190 q 72 -54 72 -99 l 157 -54 q 194 -141 157 -111 q 283 -171 232 -171 l 283 -253 m 58 0 l 58 972 l 169 972 l 169 0 l 58 0 z "},"J":{"ha":683,"x_min":25,"x_max":632,"o":"m 357 -7 l 357 104 q 398 113 371 104 q 453 142 425 122 q 501 194 481 163 q 521 268 521 225 l 521 972 l 632 972 l 632 268 q 601 140 632 193 q 525 56 571 88 q 434 8 479 24 q 357 -7 389 -7 m 288 -7 q 213 9 257 -7 q 126 58 168 25 q 54 144 83 92 q 25 268 25 196 l 25 336 l 138 336 l 138 274 q 154 197 138 229 q 196 144 171 164 q 246 114 221 124 q 288 104 271 104 l 288 -7 z "},"K":{"ha":681,"x_min":57,"x_max":656,"o":"m 538 0 l 228 474 l 531 972 l 650 972 l 347 474 l 656 0 l 538 0 m 57 0 l 57 972 l 168 972 l 168 0 l 57 0 z "},"L":{"ha":604,"x_min":57,"x_max":579,"o":"m 57 0 l 57 972 l 168 972 l 168 110 l 579 110 l 579 0 l 57 0 z "},"Ĺ":{"ha":604,"x_min":57,"x_max":579,"o":"m 76 1064 l 128 1275 l 232 1275 l 150 1064 l 76 1064 m 57 0 l 57 972 l 168 972 l 168 110 l 579 110 l 579 0 l 57 0 z "},"Ľ":{"ha":604,"x_min":57,"x_max":579,"o":"m 271 768 l 322 979 l 426 979 l 375 768 l 271 768 m 57 0 l 57 972 l 168 972 l 168 110 l 579 110 l 579 0 l 57 0 z "},"Ł":{"ha":651,"x_min":57,"x_max":701,"o":"m 179 0 l 179 363 l 118 315 l 57 393 l 179 488 l 179 972 l 290 972 l 290 574 l 390 653 l 451 574 l 290 450 l 290 108 l 701 108 l 701 0 l 179 0 z "},"M":{"ha":967,"x_min":58,"x_max":908,"o":"m 433 0 l 58 903 l 58 972 l 150 972 l 476 181 l 715 721 l 729 721 l 729 475 l 519 0 l 433 0 m 58 0 l 58 704 l 71 704 l 169 464 l 169 0 l 58 0 m 797 0 l 797 972 l 908 972 l 908 0 l 797 0 z "},"N":{"ha":735,"x_min":58,"x_max":676,"o":"m 622 0 l 58 901 l 58 972 l 154 972 l 676 138 l 676 0 l 622 0 m 58 0 l 58 769 l 69 769 l 169 608 l 169 0 l 58 0 m 665 271 l 565 435 l 565 972 l 676 972 l 676 271 l 665 271 z "},"Ń":{"ha":735,"x_min":58,"x_max":676,"o":"m 331 1064 l 382 1275 l 486 1275 l 404 1064 l 331 1064 m 622 0 l 58 901 l 58 972 l 154 972 l 676 138 l 676 0 l 622 0 m 58 0 l 58 769 l 69 769 l 169 608 l 169 0 l 58 0 m 665 271 l 565 435 l 565 972 l 676 972 l 676 271 l 665 271 z "},"Ň":{"ha":735,"x_min":58,"x_max":676,"o":"m 336 1064 l 231 1275 l 306 1275 l 368 1149 l 429 1275 l 504 1275 l 399 1064 l 336 1064 m 622 0 l 58 901 l 58 972 l 154 972 l 676 138 l 676 0 l 622 0 m 58 0 l 58 769 l 69 769 l 169 608 l 169 0 l 58 0 m 665 271 l 565 435 l 565 972 l 676 972 l 676 271 l 665 271 z "},"Ñ":{"ha":735,"x_min":58,"x_max":676,"o":"m 446 1064 q 381 1078 410 1064 q 324 1106 351 1092 q 264 1119 297 1119 q 223 1113 246 1119 q 172 1089 200 1106 l 172 1178 q 226 1201 201 1194 q 269 1208 250 1208 q 333 1194 306 1208 q 389 1166 361 1181 q 451 1151 417 1151 q 501 1160 475 1151 q 563 1190 528 1169 l 563 1103 q 499 1072 528 1081 q 446 1064 469 1064 m 622 0 l 58 901 l 58 972 l 154 972 l 676 138 l 676 0 l 622 0 m 58 0 l 58 769 l 69 769 l 169 608 l 169 0 l 58 0 m 665 271 l 565 435 l 565 972 l 676 972 l 676 271 l 665 271 z "},"O":{"ha":744,"x_min":56,"x_max":689,"o":"m 410 -7 l 410 104 q 464 116 435 104 q 519 150 493 128 q 561 205 544 172 q 578 279 578 238 l 578 694 q 566 753 578 724 q 533 810 554 783 q 481 852 511 836 q 410 868 450 868 l 410 979 q 526 954 475 979 q 614 889 578 929 q 669 803 650 849 q 689 717 689 758 l 689 276 q 663 154 689 207 q 594 65 636 101 q 504 11 553 29 q 410 -7 456 -7 m 333 -7 q 244 11 292 -7 q 153 65 196 29 q 83 154 110 101 q 56 276 56 207 l 56 717 q 75 804 56 758 q 131 890 94 850 q 219 954 167 929 q 335 979 271 979 l 335 868 q 265 852 296 868 q 212 809 233 836 q 178 752 190 782 q 167 694 167 722 l 167 279 q 184 206 167 238 q 227 151 201 174 q 281 116 253 128 q 333 104 310 104 l 333 -7 z "},"Œ":{"ha":754,"x_min":-8,"x_max":969,"o":"m 407 0 l 407 111 l 464 111 l 464 863 l 407 863 l 407 972 l 969 972 l 969 863 l 575 863 l 575 539 l 839 539 l 839 429 l 575 429 l 575 110 l 969 110 l 969 0 l 407 0 m 339 0 q 215 9 276 0 q 103 46 153 18 q 22 128 53 74 q -8 275 -8 183 l -8 707 q 17 835 -8 783 q 90 916 43 886 q 200 959 136 946 q 339 972 264 972 l 339 863 q 244 856 288 863 q 169 833 200 850 q 121 783 138 815 q 104 699 104 751 l 104 275 q 123 184 104 218 q 175 135 142 150 q 250 115 208 119 q 339 111 292 111 l 339 0 z "},"Ó":{"ha":731,"x_min":56,"x_max":689,"o":"m 328 1064 l 379 1275 l 483 1275 l 401 1064 l 328 1064 m 410 -7 l 410 104 q 464 116 435 104 q 519 150 493 128 q 561 205 544 172 q 578 279 578 238 l 578 694 q 566 753 578 724 q 533 810 554 783 q 481 852 511 836 q 410 868 450 868 l 410 979 q 526 954 475 979 q 614 889 578 929 q 669 803 650 849 q 689 717 689 758 l 689 276 q 663 154 689 207 q 594 65 636 101 q 504 11 553 29 q 410 -7 456 -7 m 333 -7 q 244 11 292 -7 q 153 65 196 29 q 83 154 110 101 q 56 276 56 207 l 56 717 q 75 804 56 758 q 131 890 94 850 q 219 954 167 929 q 335 979 271 979 l 335 868 q 265 852 296 868 q 212 809 233 836 q 178 752 190 782 q 167 694 167 722 l 167 279 q 184 206 167 238 q 227 151 201 174 q 281 116 253 128 q 333 104 310 104 l 333 -7 z "},"Ô":{"ha":731,"x_min":56,"x_max":689,"o":"m 228 1064 l 332 1275 l 396 1275 l 501 1064 l 426 1064 l 364 1190 l 303 1064 l 228 1064 m 410 -7 l 410 104 q 464 116 435 104 q 519 150 493 128 q 561 205 544 172 q 578 279 578 238 l 578 694 q 566 753 578 724 q 533 810 554 783 q 481 852 511 836 q 410 868 450 868 l 410 979 q 526 954 475 979 q 614 889 578 929 q 669 803 650 849 q 689 717 689 758 l 689 276 q 663 154 689 207 q 594 65 636 101 q 504 11 553 29 q 410 -7 456 -7 m 333 -7 q 244 11 292 -7 q 153 65 196 29 q 83 154 110 101 q 56 276 56 207 l 56 717 q 75 804 56 758 q 131 890 94 850 q 219 954 167 929 q 335 979 271 979 l 335 868 q 265 852 296 868 q 212 809 233 836 q 178 752 190 782 q 167 694 167 722 l 167 279 q 184 206 167 238 q 227 151 201 174 q 281 116 253 128 q 333 104 310 104 l 333 -7 z "},"Ö":{"ha":731,"x_min":56,"x_max":689,"o":"m 453 1064 q 408 1083 426 1064 q 389 1129 389 1103 q 408 1174 389 1156 q 453 1193 426 1193 q 499 1174 481 1193 q 518 1129 518 1156 q 499 1083 518 1103 q 453 1064 481 1064 m 275 1064 q 229 1083 249 1064 q 210 1129 210 1103 q 229 1174 210 1156 q 275 1193 249 1193 q 320 1174 301 1193 q 339 1129 339 1156 q 320 1083 339 1103 q 275 1064 301 1064 m 410 -7 l 410 104 q 464 116 435 104 q 519 150 493 128 q 561 205 544 172 q 578 279 578 238 l 578 694 q 566 753 578 724 q 533 810 554 783 q 481 852 511 836 q 410 868 450 868 l 410 979 q 526 954 475 979 q 614 889 578 929 q 669 803 650 849 q 689 717 689 758 l 689 276 q 663 154 689 207 q 594 65 636 101 q 504 11 553 29 q 410 -7 456 -7 m 333 -7 q 244 11 292 -7 q 153 65 196 29 q 83 154 110 101 q 56 276 56 207 l 56 717 q 75 804 56 758 q 131 890 94 850 q 219 954 167 929 q 335 979 271 979 l 335 868 q 265 852 296 868 q 212 809 233 836 q 178 752 190 782 q 167 694 167 722 l 167 279 q 184 206 167 238 q 227 151 201 174 q 281 116 253 128 q 333 104 310 104 l 333 -7 z "},"Ò":{"ha":731,"x_min":56,"x_max":689,"o":"m 321 1064 l 240 1275 l 344 1275 l 396 1064 l 321 1064 m 410 -7 l 410 104 q 464 116 435 104 q 519 150 493 128 q 561 205 544 172 q 578 279 578 238 l 578 694 q 566 753 578 724 q 533 810 554 783 q 481 852 511 836 q 410 868 450 868 l 410 979 q 526 954 475 979 q 614 889 578 929 q 669 803 650 849 q 689 717 689 758 l 689 276 q 663 154 689 207 q 594 65 636 101 q 504 11 553 29 q 410 -7 456 -7 m 333 -7 q 244 11 292 -7 q 153 65 196 29 q 83 154 110 101 q 56 276 56 207 l 56 717 q 75 804 56 758 q 131 890 94 850 q 219 954 167 929 q 335 979 271 979 l 335 868 q 265 852 296 868 q 212 809 233 836 q 178 752 190 782 q 167 694 167 722 l 167 279 q 184 206 167 238 q 227 151 201 174 q 281 116 253 128 q 333 104 310 104 l 333 -7 z "},"Ő":{"ha":731,"x_min":56,"x_max":689,"o":"m 414 1064 l 465 1275 l 569 1275 l 488 1064 l 414 1064 m 253 1064 l 304 1275 l 408 1275 l 326 1064 l 253 1064 m 410 -7 l 410 104 q 464 116 435 104 q 519 150 493 128 q 561 205 544 172 q 578 279 578 238 l 578 694 q 566 753 578 724 q 533 810 554 783 q 481 852 511 836 q 410 868 450 868 l 410 979 q 526 954 475 979 q 614 889 578 929 q 669 803 650 849 q 689 717 689 758 l 689 276 q 663 154 689 207 q 594 65 636 101 q 504 11 553 29 q 410 -7 456 -7 m 333 -7 q 244 11 292 -7 q 153 65 196 29 q 83 154 110 101 q 56 276 56 207 l 56 717 q 75 804 56 758 q 131 890 94 850 q 219 954 167 929 q 335 979 271 979 l 335 868 q 265 852 296 868 q 212 809 233 836 q 178 752 190 782 q 167 694 167 722 l 167 279 q 184 206 167 238 q 227 151 201 174 q 281 116 253 128 q 333 104 310 104 l 333 -7 z "},"Ō":{"ha":731,"x_min":56,"x_max":689,"o":"m 144 1064 l 144 1133 l 583 1133 l 583 1064 l 144 1064 m 410 -7 l 410 104 q 464 116 435 104 q 519 150 493 128 q 561 205 544 172 q 578 279 578 238 l 578 694 q 566 753 578 724 q 533 810 554 783 q 481 852 511 836 q 410 868 450 868 l 410 979 q 526 954 475 979 q 614 889 578 929 q 669 803 650 849 q 689 717 689 758 l 689 276 q 663 154 689 207 q 594 65 636 101 q 504 11 553 29 q 410 -7 456 -7 m 333 -7 q 244 11 292 -7 q 153 65 196 29 q 83 154 110 101 q 56 276 56 207 l 56 717 q 75 804 56 758 q 131 890 94 850 q 219 954 167 929 q 335 979 271 979 l 335 868 q 265 852 296 868 q 212 809 233 836 q 178 752 190 782 q 167 694 167 722 l 167 279 q 184 206 167 238 q 227 151 201 174 q 281 116 253 128 q 333 104 310 104 l 333 -7 z "},"Ø":{"ha":929,"x_min":19,"x_max":897,"o":"m 422 -7 q 340 10 390 -7 q 244 66 290 28 q 172 164 199 104 l 86 86 l 19 156 l 150 274 l 150 728 q 167 802 150 760 q 218 885 183 844 q 304 952 253 925 q 424 979 356 979 l 424 868 q 353 851 383 868 q 302 807 322 833 q 272 753 282 781 q 261 703 261 725 l 261 375 l 657 729 q 632 792 651 760 q 580 846 613 824 q 499 868 547 868 l 499 979 q 613 954 564 979 q 697 891 663 929 q 749 813 731 853 l 833 888 l 897 817 l 772 703 l 772 271 q 742 143 772 196 q 667 57 711 90 q 576 8 622 24 q 499 -7 531 -7 l 499 104 q 544 115 517 104 q 598 146 572 125 q 642 198 624 167 q 661 271 661 229 l 661 603 l 264 246 q 302 167 272 199 q 366 119 332 135 q 422 104 400 104 l 422 -7 z "},"Õ":{"ha":731,"x_min":56,"x_max":689,"o":"m 442 1065 q 376 1079 406 1065 q 320 1107 347 1093 q 260 1121 293 1121 q 219 1114 242 1121 q 168 1090 196 1107 l 168 1179 q 222 1203 197 1196 q 265 1210 246 1210 q 329 1196 301 1210 q 385 1167 357 1182 q 447 1153 413 1153 q 497 1162 471 1153 q 558 1192 524 1171 l 558 1104 q 494 1074 524 1082 q 442 1065 465 1065 m 410 -7 l 410 104 q 464 116 435 104 q 519 150 493 128 q 561 205 544 172 q 578 279 578 238 l 578 694 q 566 753 578 724 q 533 810 554 783 q 481 852 511 836 q 410 868 450 868 l 410 979 q 526 954 475 979 q 614 889 578 929 q 669 803 650 849 q 689 717 689 758 l 689 276 q 663 154 689 207 q 594 65 636 101 q 504 11 553 29 q 410 -7 456 -7 m 333 -7 q 244 11 292 -7 q 153 65 196 29 q 83 154 110 101 q 56 276 56 207 l 56 717 q 75 804 56 758 q 131 890 94 850 q 219 954 167 929 q 335 979 271 979 l 335 868 q 265 852 296 868 q 212 809 233 836 q 178 752 190 782 q 167 694 167 722 l 167 279 q 184 206 167 238 q 227 151 201 174 q 281 116 253 128 q 333 104 310 104 l 333 -7 z "},"P":{"ha":669,"x_min":58,"x_max":644,"o":"m 58 0 l 58 972 l 169 972 l 169 0 l 58 0 m 238 433 l 238 542 l 381 542 q 461 556 428 542 q 513 607 494 571 q 531 706 531 643 q 513 800 531 765 q 463 850 496 835 q 381 865 429 865 l 238 865 l 238 972 l 400 972 q 532 943 478 971 q 615 857 586 915 q 644 701 644 799 q 615 544 644 601 q 531 461 585 486 q 400 433 476 436 l 238 433 z "},"Q":{"ha":732,"x_min":54,"x_max":676,"o":"m 501 -149 l 400 -7 l 400 104 q 433 112 407 104 q 489 138 458 119 q 542 188 519 156 q 564 271 564 221 l 564 706 q 546 773 564 735 q 492 840 528 811 q 400 869 456 869 l 400 979 q 522 952 469 979 q 608 885 574 925 q 659 801 642 844 q 676 728 676 758 l 676 271 q 651 156 676 203 q 587 78 625 108 q 511 28 549 47 l 590 -87 l 501 -149 m 331 -7 q 251 8 297 -7 q 159 57 204 24 q 84 143 114 90 q 54 271 54 196 l 54 728 q 72 802 54 760 q 123 885 89 844 q 209 953 157 926 q 332 979 261 979 l 332 869 q 240 840 276 869 q 185 773 203 811 q 167 706 167 735 l 167 271 q 188 188 167 221 q 240 137 210 156 q 297 111 271 118 q 331 104 322 104 l 331 -7 z "},"R":{"ha":704,"x_min":58,"x_max":668,"o":"m 563 0 l 542 247 q 522 345 536 306 q 476 405 508 385 q 386 424 444 425 l 238 424 l 238 526 l 378 526 q 494 569 458 526 q 531 696 531 613 q 488 826 531 782 q 357 871 446 871 l 238 871 l 238 972 l 379 972 q 513 943 454 971 q 605 857 571 915 q 639 701 639 799 q 613 559 639 614 q 543 476 586 504 q 612 410 585 456 q 644 301 639 365 l 668 0 l 563 0 m 58 0 l 58 972 l 169 972 l 169 0 l 58 0 z "},"Ŕ":{"ha":704,"x_min":58,"x_max":668,"o":"m 271 1064 l 322 1275 l 426 1275 l 344 1064 l 271 1064 m 563 0 l 542 247 q 522 345 536 306 q 476 405 508 385 q 386 424 444 425 l 238 424 l 238 526 l 378 526 q 494 569 458 526 q 531 696 531 613 q 488 826 531 782 q 357 871 446 871 l 238 871 l 238 972 l 379 972 q 513 943 454 971 q 605 857 571 915 q 639 701 639 799 q 613 559 639 614 q 543 476 586 504 q 612 410 585 456 q 644 301 639 365 l 668 0 l 563 0 m 58 0 l 58 972 l 169 972 l 169 0 l 58 0 z "},"Ř":{"ha":704,"x_min":58,"x_max":668,"o":"m 267 1064 l 161 1275 l 236 1275 l 299 1149 l 360 1275 l 435 1275 l 329 1064 l 267 1064 m 563 0 l 542 247 q 522 345 536 306 q 476 405 508 385 q 386 424 444 425 l 238 424 l 238 526 l 378 526 q 494 569 458 526 q 531 696 531 613 q 488 826 531 782 q 357 871 446 871 l 238 871 l 238 972 l 379 972 q 513 943 454 971 q 605 857 571 915 q 639 701 639 799 q 613 559 639 614 q 543 476 586 504 q 612 410 585 456 q 644 301 639 365 l 668 0 l 563 0 m 58 0 l 58 972 l 169 972 l 169 0 l 58 0 z "},"S":{"ha":685,"x_min":36,"x_max":649,"o":"m 363 -4 l 363 100 q 415 113 385 100 q 472 151 444 126 q 519 208 500 175 q 538 283 538 242 q 511 364 538 332 q 444 415 485 396 q 358 446 403 435 q 276 465 314 457 q 218 479 238 472 q 132 524 171 496 q 70 599 93 553 q 47 710 47 644 q 75 832 47 782 q 143 913 103 882 q 225 958 183 943 q 294 972 267 972 l 294 867 q 257 856 281 865 q 210 828 233 847 q 172 778 188 808 q 156 707 156 749 q 177 640 156 667 q 233 597 199 614 q 310 568 268 581 q 395 546 353 556 q 471 524 438 536 q 558 477 518 506 q 624 403 599 449 q 649 286 649 357 q 610 145 649 211 q 506 38 571 79 q 363 -4 440 -4 m 294 -4 q 189 19 236 -4 q 108 79 142 43 q 55 153 74 115 q 36 219 36 190 l 138 256 q 172 172 146 206 q 232 122 199 139 q 294 100 265 104 l 294 -4 m 506 735 q 472 808 497 779 q 417 851 447 836 q 363 867 388 865 l 363 972 q 464 950 419 972 q 540 894 508 928 q 590 826 572 860 q 610 768 607 792 l 506 735 z "},"Ś":{"ha":685,"x_min":36,"x_max":649,"o":"m 283 1064 l 335 1275 l 439 1275 l 357 1064 l 283 1064 m 363 -4 l 363 100 q 415 113 385 100 q 472 151 444 126 q 519 208 500 175 q 538 283 538 242 q 511 364 538 332 q 444 415 485 396 q 358 446 403 435 q 276 465 314 457 q 218 479 238 472 q 132 524 171 496 q 70 599 93 553 q 47 710 47 644 q 75 832 47 782 q 143 913 103 882 q 225 958 183 943 q 294 972 267 972 l 294 867 q 257 856 281 865 q 210 828 233 847 q 172 778 188 808 q 156 707 156 749 q 177 640 156 667 q 233 597 199 614 q 310 568 268 581 q 395 546 353 556 q 471 524 438 536 q 558 477 518 506 q 624 403 599 449 q 649 286 649 357 q 610 145 649 211 q 506 38 571 79 q 363 -4 440 -4 m 294 -4 q 189 19 236 -4 q 108 79 142 43 q 55 153 74 115 q 36 219 36 190 l 138 256 q 172 172 146 206 q 232 122 199 139 q 294 100 265 104 l 294 -4 m 506 735 q 472 808 497 779 q 417 851 447 836 q 363 867 388 865 l 363 972 q 464 950 419 972 q 540 894 508 928 q 590 826 572 860 q 610 768 607 792 l 506 735 z "},"Š":{"ha":685,"x_min":26,"x_max":639,"o":"m 276 1064 l 171 1275 l 246 1275 l 308 1149 l 369 1275 l 444 1275 l 339 1064 l 276 1064 m 353 -4 l 353 100 q 405 113 375 100 q 463 151 435 126 q 509 208 490 175 q 528 283 528 242 q 501 364 528 332 q 434 415 475 396 q 349 446 393 435 q 266 465 304 457 q 208 479 228 472 q 122 524 161 496 q 60 599 83 553 q 38 710 38 644 q 65 832 38 782 q 133 913 93 882 q 215 958 174 943 q 285 972 257 972 l 285 867 q 247 856 271 865 q 201 828 224 847 q 162 778 178 808 q 146 707 146 749 q 167 640 146 667 q 224 597 189 614 q 301 568 258 581 q 385 546 343 556 q 461 524 428 536 q 549 477 508 506 q 614 403 589 449 q 639 286 639 357 q 600 145 639 211 q 496 38 561 79 q 353 -4 431 -4 m 285 -4 q 179 19 226 -4 q 98 79 132 43 q 45 153 64 115 q 26 219 26 190 l 128 256 q 163 172 136 206 q 222 122 189 139 q 285 100 256 104 l 285 -4 m 496 735 q 463 808 488 779 q 408 851 438 836 q 353 867 378 865 l 353 972 q 454 950 410 972 q 531 894 499 928 q 580 826 563 860 q 600 768 597 792 l 496 735 z "},"T":{"ha":651,"x_min":25,"x_max":626,"o":"m 269 0 l 269 864 l 25 864 l 25 972 l 626 972 l 626 864 l 381 864 l 381 0 l 269 0 z "},"Ť":{"ha":651,"x_min":25,"x_max":626,"o":"m 290 1064 l 185 1275 l 260 1275 l 322 1149 l 383 1275 l 458 1275 l 353 1064 l 290 1064 m 269 0 l 269 864 l 25 864 l 25 972 l 626 972 l 626 864 l 381 864 l 381 0 l 269 0 z "},"Þ":{"ha":658,"x_min":78,"x_max":624,"o":"m 78 0 l 78 972 l 189 972 l 189 0 l 78 0 m 263 289 l 263 397 l 317 397 q 381 402 347 397 q 443 423 414 407 q 491 470 472 439 q 510 553 510 501 q 492 637 510 606 q 444 684 474 668 q 381 706 415 700 q 314 711 347 711 l 263 711 l 263 819 q 478 795 400 822 q 588 708 556 768 q 622 556 621 649 q 582 389 624 449 q 460 307 540 329 q 263 289 381 285 z "},"U":{"ha":724,"x_min":51,"x_max":672,"o":"m 328 -7 q 251 8 297 -7 q 158 56 204 24 q 82 140 113 88 q 51 268 51 193 l 51 972 l 164 972 l 164 268 q 183 193 164 225 q 232 142 203 161 q 288 113 261 122 q 328 104 314 104 l 328 -7 m 396 -7 l 396 104 q 438 113 411 104 q 492 140 464 121 q 541 191 521 160 q 561 268 561 222 l 561 972 l 672 972 l 672 268 q 642 140 672 193 q 566 55 611 88 q 474 8 521 22 q 396 -7 428 -7 z "},"Ú":{"ha":724,"x_min":51,"x_max":672,"o":"m 318 1064 l 369 1275 l 474 1275 l 392 1064 l 318 1064 m 328 -7 q 251 8 297 -7 q 158 56 204 24 q 82 140 113 88 q 51 268 51 193 l 51 972 l 164 972 l 164 268 q 183 193 164 225 q 232 142 203 161 q 288 113 261 122 q 328 104 314 104 l 328 -7 m 396 -7 l 396 104 q 438 113 411 104 q 492 140 464 121 q 541 191 521 160 q 561 268 561 222 l 561 972 l 672 972 l 672 268 q 642 140 672 193 q 566 55 611 88 q 474 8 521 22 q 396 -7 428 -7 z "},"Û":{"ha":724,"x_min":51,"x_max":672,"o":"m 218 1064 l 322 1275 l 386 1275 l 492 1064 l 417 1064 l 354 1190 l 293 1064 l 218 1064 m 328 -7 q 251 8 297 -7 q 158 56 204 24 q 82 140 113 88 q 51 268 51 193 l 51 972 l 164 972 l 164 268 q 183 193 164 225 q 232 142 203 161 q 288 113 261 122 q 328 104 314 104 l 328 -7 m 396 -7 l 396 104 q 438 113 411 104 q 492 140 464 121 q 541 191 521 160 q 561 268 561 222 l 561 972 l 672 972 l 672 268 q 642 140 672 193 q 566 55 611 88 q 474 8 521 22 q 396 -7 428 -7 z "},"Ü":{"ha":724,"x_min":51,"x_max":672,"o":"m 444 1064 q 399 1083 418 1064 q 381 1129 381 1103 q 399 1174 381 1156 q 444 1193 418 1193 q 491 1174 472 1193 q 510 1129 510 1156 q 491 1083 510 1103 q 444 1064 472 1064 m 267 1064 q 221 1083 240 1064 q 201 1129 201 1103 q 221 1174 201 1156 q 267 1193 240 1193 q 312 1174 293 1193 q 331 1129 331 1156 q 312 1083 331 1103 q 267 1064 293 1064 m 328 -7 q 251 8 297 -7 q 158 56 204 24 q 82 140 113 88 q 51 268 51 193 l 51 972 l 164 972 l 164 268 q 183 193 164 225 q 232 142 203 161 q 288 113 261 122 q 328 104 314 104 l 328 -7 m 396 -7 l 396 104 q 438 113 411 104 q 492 140 464 121 q 541 191 521 160 q 561 268 561 222 l 561 972 l 672 972 l 672 268 q 642 140 672 193 q 566 55 611 88 q 474 8 521 22 q 396 -7 428 -7 z "},"Ù":{"ha":724,"x_min":51,"x_max":672,"o":"m 313 1064 l 232 1275 l 336 1275 l 388 1064 l 313 1064 m 328 -7 q 251 8 297 -7 q 158 56 204 24 q 82 140 113 88 q 51 268 51 193 l 51 972 l 164 972 l 164 268 q 183 193 164 225 q 232 142 203 161 q 288 113 261 122 q 328 104 314 104 l 328 -7 m 396 -7 l 396 104 q 438 113 411 104 q 492 140 464 121 q 541 191 521 160 q 561 268 561 222 l 561 972 l 672 972 l 672 268 q 642 140 672 193 q 566 55 611 88 q 474 8 521 22 q 396 -7 428 -7 z "},"Ű":{"ha":724,"x_min":51,"x_max":672,"o":"m 431 1064 l 482 1275 l 586 1275 l 504 1064 l 431 1064 m 268 1064 l 319 1275 l 424 1275 l 342 1064 l 268 1064 m 328 -7 q 251 8 297 -7 q 158 56 204 24 q 82 140 113 88 q 51 268 51 193 l 51 972 l 164 972 l 164 268 q 183 193 164 225 q 232 142 203 161 q 288 113 261 122 q 328 104 314 104 l 328 -7 m 396 -7 l 396 104 q 438 113 411 104 q 492 140 464 121 q 541 191 521 160 q 561 268 561 222 l 561 972 l 672 972 l 672 268 q 642 140 672 193 q 566 55 611 88 q 474 8 521 22 q 396 -7 428 -7 z "},"Ū":{"ha":724,"x_min":51,"x_max":672,"o":"m 136 1064 l 136 1133 l 575 1133 l 575 1064 l 136 1064 m 328 -7 q 251 8 297 -7 q 158 56 204 24 q 82 140 113 88 q 51 268 51 193 l 51 972 l 164 972 l 164 268 q 183 193 164 225 q 232 142 203 161 q 288 113 261 122 q 328 104 314 104 l 328 -7 m 396 -7 l 396 104 q 438 113 411 104 q 492 140 464 121 q 541 191 521 160 q 561 268 561 222 l 561 972 l 672 972 l 672 268 q 642 140 672 193 q 566 55 611 88 q 474 8 521 22 q 396 -7 428 -7 z "},"Ų":{"ha":724,"x_min":51,"x_max":672,"o":"m 524 -254 q 399 -223 446 -254 q 333 -146 353 -192 q 313 -56 313 -100 l 397 -56 q 435 -142 397 -112 q 524 -172 472 -172 l 524 -254 m 328 -7 q 251 8 297 -7 q 158 56 204 24 q 82 140 113 88 q 51 268 51 193 l 51 972 l 164 972 l 164 268 q 183 193 164 225 q 232 142 203 161 q 288 113 261 122 q 328 104 314 104 l 328 -7 m 396 -7 l 396 104 q 438 113 411 104 q 492 140 464 121 q 541 191 521 160 q 561 268 561 222 l 561 972 l 672 972 l 672 268 q 642 140 672 193 q 566 55 611 88 q 474 8 521 22 q 396 -7 428 -7 z "},"Ů":{"ha":724,"x_min":51,"x_max":672,"o":"m 356 1088 q 278 1119 310 1088 q 246 1197 246 1151 q 278 1275 246 1243 q 356 1307 310 1307 q 433 1275 401 1307 q 465 1197 465 1243 q 433 1119 465 1151 q 356 1088 401 1088 m 356 1153 q 388 1166 375 1153 q 400 1197 400 1179 q 388 1229 400 1217 q 356 1242 375 1242 q 324 1229 338 1242 q 311 1197 311 1217 q 324 1166 311 1179 q 356 1153 338 1153 m 328 -7 q 251 8 297 -7 q 158 56 204 24 q 82 140 113 88 q 51 268 51 193 l 51 972 l 164 972 l 164 268 q 183 193 164 225 q 232 142 203 161 q 288 113 261 122 q 328 104 314 104 l 328 -7 m 396 -7 l 396 104 q 438 113 411 104 q 492 140 464 121 q 541 191 521 160 q 561 268 561 222 l 561 972 l 672 972 l 672 268 q 642 140 672 193 q 566 55 611 88 q 474 8 521 22 q 396 -7 428 -7 z "},"V":{"ha":658,"x_min":13,"x_max":646,"o":"m 294 0 l 13 972 l 125 972 l 375 117 l 335 0 l 294 0 m 399 257 l 350 424 l 533 972 l 646 972 l 413 257 l 399 257 z "},"W":{"ha":1100,"x_min":14,"x_max":1086,"o":"m 296 0 l 14 972 l 126 972 l 374 125 l 335 0 l 296 0 m 756 0 l 490 972 l 603 972 l 835 119 l 794 0 l 756 0 m 393 269 l 344 438 l 490 972 l 603 972 l 407 269 l 393 269 m 865 269 l 815 436 l 974 972 l 1086 972 l 879 269 l 865 269 z "},"X":{"ha":639,"x_min":33,"x_max":606,"o":"m 33 0 l 265 503 l 50 972 l 158 972 l 319 636 l 481 972 l 589 972 l 374 503 l 606 0 l 493 0 l 319 364 l 146 0 l 33 0 z "},"Y":{"ha":657,"x_min":32,"x_max":625,"o":"m 258 0 l 258 350 l 32 972 l 147 972 l 372 351 l 372 0 l 258 0 m 408 443 l 356 611 l 510 972 l 625 972 l 417 443 l 408 443 z "},"Ý":{"ha":657,"x_min":32,"x_max":625,"o":"m 276 1064 l 328 1275 l 432 1275 l 350 1064 l 276 1064 m 258 0 l 258 350 l 32 972 l 147 972 l 372 351 l 372 0 l 258 0 m 408 443 l 356 611 l 510 972 l 625 972 l 417 443 l 408 443 z "},"Ÿ":{"ha":657,"x_min":32,"x_max":625,"o":"m 403 1064 q 358 1083 376 1064 q 339 1129 339 1103 q 358 1174 339 1156 q 403 1193 376 1193 q 449 1174 431 1193 q 468 1129 468 1156 q 449 1083 468 1103 q 403 1064 431 1064 m 225 1064 q 179 1083 199 1064 q 160 1129 160 1103 q 179 1174 160 1156 q 225 1193 199 1193 q 270 1174 251 1193 q 289 1129 289 1156 q 270 1083 289 1103 q 225 1064 251 1064 m 258 0 l 258 350 l 32 972 l 147 972 l 372 351 l 372 0 l 258 0 m 408 443 l 356 611 l 510 972 l 625 972 l 417 443 l 408 443 z "},"Z":{"ha":610,"x_min":50,"x_max":560,"o":"m 50 0 l 50 107 l 436 863 l 50 863 l 50 972 l 558 972 l 558 867 l 172 111 l 560 111 l 558 0 l 50 0 z "},"Ź":{"ha":610,"x_min":50,"x_max":560,"o":"m 260 1064 l 311 1275 l 415 1275 l 333 1064 l 260 1064 m 50 0 l 50 107 l 436 863 l 50 863 l 50 972 l 558 972 l 558 867 l 172 111 l 560 111 l 558 0 l 50 0 z "},"Ž":{"ha":610,"x_min":50,"x_max":560,"o":"m 264 1064 l 158 1275 l 233 1275 l 296 1149 l 357 1275 l 432 1275 l 326 1064 l 264 1064 m 50 0 l 50 107 l 436 863 l 50 863 l 50 972 l 558 972 l 558 867 l 172 111 l 560 111 l 558 0 l 50 0 z "},"Ż":{"ha":610,"x_min":50,"x_max":560,"o":"m 296 1064 q 249 1083 268 1064 q 229 1131 229 1103 q 249 1179 229 1160 q 296 1199 268 1199 q 344 1179 325 1199 q 363 1131 363 1160 q 344 1083 363 1103 q 296 1064 325 1064 m 50 0 l 50 107 l 436 863 l 50 863 l 50 972 l 558 972 l 558 867 l 172 111 l 560 111 l 558 0 l 50 0 z "},"a":{"ha":649,"x_min":47,"x_max":601,"o":"m 271 1 q 151 27 201 1 q 74 93 101 53 q 47 174 47 133 l 47 240 q 51 284 47 261 q 71 331 56 307 q 118 371 86 354 q 181 394 140 382 q 269 417 222 406 q 360 443 317 429 q 431 472 403 457 q 460 503 460 486 l 460 529 q 441 595 460 568 q 395 637 422 622 q 338 651 368 651 l 338 749 q 465 715 415 749 q 540 630 515 681 q 564 532 564 579 l 564 149 q 570 122 564 140 q 601 103 576 103 l 601 1 q 535 15 560 1 q 492 50 510 29 q 424 13 465 25 q 339 1 382 1 l 339 101 q 398 112 371 101 q 442 147 425 122 q 460 215 460 172 l 460 379 q 387 351 431 364 q 296 328 343 339 q 211 308 249 318 q 160 283 174 297 q 143 239 143 271 l 143 199 q 161 142 144 164 q 206 111 178 121 q 271 101 235 101 l 271 1 m 153 525 l 57 561 q 89 658 57 615 q 170 724 121 700 q 272 749 219 749 l 272 649 q 213 634 240 649 q 169 592 186 619 q 153 525 153 564 z "},"á":{"ha":649,"x_min":47,"x_max":601,"o":"m 256 835 l 307 1046 l 411 1046 l 329 835 l 256 835 m 271 1 q 151 27 201 1 q 74 93 101 53 q 47 174 47 133 l 47 240 q 51 284 47 261 q 71 331 56 307 q 118 371 86 354 q 181 394 140 382 q 269 417 222 406 q 360 443 317 429 q 431 472 403 457 q 460 503 460 486 l 460 529 q 441 595 460 568 q 395 637 422 622 q 338 651 368 651 l 338 749 q 465 715 415 749 q 540 630 515 681 q 564 532 564 579 l 564 149 q 570 122 564 140 q 601 103 576 103 l 601 1 q 535 15 560 1 q 492 50 510 29 q 424 13 465 25 q 339 1 382 1 l 339 101 q 398 112 371 101 q 442 147 425 122 q 460 215 460 172 l 460 379 q 387 351 431 364 q 296 328 343 339 q 211 308 249 318 q 160 283 174 297 q 143 239 143 271 l 143 199 q 161 142 144 164 q 206 111 178 121 q 271 101 235 101 l 271 1 m 153 525 l 57 561 q 89 658 57 615 q 170 724 121 700 q 272 749 219 749 l 272 649 q 213 634 240 649 q 169 592 186 619 q 153 525 153 564 z "},"ă":{"ha":649,"x_min":47,"x_max":601,"o":"m 293 833 q 236 850 260 833 q 199 892 213 867 q 186 939 186 917 l 249 939 q 262 908 249 921 q 293 894 275 894 q 325 908 313 894 q 338 939 338 921 l 400 939 q 387 892 400 917 q 350 850 374 867 q 293 833 326 833 m 271 1 q 151 27 201 1 q 74 93 101 53 q 47 174 47 133 l 47 240 q 51 284 47 261 q 71 331 56 307 q 118 371 86 354 q 181 394 140 382 q 269 417 222 406 q 360 443 317 429 q 431 472 403 457 q 460 503 460 486 l 460 529 q 441 595 460 568 q 395 637 422 622 q 338 651 368 651 l 338 749 q 465 715 415 749 q 540 630 515 681 q 564 532 564 579 l 564 149 q 570 122 564 140 q 601 103 576 103 l 601 1 q 535 15 560 1 q 492 50 510 29 q 424 13 465 25 q 339 1 382 1 l 339 101 q 398 112 371 101 q 442 147 425 122 q 460 215 460 172 l 460 379 q 387 351 431 364 q 296 328 343 339 q 211 308 249 318 q 160 283 174 297 q 143 239 143 271 l 143 199 q 161 142 144 164 q 206 111 178 121 q 271 101 235 101 l 271 1 m 153 525 l 57 561 q 89 658 57 615 q 170 724 121 700 q 272 749 219 749 l 272 649 q 213 634 240 649 q 169 592 186 619 q 153 525 153 564 z "},"â":{"ha":649,"x_min":47,"x_max":601,"o":"m 156 835 l 260 1046 l 324 1046 l 429 835 l 354 835 l 292 961 l 231 835 l 156 835 m 271 1 q 151 27 201 1 q 74 93 101 53 q 47 174 47 133 l 47 240 q 51 284 47 261 q 71 331 56 307 q 118 371 86 354 q 181 394 140 382 q 269 417 222 406 q 360 443 317 429 q 431 472 403 457 q 460 503 460 486 l 460 529 q 441 595 460 568 q 395 637 422 622 q 338 651 368 651 l 338 749 q 465 715 415 749 q 540 630 515 681 q 564 532 564 579 l 564 149 q 570 122 564 140 q 601 103 576 103 l 601 1 q 535 15 560 1 q 492 50 510 29 q 424 13 465 25 q 339 1 382 1 l 339 101 q 398 112 371 101 q 442 147 425 122 q 460 215 460 172 l 460 379 q 387 351 431 364 q 296 328 343 339 q 211 308 249 318 q 160 283 174 297 q 143 239 143 271 l 143 199 q 161 142 144 164 q 206 111 178 121 q 271 101 235 101 l 271 1 m 153 525 l 57 561 q 89 658 57 615 q 170 724 121 700 q 272 749 219 749 l 272 649 q 213 634 240 649 q 169 592 186 619 q 153 525 153 564 z "},"´":{"ha":476,"x_min":160,"x_max":315,"o":"m 160 840 l 211 1051 l 315 1051 l 233 840 l 160 840 z "},"ä":{"ha":649,"x_min":47,"x_max":601,"o":"m 382 833 q 337 853 356 833 q 318 899 318 872 q 337 944 318 925 q 382 963 356 963 q 428 944 410 963 q 447 899 447 925 q 428 853 447 872 q 382 833 410 833 m 204 833 q 158 853 178 833 q 139 899 139 872 q 158 944 139 925 q 204 963 178 963 q 249 944 231 963 q 268 899 268 925 q 249 853 268 872 q 204 833 231 833 m 271 1 q 151 27 201 1 q 74 93 101 53 q 47 174 47 133 l 47 240 q 51 284 47 261 q 71 331 56 307 q 118 371 86 354 q 181 394 140 382 q 269 417 222 406 q 360 443 317 429 q 431 472 403 457 q 460 503 460 486 l 460 529 q 441 595 460 568 q 395 637 422 622 q 338 651 368 651 l 338 749 q 465 715 415 749 q 540 630 515 681 q 564 532 564 579 l 564 149 q 570 122 564 140 q 601 103 576 103 l 601 1 q 535 15 560 1 q 492 50 510 29 q 424 13 465 25 q 339 1 382 1 l 339 101 q 398 112 371 101 q 442 147 425 122 q 460 215 460 172 l 460 379 q 387 351 431 364 q 296 328 343 339 q 211 308 249 318 q 160 283 174 297 q 143 239 143 271 l 143 199 q 161 142 144 164 q 206 111 178 121 q 271 101 235 101 l 271 1 m 153 525 l 57 561 q 89 658 57 615 q 170 724 121 700 q 272 749 219 749 l 272 649 q 213 634 240 649 q 169 592 186 619 q 153 525 153 564 z "},"æ":{"ha":732,"x_min":36,"x_max":953,"o":"m 692 0 q 570 22 624 0 q 488 83 517 43 q 417 19 461 39 q 317 1 372 0 l 317 96 q 376 106 350 96 q 419 141 403 117 q 435 207 435 165 l 435 383 q 381 357 417 368 q 301 335 344 346 q 217 312 257 325 q 152 278 178 299 q 126 225 126 257 l 126 201 q 144 138 126 161 q 190 106 161 115 q 251 96 219 96 l 251 1 q 137 25 185 1 q 63 86 89 49 q 36 163 36 124 l 36 231 q 65 311 36 279 q 140 364 94 343 q 235 399 185 385 q 331 427 286 414 q 406 456 376 440 q 435 497 435 472 l 435 525 q 415 578 435 554 q 360 616 394 601 q 286 631 326 631 q 215 618 250 631 q 157 578 179 606 q 135 507 135 551 l 51 532 q 85 634 51 592 q 173 699 118 676 q 290 722 228 722 q 403 700 351 722 q 488 633 454 678 q 557 692 514 667 q 661 717 600 717 l 661 621 q 594 603 624 621 q 549 557 565 585 q 533 501 533 529 l 533 418 l 854 418 l 854 507 q 835 566 854 540 q 787 607 817 592 q 725 622 757 622 l 725 717 q 830 690 778 717 q 917 621 882 664 q 951 525 951 578 l 951 321 l 533 321 l 533 206 q 556 146 533 172 q 617 105 579 119 q 700 90 656 90 q 806 118 758 90 q 867 199 853 146 l 953 167 q 863 43 931 86 q 692 0 796 0 z "},"à":{"ha":649,"x_min":47,"x_max":601,"o":"m 253 835 l 172 1046 l 276 1046 l 328 835 l 253 835 m 271 1 q 151 27 201 1 q 74 93 101 53 q 47 174 47 133 l 47 240 q 51 284 47 261 q 71 331 56 307 q 118 371 86 354 q 181 394 140 382 q 269 417 222 406 q 360 443 317 429 q 431 472 403 457 q 460 503 460 486 l 460 529 q 441 595 460 568 q 395 637 422 622 q 338 651 368 651 l 338 749 q 465 715 415 749 q 540 630 515 681 q 564 532 564 579 l 564 149 q 570 122 564 140 q 601 103 576 103 l 601 1 q 535 15 560 1 q 492 50 510 29 q 424 13 465 25 q 339 1 382 1 l 339 101 q 398 112 371 101 q 442 147 425 122 q 460 215 460 172 l 460 379 q 387 351 431 364 q 296 328 343 339 q 211 308 249 318 q 160 283 174 297 q 143 239 143 271 l 143 199 q 161 142 144 164 q 206 111 178 121 q 271 101 235 101 l 271 1 m 153 525 l 57 561 q 89 658 57 615 q 170 724 121 700 q 272 749 219 749 l 272 649 q 213 634 240 649 q 169 592 186 619 q 153 525 153 564 z "},"ā":{"ha":649,"x_min":47,"x_max":601,"o":"m 90 835 l 90 904 l 529 904 l 529 835 l 90 835 m 271 1 q 151 27 201 1 q 74 93 101 53 q 47 174 47 133 l 47 240 q 51 284 47 261 q 71 331 56 307 q 118 371 86 354 q 181 394 140 382 q 269 417 222 406 q 360 443 317 429 q 431 472 403 457 q 460 503 460 486 l 460 529 q 441 595 460 568 q 395 637 422 622 q 338 651 368 651 l 338 749 q 465 715 415 749 q 540 630 515 681 q 564 532 564 579 l 564 149 q 570 122 564 140 q 601 103 576 103 l 601 1 q 535 15 560 1 q 492 50 510 29 q 424 13 465 25 q 339 1 382 1 l 339 101 q 398 112 371 101 q 442 147 425 122 q 460 215 460 172 l 460 379 q 387 351 431 364 q 296 328 343 339 q 211 308 249 318 q 160 283 174 297 q 143 239 143 271 l 143 199 q 161 142 144 164 q 206 111 178 121 q 271 101 235 101 l 271 1 m 153 525 l 57 561 q 89 658 57 615 q 170 724 121 700 q 272 749 219 749 l 272 649 q 213 634 240 649 q 169 592 186 619 q 153 525 153 564 z "},"&":{"ha":896,"x_min":50,"x_max":846,"o":"m 731 13 l 235 553 q 171 642 192 603 q 150 736 150 682 q 178 852 150 800 q 256 938 207 904 q 368 981 306 972 l 368 875 q 315 855 342 872 q 272 808 289 838 q 256 739 256 779 q 266 690 256 711 q 292 651 276 668 q 318 621 307 635 l 617 296 q 652 346 635 315 q 681 411 669 376 q 692 479 692 446 l 804 479 q 786 373 803 424 q 746 281 769 322 q 696 208 722 240 l 846 43 l 731 13 m 353 -1 q 203 36 272 -1 q 92 141 135 74 q 50 296 50 208 q 78 419 50 361 q 160 522 107 478 l 235 438 q 203 406 221 426 q 174 358 186 386 q 161 293 161 331 q 189 196 161 238 q 262 132 217 154 q 356 110 307 110 q 428 124 392 110 q 490 165 464 138 l 564 82 q 464 19 518 40 q 353 -1 410 -1 m 557 750 q 540 801 554 775 q 503 849 526 828 q 444 875 479 869 l 444 981 q 585 914 526 971 q 658 776 643 857 l 557 750 z "},"ą":{"ha":649,"x_min":47,"x_max":668,"o":"m 668 -254 q 544 -223 590 -254 q 477 -146 497 -192 q 457 -56 457 -100 l 542 -56 q 579 -142 542 -112 q 668 -172 617 -172 l 668 -254 m 271 1 q 151 27 201 1 q 74 93 101 53 q 47 174 47 133 l 47 240 q 51 284 47 261 q 71 331 56 307 q 118 371 86 354 q 181 394 140 382 q 269 417 222 406 q 360 443 317 429 q 431 472 403 457 q 460 503 460 486 l 460 529 q 441 595 460 568 q 395 637 422 622 q 338 651 368 651 l 338 749 q 465 715 415 749 q 540 630 515 681 q 564 532 564 579 l 564 149 q 570 122 564 140 q 601 103 576 103 l 601 1 q 535 15 560 1 q 492 50 510 29 q 424 13 465 25 q 339 1 382 1 l 339 101 q 398 112 371 101 q 442 147 425 122 q 460 215 460 172 l 460 379 q 387 351 431 364 q 296 328 343 339 q 211 308 249 318 q 160 283 174 297 q 143 239 143 271 l 143 199 q 161 142 144 164 q 206 111 178 121 q 271 101 235 101 l 271 1 m 153 525 l 57 561 q 89 658 57 615 q 170 724 121 700 q 272 749 219 749 l 272 649 q 213 634 240 649 q 169 592 186 619 q 153 525 153 564 z "},"≈":{"ha":789,"x_min":69,"x_max":719,"o":"m 529 507 q 443 522 482 507 q 369 558 404 538 q 297 593 333 578 q 218 608 261 608 q 151 597 188 608 q 69 558 114 586 l 69 663 q 156 701 117 690 q 226 711 194 711 q 309 696 272 711 q 381 660 346 681 q 454 625 417 640 q 538 610 492 610 q 619 624 574 610 q 719 672 664 638 l 719 571 q 615 522 661 536 q 529 507 568 507 m 529 257 q 443 272 482 257 q 369 308 404 288 q 297 343 333 328 q 218 358 261 358 q 151 347 188 358 q 69 308 114 336 l 69 413 q 156 451 117 440 q 226 461 194 461 q 309 446 272 461 q 381 410 346 431 q 454 375 417 390 q 538 360 492 360 q 619 374 574 360 q 719 422 664 388 l 719 321 q 615 272 661 286 q 529 257 568 257 z "},"å":{"ha":649,"x_min":47,"x_max":601,"o":"m 303 858 q 225 890 257 858 q 193 968 193 922 q 225 1046 193 1014 q 303 1078 257 1078 q 381 1046 349 1078 q 413 968 413 1014 q 381 890 413 922 q 303 858 349 858 m 303 924 q 335 937 322 924 q 347 968 347 950 q 335 1000 347 988 q 303 1013 322 1013 q 272 1000 285 1013 q 258 968 258 988 q 272 937 258 950 q 303 924 285 924 m 271 1 q 151 27 201 1 q 74 93 101 53 q 47 174 47 133 l 47 240 q 51 284 47 261 q 71 331 56 307 q 118 371 86 354 q 181 394 140 382 q 269 417 222 406 q 360 443 317 429 q 431 472 403 457 q 460 503 460 486 l 460 529 q 441 595 460 568 q 395 637 422 622 q 338 651 368 651 l 338 749 q 465 715 415 749 q 540 630 515 681 q 564 532 564 579 l 564 149 q 570 122 564 140 q 601 103 576 103 l 601 1 q 535 15 560 1 q 492 50 510 29 q 424 13 465 25 q 339 1 382 1 l 339 101 q 398 112 371 101 q 442 147 425 122 q 460 215 460 172 l 460 379 q 387 351 431 364 q 296 328 343 339 q 211 308 249 318 q 160 283 174 297 q 143 239 143 271 l 143 199 q 161 142 144 164 q 206 111 178 121 q 271 101 235 101 l 271 1 m 153 525 l 57 561 q 89 658 57 615 q 170 724 121 700 q 272 749 219 749 l 272 649 q 213 634 240 649 q 169 592 186 619 q 153 525 153 564 z "},"^":{"ha":636,"x_min":75,"x_max":561,"o":"m 75 639 l 282 1050 l 354 1050 l 561 639 l 458 639 l 317 921 l 176 639 l 75 639 z "},"~":{"ha":872,"x_min":111,"x_max":761,"o":"m 571 367 q 485 382 524 367 q 410 417 446 397 q 339 453 375 438 q 260 468 303 468 q 192 457 229 468 q 111 418 156 446 l 111 524 q 197 562 158 551 q 268 572 236 572 q 351 557 314 572 q 423 522 388 542 q 496 486 458 501 q 579 471 533 471 q 660 485 615 471 q 761 533 706 499 l 761 431 q 656 381 703 396 q 571 367 610 367 z "},"*":{"ha":476,"x_min":42,"x_max":435,"o":"m 200 664 l 200 810 l 83 729 l 42 788 l 182 881 l 43 971 l 86 1029 l 200 957 l 200 1090 l 274 1090 l 274 951 l 393 1029 l 435 971 l 296 879 l 433 783 l 392 725 l 274 810 l 274 664 l 200 664 z "},"@":{"ha":1088,"x_min":42,"x_max":1044,"o":"m 571 -92 q 356 -53 453 -92 q 188 54 258 -15 q 80 217 118 124 q 42 422 42 310 q 85 640 42 542 q 206 811 129 739 q 385 923 283 883 q 603 963 488 963 q 760 939 682 963 q 902 866 838 915 q 1006 742 967 817 q 1044 567 1044 668 q 1022 414 1044 478 q 965 308 1000 350 q 888 243 929 267 q 808 209 847 219 q 740 199 769 199 q 688 210 713 199 q 648 240 664 222 q 625 272 632 257 q 578 230 614 254 q 490 206 543 206 q 402 233 442 206 q 340 309 363 261 q 318 417 318 357 q 358 567 318 506 q 455 659 397 628 q 567 690 513 690 q 628 681 604 690 q 665 660 651 672 q 686 640 679 647 l 696 672 l 775 672 l 713 428 q 706 401 710 417 q 700 369 701 385 q 704 341 699 358 q 724 310 710 324 q 760 297 739 297 q 813 310 781 297 q 875 353 844 324 q 926 435 906 383 q 946 565 946 486 q 916 696 946 639 q 836 791 886 753 q 726 849 786 829 q 606 868 665 868 q 434 837 517 868 q 286 748 351 806 q 181 608 221 690 q 142 425 142 526 q 197 204 142 300 q 349 54 253 108 q 571 0 446 0 q 756 31 668 0 q 926 119 843 61 l 969 40 q 860 -27 922 3 q 725 -74 799 -57 q 571 -92 651 -92 z "},"ã":{"ha":649,"x_min":47,"x_max":601,"o":"m 379 835 q 314 849 343 835 q 258 876 285 863 q 197 890 231 890 q 156 883 179 890 q 106 860 133 876 l 106 949 q 159 972 135 965 q 203 979 183 979 q 267 965 239 979 q 322 937 294 951 q 385 922 350 922 q 435 931 408 922 q 496 961 461 940 l 496 874 q 432 843 461 851 q 379 835 403 835 m 271 1 q 151 27 201 1 q 74 93 101 53 q 47 174 47 133 l 47 240 q 51 284 47 261 q 71 331 56 307 q 118 371 86 354 q 181 394 140 382 q 269 417 222 406 q 360 443 317 429 q 431 472 403 457 q 460 503 460 486 l 460 529 q 441 595 460 568 q 395 637 422 622 q 338 651 368 651 l 338 749 q 465 715 415 749 q 540 630 515 681 q 564 532 564 579 l 564 149 q 570 122 564 140 q 601 103 576 103 l 601 1 q 535 15 560 1 q 492 50 510 29 q 424 13 465 25 q 339 1 382 1 l 339 101 q 398 112 371 101 q 442 147 425 122 q 460 215 460 172 l 460 379 q 387 351 431 364 q 296 328 343 339 q 211 308 249 318 q 160 283 174 297 q 143 239 143 271 l 143 199 q 161 142 144 164 q 206 111 178 121 q 271 101 235 101 l 271 1 m 153 525 l 57 561 q 89 658 57 615 q 170 724 121 700 q 272 749 219 749 l 272 649 q 213 634 240 649 q 169 592 186 619 q 153 525 153 564 z "},"b":{"ha":615,"x_min":57,"x_max":574,"o":"m 233 0 l 233 104 l 351 104 q 408 119 381 104 q 451 159 435 135 q 468 207 468 183 l 468 540 q 452 588 468 564 q 410 627 436 611 q 353 643 385 643 l 233 643 l 233 747 l 353 747 q 442 728 401 747 q 513 678 483 708 q 558 613 542 647 q 574 546 574 578 l 574 204 q 560 144 574 179 q 519 77 547 110 q 449 22 492 44 q 350 0 407 0 l 233 0 m 57 0 l 57 981 l 167 981 l 167 0 l 57 0 z "},"\\":{"ha":461,"x_min":57,"x_max":404,"o":"m 299 -32 l 57 994 l 161 994 l 404 -32 l 299 -32 z "},"|":{"ha":226,"x_min":69,"x_max":157,"o":"m 69 -186 l 69 1047 l 157 1047 l 157 -186 l 69 -186 z "},"{":{"ha":344,"x_min":21,"x_max":317,"o":"m 317 -53 q 232 -43 271 -53 q 165 -6 193 -33 q 122 77 136 22 q 107 222 107 132 l 107 403 q 83 450 107 436 q 21 483 58 464 q 82 513 58 499 q 107 567 106 528 l 107 744 q 122 890 107 835 q 163 973 136 944 q 229 1011 190 1001 q 317 1021 268 1021 l 317 938 q 259 927 281 938 q 228 887 238 917 q 215 801 218 857 q 211 651 211 744 l 211 532 q 199 502 211 514 q 161 483 186 490 q 199 460 188 475 q 211 422 211 444 l 211 288 q 218 149 211 201 q 238 72 225 97 q 272 38 251 46 q 317 31 292 31 l 317 -53 z "},"}":{"ha":344,"x_min":28,"x_max":324,"o":"m 28 -53 l 28 31 q 73 38 53 31 q 106 72 93 46 q 126 150 119 99 q 133 288 133 201 l 133 422 q 145 460 133 444 q 183 483 157 475 q 146 502 158 490 q 133 532 133 514 l 133 651 q 131 801 133 744 q 117 887 128 857 q 86 927 107 917 q 28 938 65 938 l 28 1021 q 115 1011 76 1021 q 182 973 154 1001 q 224 890 210 944 q 239 744 239 835 l 239 567 q 263 513 239 528 q 324 483 286 499 q 262 450 286 464 q 238 403 238 436 l 238 222 q 223 79 238 133 q 180 -3 208 25 q 113 -42 151 -32 q 28 -53 75 -53 z "},"[":{"ha":293,"x_min":69,"x_max":244,"o":"m 69 -50 l 69 1026 l 244 1026 l 244 933 l 178 933 l 174 43 l 244 43 l 244 -50 l 69 -50 z "},"]":{"ha":289,"x_min":50,"x_max":224,"o":"m 50 -50 l 50 43 l 119 43 l 115 933 l 50 933 l 50 1026 l 224 1026 l 224 -50 l 50 -50 z "},"˘":{"ha":339,"x_min":63,"x_max":276,"o":"m 169 625 q 113 642 136 625 q 76 683 89 658 q 63 731 63 708 l 125 731 q 138 699 125 713 q 169 686 151 686 q 201 699 189 686 q 214 731 214 713 l 276 731 q 263 683 276 708 q 226 642 250 658 q 169 625 203 625 z "},"¦":{"ha":229,"x_min":58,"x_max":160,"o":"m 58 558 l 58 1053 l 160 1053 l 160 558 l 58 558 m 58 -189 l 58 304 l 160 304 l 160 -189 l 58 -189 z "},"•":{"ha":489,"x_min":111,"x_max":378,"o":"m 244 346 q 177 363 207 346 q 129 410 147 381 q 111 479 111 440 q 129 547 111 517 q 177 594 147 576 q 244 613 207 613 q 312 594 282 613 q 360 547 342 576 q 378 479 378 517 q 360 411 378 442 q 312 363 342 381 q 244 346 282 346 z "},"c":{"ha":614,"x_min":56,"x_max":578,"o":"m 286 0 q 176 22 221 0 q 106 76 132 43 q 67 144 79 110 q 56 204 56 178 l 56 542 q 69 606 56 571 q 112 674 83 642 q 184 726 140 706 q 286 747 228 747 l 286 644 q 219 626 247 644 q 176 585 190 608 q 161 538 161 561 l 161 204 q 176 158 161 182 q 219 118 192 133 q 286 103 247 103 l 286 0 m 347 -1 l 347 101 q 409 116 381 101 q 456 156 438 131 q 476 217 474 182 l 476 246 l 578 208 q 544 103 578 151 q 458 27 511 56 q 347 -1 406 -1 m 461 501 l 460 533 q 441 596 458 572 q 399 631 424 619 q 349 643 374 643 l 349 747 q 456 719 407 747 q 533 643 504 690 q 561 539 561 596 l 461 501 z "},"ć":{"ha":614,"x_min":56,"x_max":578,"o":"m 279 831 l 331 1042 l 435 1042 l 353 831 l 279 831 m 286 0 q 176 22 221 0 q 106 76 132 43 q 67 144 79 110 q 56 204 56 178 l 56 542 q 69 606 56 571 q 112 674 83 642 q 184 726 140 706 q 286 747 228 747 l 286 644 q 219 626 247 644 q 176 585 190 608 q 161 538 161 561 l 161 204 q 176 158 161 182 q 219 118 192 133 q 286 103 247 103 l 286 0 m 347 -1 l 347 101 q 409 116 381 101 q 456 156 438 131 q 476 217 474 182 l 476 246 l 578 208 q 544 103 578 151 q 458 27 511 56 q 347 -1 406 -1 m 461 501 l 460 533 q 441 596 458 572 q 399 631 424 619 q 349 643 374 643 l 349 747 q 456 719 407 747 q 533 643 504 690 q 561 539 561 596 l 461 501 z "},"ˇ":{"ha":375,"x_min":50,"x_max":324,"o":"m 156 714 l 50 925 l 125 925 l 188 799 l 249 925 l 324 925 l 218 714 l 156 714 z "},"č":{"ha":614,"x_min":56,"x_max":578,"o":"m 285 831 l 179 1042 l 254 1042 l 317 915 l 378 1042 l 453 1042 l 347 831 l 285 831 m 286 0 q 176 22 221 0 q 106 76 132 43 q 67 144 79 110 q 56 204 56 178 l 56 542 q 69 606 56 571 q 112 674 83 642 q 184 726 140 706 q 286 747 228 747 l 286 644 q 219 626 247 644 q 176 585 190 608 q 161 538 161 561 l 161 204 q 176 158 161 182 q 219 118 192 133 q 286 103 247 103 l 286 0 m 347 -1 l 347 101 q 409 116 381 101 q 456 156 438 131 q 476 217 474 182 l 476 246 l 578 208 q 544 103 578 151 q 458 27 511 56 q 347 -1 406 -1 m 461 501 l 460 533 q 441 596 458 572 q 399 631 424 619 q 349 643 374 643 l 349 747 q 456 719 407 747 q 533 643 504 690 q 561 539 561 596 l 461 501 z "},"ç":{"ha":614,"x_min":56,"x_max":578,"o":"m 151 -254 l 151 -172 q 240 -142 203 -172 q 278 -56 278 -112 l 363 -56 q 342 -146 363 -100 q 276 -223 322 -192 q 151 -254 229 -254 m 286 0 q 176 22 221 0 q 106 76 132 43 q 67 144 79 110 q 56 204 56 178 l 56 542 q 69 606 56 571 q 112 674 83 642 q 184 726 140 706 q 286 747 228 747 l 286 644 q 219 626 247 644 q 176 585 190 608 q 161 538 161 561 l 161 204 q 176 158 161 182 q 219 118 192 133 q 286 103 247 103 l 286 0 m 347 -1 l 347 101 q 409 116 381 101 q 456 156 438 131 q 476 217 474 182 l 476 246 l 578 208 q 544 103 578 151 q 458 27 511 56 q 347 -1 406 -1 m 461 501 l 460 533 q 441 596 458 572 q 399 631 424 619 q 349 643 374 643 l 349 747 q 456 719 407 747 q 533 643 504 690 q 561 539 561 596 l 461 501 z "},"¸":{"ha":569,"x_min":171,"x_max":382,"o":"m 171 -28 l 171 54 q 260 84 222 54 q 297 171 297 114 l 382 171 q 362 81 382 126 q 295 3 342 35 q 171 -28 249 -28 z "},"¢":{"ha":603,"x_min":53,"x_max":575,"o":"m 460 500 l 460 531 q 439 594 457 569 q 396 630 421 618 q 347 642 371 642 l 347 746 q 453 717 406 746 q 531 642 501 689 q 560 538 560 594 l 460 500 m 285 0 q 175 22 219 0 q 104 76 131 43 q 65 144 78 110 q 53 204 53 178 l 53 540 q 67 605 53 569 q 110 672 82 640 q 183 725 139 704 q 285 746 226 746 l 285 643 q 217 624 246 643 q 174 580 189 606 q 160 529 160 554 l 160 210 q 175 164 160 189 q 218 121 190 139 q 285 103 246 103 l 285 0 m 347 -1 l 347 103 q 430 132 392 103 q 475 213 468 161 q 475 231 475 222 q 475 246 475 239 l 575 208 q 542 103 575 151 q 456 27 508 56 q 347 -1 404 -1 m 229 708 l 229 849 l 285 849 l 285 708 l 229 708 m 229 -103 l 229 38 l 285 38 l 285 -103 l 229 -103 m 347 708 l 347 849 l 403 849 l 403 708 l 347 708 m 347 -103 l 347 38 l 403 38 l 403 -103 l 347 -103 z "},"ˆ":{"ha":375,"x_min":50,"x_max":324,"o":"m 50 714 l 154 925 l 218 925 l 324 714 l 249 714 l 186 840 l 125 714 l 50 714 z "},":":{"ha":267,"x_min":69,"x_max":197,"o":"m 133 435 q 90 453 108 435 q 71 499 71 472 q 90 544 71 525 q 133 563 108 563 q 178 544 160 563 q 197 499 197 525 q 178 453 197 472 q 133 435 160 435 m 133 32 q 88 51 107 32 q 69 96 69 69 q 88 141 69 122 q 133 160 107 160 q 178 141 160 160 q 196 96 196 122 q 178 51 196 69 q 133 32 160 32 z "},",":{"ha":278,"x_min":61,"x_max":217,"o":"m 61 -32 l 113 179 l 217 179 l 165 -32 l 61 -32 z "},"©":{"ha":1094,"x_min":49,"x_max":1053,"o":"m 529 -40 q 351 -1 436 -39 q 197 106 265 38 q 89 267 129 174 q 49 471 49 360 q 80 653 49 572 q 163 797 111 735 q 278 899 214 858 q 407 961 342 940 q 529 982 472 982 l 529 907 q 389 877 460 907 q 258 790 318 847 q 160 653 197 733 q 122 472 122 574 q 153 310 122 388 q 240 172 185 233 q 369 76 296 111 q 529 39 443 40 l 529 -40 m 578 -40 l 578 39 q 733 76 660 40 q 861 172 806 111 q 948 309 917 232 q 979 471 979 386 q 944 643 979 564 q 852 781 910 722 q 723 874 794 840 q 578 907 651 907 l 578 982 q 708 958 640 982 q 837 891 775 935 q 948 784 899 847 q 1025 640 997 721 q 1053 464 1053 560 q 1010 264 1051 356 q 902 104 969 172 q 751 -1 835 36 q 578 -40 667 -39 m 664 592 l 664 607 q 650 663 664 640 q 616 697 636 685 q 578 710 596 710 l 578 785 q 658 761 621 785 q 716 700 694 738 q 738 619 738 663 l 664 592 m 529 157 q 444 176 479 157 q 390 223 410 194 q 360 281 369 251 q 351 335 351 311 l 351 606 q 370 682 351 640 q 428 754 389 724 q 529 785 468 785 l 529 710 q 471 692 493 710 q 439 648 449 674 q 429 603 429 622 l 429 335 q 440 288 429 313 q 474 247 451 264 q 529 231 497 231 l 529 157 m 578 156 l 578 231 q 639 259 613 231 q 665 329 665 288 l 665 349 l 740 322 q 717 241 740 279 q 658 179 694 203 q 578 156 621 156 z "},"¤":{"ha":857,"x_min":56,"x_max":788,"o":"m 396 183 q 291 208 335 183 q 219 265 247 232 l 117 174 l 56 242 l 175 350 q 169 372 171 361 q 168 393 168 383 l 168 622 q 170 642 168 631 q 175 665 172 654 l 56 772 l 117 842 l 221 750 q 292 805 249 782 q 396 828 335 828 l 396 731 q 324 711 353 731 q 282 665 296 692 q 268 615 268 639 l 268 397 q 284 348 268 375 q 328 301 300 321 q 396 281 357 281 l 396 183 m 453 183 l 453 281 q 522 300 494 281 q 562 347 549 319 q 575 396 575 374 l 575 614 q 561 665 575 639 q 520 711 547 692 q 453 731 493 731 l 453 828 q 553 805 511 828 q 622 749 596 782 l 726 842 l 788 772 l 667 664 q 672 642 671 653 q 674 621 674 631 l 674 392 q 672 372 674 382 q 667 350 671 361 l 788 242 l 726 174 l 624 264 q 554 207 596 231 q 453 183 513 183 z "},"d":{"ha":613,"x_min":42,"x_max":557,"o":"m 265 0 q 167 22 208 0 q 97 77 125 44 q 56 144 69 110 q 42 204 42 179 l 42 544 q 58 611 42 576 q 103 676 74 646 q 173 726 133 707 q 261 744 213 744 l 379 744 l 379 642 l 263 642 q 206 626 232 642 q 163 585 179 610 q 147 539 147 561 l 147 207 q 165 158 147 182 q 208 119 182 135 q 264 104 235 104 l 379 104 l 379 0 l 265 0 m 446 0 l 446 981 l 557 981 l 556 0 l 446 0 z "},"†":{"ha":629,"x_min":36,"x_max":593,"o":"m 258 -78 l 258 661 l 36 661 l 36 763 l 258 763 l 258 1061 l 369 1061 l 369 763 l 593 763 l 593 661 l 369 661 l 369 -78 l 258 -78 z "},"‡":{"ha":629,"x_min":36,"x_max":593,"o":"m 260 -78 l 260 218 l 36 218 l 36 319 l 260 319 l 260 664 l 36 664 l 36 765 l 260 765 l 260 1061 l 371 1061 l 371 765 l 593 765 l 593 664 l 371 664 l 371 319 l 593 319 l 593 218 l 371 218 l 371 -78 l 260 -78 z "},"ď":{"ha":613,"x_min":42,"x_max":824,"o":"m 669 793 l 721 1004 l 825 1004 l 774 793 l 669 793 m 265 0 q 167 22 208 0 q 97 77 125 44 q 56 144 69 110 q 42 204 42 179 l 42 544 q 58 611 42 576 q 103 676 74 646 q 173 726 133 707 q 261 744 213 744 l 379 744 l 379 642 l 263 642 q 206 626 232 642 q 163 585 179 610 q 147 539 147 561 l 147 207 q 165 158 147 182 q 208 119 182 135 q 264 104 235 104 l 379 104 l 379 0 l 265 0 m 446 0 l 446 981 l 557 981 l 556 0 l 446 0 z "},"đ":{"ha":575,"x_min":39,"x_max":622,"o":"m 431 0 l 431 806 l 331 806 l 331 890 l 431 890 l 431 981 l 533 981 l 533 890 l 622 890 l 622 806 l 533 806 l 533 0 l 431 0 m 254 0 q 158 21 199 0 q 92 74 118 42 q 52 139 65 106 q 39 196 39 172 l 39 524 q 54 588 39 554 q 98 651 69 622 q 165 699 126 681 q 250 717 203 717 l 365 717 l 365 619 l 251 619 q 195 603 221 619 q 153 565 169 588 q 138 518 138 542 l 138 199 q 155 151 138 175 q 198 113 172 128 q 251 97 224 97 l 365 97 l 365 0 l 254 0 z "},"°":{"ha":342,"x_min":49,"x_max":293,"o":"m 171 689 q 110 705 138 689 q 65 749 82 721 q 49 810 49 776 q 65 871 49 843 q 110 915 82 899 q 171 931 138 931 q 232 915 204 931 q 276 871 260 899 q 293 810 293 843 q 276 749 293 776 q 232 705 260 721 q 171 689 204 689 m 169 757 q 208 772 193 757 q 224 810 224 788 q 208 849 224 833 q 169 864 193 864 q 132 849 147 864 q 117 810 117 833 q 132 772 117 788 q 169 757 147 757 z "},"¨":{"ha":461,"x_min":76,"x_max":385,"o":"m 319 878 q 274 897 293 878 q 256 943 256 917 q 274 988 256 969 q 319 1007 293 1007 q 366 988 347 1007 q 385 943 385 969 q 366 897 385 917 q 319 878 347 878 m 142 878 q 96 897 115 878 q 76 943 76 917 q 96 988 76 969 q 142 1007 115 1007 q 187 988 168 1007 q 206 943 206 969 q 187 897 206 917 q 142 878 168 878 z "},"÷":{"ha":903,"x_min":121,"x_max":746,"o":"m 121 354 l 121 457 l 746 457 l 746 354 l 121 354 m 446 538 q 393 560 415 538 q 371 613 371 582 q 393 665 371 643 q 446 686 415 686 q 498 665 476 686 q 519 613 519 643 q 498 560 519 582 q 446 538 476 538 m 446 144 q 393 166 415 144 q 371 218 371 188 q 393 272 371 250 q 446 293 415 293 q 498 272 476 293 q 519 218 519 250 q 498 166 519 188 q 446 144 476 144 z "},"$":{"ha":701,"x_min":44,"x_max":657,"o":"m 371 -65 l 371 100 q 422 113 393 100 q 480 150 451 126 q 527 208 508 174 q 546 286 546 242 q 520 366 546 336 q 454 413 494 396 q 371 439 414 429 l 371 554 q 428 540 401 547 q 479 524 456 533 q 569 475 529 504 q 633 401 610 446 q 657 286 657 356 q 628 164 657 222 q 549 63 599 106 q 435 6 499 21 l 435 -65 l 371 -65 m 239 -65 l 239 7 q 136 60 179 22 q 69 143 93 99 q 44 219 46 188 l 146 256 q 181 172 154 206 q 240 122 207 139 q 303 100 274 104 l 303 -65 l 239 -65 m 303 458 q 261 468 281 463 q 226 479 242 474 q 138 528 176 500 q 78 599 100 556 q 56 708 56 643 q 85 833 56 783 q 156 913 114 883 q 239 957 199 943 l 239 1042 l 303 1042 l 303 867 q 265 857 289 867 q 219 828 242 847 q 180 778 196 808 q 164 708 164 749 q 183 644 164 669 q 235 603 203 618 q 303 576 267 588 l 303 458 m 514 735 q 479 808 504 779 q 425 851 454 836 q 371 867 396 865 l 371 1042 l 435 1042 l 435 960 q 531 907 492 944 q 592 831 569 869 q 618 768 614 792 l 514 735 z "},"˙":{"ha":281,"x_min":74,"x_max":207,"o":"m 140 875 q 93 894 113 875 q 74 942 74 914 q 93 990 74 971 q 140 1010 113 1010 q 188 990 169 1010 q 207 942 207 971 q 188 894 207 914 q 140 875 169 875 z "},"ı":{"ha":242,"x_min":71,"x_max":172,"o":"m 71 0 l 71 717 l 172 717 l 172 0 l 71 0 z "},"◌":{"ha":883,"x_min":58,"x_max":836,"o":"m 614 614 q 573 631 590 614 q 556 672 556 649 q 573 714 556 697 q 614 731 590 731 q 656 714 639 731 q 672 672 672 697 q 656 631 672 649 q 614 614 639 614 m 281 42 q 240 59 257 42 q 222 100 222 76 q 240 142 222 125 q 281 158 257 158 q 322 142 306 158 q 339 100 339 125 q 322 59 339 76 q 281 42 306 42 m 161 161 q 120 178 138 161 q 103 219 103 196 q 120 261 103 244 q 161 278 138 278 q 203 261 186 278 q 219 219 219 244 q 203 178 219 196 q 161 161 186 161 m 447 -3 q 406 15 424 -3 q 389 56 389 32 q 406 97 389 81 q 447 114 424 114 q 489 97 472 114 q 506 56 506 81 q 489 15 506 32 q 447 -3 472 -3 m 117 328 q 76 345 93 328 q 58 386 58 363 q 76 428 58 411 q 117 444 93 444 q 158 428 142 444 q 175 386 175 411 q 158 345 175 363 q 117 328 142 328 m 161 494 q 120 512 138 494 q 103 553 103 529 q 120 594 103 578 q 161 611 138 611 q 203 594 186 611 q 219 553 219 578 q 203 512 219 529 q 161 494 186 494 m 614 42 q 573 59 590 42 q 556 100 556 76 q 573 142 556 125 q 614 158 590 158 q 656 142 639 158 q 672 100 672 125 q 656 59 672 76 q 614 42 639 42 m 281 614 q 240 631 257 614 q 222 672 222 649 q 240 714 222 697 q 281 731 257 731 q 322 714 306 731 q 339 672 339 697 q 322 631 339 649 q 281 614 306 614 m 733 161 q 692 178 710 161 q 675 219 675 196 q 692 261 675 244 q 733 278 710 278 q 775 261 758 278 q 792 219 792 244 q 775 178 792 196 q 733 161 758 161 m 778 328 q 737 345 754 328 q 719 386 719 363 q 737 428 719 411 q 778 444 754 444 q 819 428 803 444 q 836 386 836 411 q 819 345 836 363 q 778 328 803 328 m 447 658 q 406 676 424 658 q 389 717 389 693 q 406 758 389 742 q 447 775 424 775 q 489 758 472 775 q 506 717 506 742 q 489 676 506 693 q 447 658 472 658 m 733 494 q 692 512 710 494 q 675 553 675 529 q 692 594 675 578 q 733 611 710 611 q 775 594 758 611 q 792 553 792 578 q 775 512 792 529 q 733 494 758 494 z "},"e":{"ha":646,"x_min":56,"x_max":592,"o":"m 290 0 q 188 22 232 0 q 115 76 144 43 q 70 143 85 108 q 56 204 56 178 l 56 546 q 70 606 56 572 q 115 672 85 640 q 188 726 144 704 q 289 747 232 747 l 289 644 q 223 626 251 644 q 178 581 194 607 q 163 535 163 556 l 163 436 l 488 436 l 488 533 q 468 593 488 568 q 419 633 449 618 q 356 647 389 647 l 356 747 q 465 721 411 747 q 554 649 518 694 q 590 547 590 604 l 590 333 l 163 333 l 163 204 q 178 160 163 185 q 224 118 194 136 q 290 100 253 100 l 290 0 m 356 0 l 356 101 q 427 119 397 101 q 475 160 457 136 q 499 208 493 185 l 592 174 q 549 89 581 129 q 468 24 517 49 q 356 0 419 0 z "},"é":{"ha":646,"x_min":56,"x_max":592,"o":"m 285 831 l 336 1042 l 440 1042 l 358 831 l 285 831 m 290 0 q 188 22 232 0 q 115 76 144 43 q 70 143 85 108 q 56 204 56 178 l 56 546 q 70 606 56 572 q 115 672 85 640 q 188 726 144 704 q 289 747 232 747 l 289 644 q 223 626 251 644 q 178 581 194 607 q 163 535 163 556 l 163 436 l 488 436 l 488 533 q 468 593 488 568 q 419 633 449 618 q 356 647 389 647 l 356 747 q 465 721 411 747 q 554 649 518 694 q 590 547 590 604 l 590 333 l 163 333 l 163 204 q 178 160 163 185 q 224 118 194 136 q 290 100 253 100 l 290 0 m 356 0 l 356 101 q 427 119 397 101 q 475 160 457 136 q 499 208 493 185 l 592 174 q 549 89 581 129 q 468 24 517 49 q 356 0 419 0 z "},"ě":{"ha":646,"x_min":56,"x_max":592,"o":"m 289 831 l 183 1042 l 258 1042 l 321 915 l 382 1042 l 457 1042 l 351 831 l 289 831 m 290 0 q 188 22 232 0 q 115 76 144 43 q 70 143 85 108 q 56 204 56 178 l 56 546 q 70 606 56 572 q 115 672 85 640 q 188 726 144 704 q 289 747 232 747 l 289 644 q 223 626 251 644 q 178 581 194 607 q 163 535 163 556 l 163 436 l 488 436 l 488 533 q 468 593 488 568 q 419 633 449 618 q 356 647 389 647 l 356 747 q 465 721 411 747 q 554 649 518 694 q 590 547 590 604 l 590 333 l 163 333 l 163 204 q 178 160 163 185 q 224 118 194 136 q 290 100 253 100 l 290 0 m 356 0 l 356 101 q 427 119 397 101 q 475 160 457 136 q 499 208 493 185 l 592 174 q 549 89 581 129 q 468 24 517 49 q 356 0 419 0 z "},"ê":{"ha":646,"x_min":56,"x_max":592,"o":"m 183 831 l 288 1042 l 351 1042 l 457 831 l 382 831 l 319 957 l 258 831 l 183 831 m 290 0 q 188 22 232 0 q 115 76 144 43 q 70 143 85 108 q 56 204 56 178 l 56 546 q 70 606 56 572 q 115 672 85 640 q 188 726 144 704 q 289 747 232 747 l 289 644 q 223 626 251 644 q 178 581 194 607 q 163 535 163 556 l 163 436 l 488 436 l 488 533 q 468 593 488 568 q 419 633 449 618 q 356 647 389 647 l 356 747 q 465 721 411 747 q 554 649 518 694 q 590 547 590 604 l 590 333 l 163 333 l 163 204 q 178 160 163 185 q 224 118 194 136 q 290 100 253 100 l 290 0 m 356 0 l 356 101 q 427 119 397 101 q 475 160 457 136 q 499 208 493 185 l 592 174 q 549 89 581 129 q 468 24 517 49 q 356 0 419 0 z "},"ë":{"ha":646,"x_min":56,"x_max":592,"o":"m 410 829 q 365 849 383 829 q 346 894 346 868 q 365 940 346 921 q 410 958 383 958 q 456 940 438 958 q 475 894 475 921 q 456 849 475 868 q 410 829 438 829 m 232 829 q 186 849 206 829 q 167 894 167 868 q 186 940 167 921 q 232 958 206 958 q 277 940 258 958 q 296 894 296 921 q 277 849 296 868 q 232 829 258 829 m 290 0 q 188 22 232 0 q 115 76 144 43 q 70 143 85 108 q 56 204 56 178 l 56 546 q 70 606 56 572 q 115 672 85 640 q 188 726 144 704 q 289 747 232 747 l 289 644 q 223 626 251 644 q 178 581 194 607 q 163 535 163 556 l 163 436 l 488 436 l 488 533 q 468 593 488 568 q 419 633 449 618 q 356 647 389 647 l 356 747 q 465 721 411 747 q 554 649 518 694 q 590 547 590 604 l 590 333 l 163 333 l 163 204 q 178 160 163 185 q 224 118 194 136 q 290 100 253 100 l 290 0 m 356 0 l 356 101 q 427 119 397 101 q 475 160 457 136 q 499 208 493 185 l 592 174 q 549 89 581 129 q 468 24 517 49 q 356 0 419 0 z "},"ė":{"ha":646,"x_min":56,"x_max":592,"o":"m 321 831 q 274 850 293 831 q 254 897 254 869 q 274 946 254 926 q 321 965 293 965 q 369 946 350 965 q 388 897 388 926 q 369 850 388 869 q 321 831 350 831 m 290 0 q 188 22 232 0 q 115 76 144 43 q 70 143 85 108 q 56 204 56 178 l 56 546 q 70 606 56 572 q 115 672 85 640 q 188 726 144 704 q 289 747 232 747 l 289 644 q 223 626 251 644 q 178 581 194 607 q 163 535 163 556 l 163 436 l 488 436 l 488 533 q 468 593 488 568 q 419 633 449 618 q 356 647 389 647 l 356 747 q 465 721 411 747 q 554 649 518 694 q 590 547 590 604 l 590 333 l 163 333 l 163 204 q 178 160 163 185 q 224 118 194 136 q 290 100 253 100 l 290 0 m 356 0 l 356 101 q 427 119 397 101 q 475 160 457 136 q 499 208 493 185 l 592 174 q 549 89 581 129 q 468 24 517 49 q 356 0 419 0 z "},"è":{"ha":646,"x_min":56,"x_max":592,"o":"m 282 831 l 201 1042 l 306 1042 l 357 831 l 282 831 m 290 0 q 188 22 232 0 q 115 76 144 43 q 70 143 85 108 q 56 204 56 178 l 56 546 q 70 606 56 572 q 115 672 85 640 q 188 726 144 704 q 289 747 232 747 l 289 644 q 223 626 251 644 q 178 581 194 607 q 163 535 163 556 l 163 436 l 488 436 l 488 533 q 468 593 488 568 q 419 633 449 618 q 356 647 389 647 l 356 747 q 465 721 411 747 q 554 649 518 694 q 590 547 590 604 l 590 333 l 163 333 l 163 204 q 178 160 163 185 q 224 118 194 136 q 290 100 253 100 l 290 0 m 356 0 l 356 101 q 427 119 397 101 q 475 160 457 136 q 499 208 493 185 l 592 174 q 549 89 581 129 q 468 24 517 49 q 356 0 419 0 z "},"…":{"ha":886,"x_min":58,"x_max":828,"o":"m 764 -31 q 720 -11 739 -31 q 701 33 701 8 q 720 78 701 60 q 764 97 739 97 q 810 78 792 97 q 828 33 828 60 q 810 -11 828 8 q 764 -31 792 -31 m 122 -31 q 77 -11 96 -31 q 58 33 58 8 q 77 78 58 60 q 122 97 96 97 q 167 78 149 97 q 185 33 185 60 q 167 -11 185 8 q 122 -31 149 -31 m 443 -31 q 399 -11 418 -31 q 381 33 381 8 q 399 78 381 60 q 443 97 418 97 q 489 78 471 97 q 507 33 507 60 q 489 -11 507 8 q 443 -31 471 -31 z "},"ē":{"ha":646,"x_min":56,"x_max":592,"o":"m 101 831 l 101 900 l 540 900 l 540 831 l 101 831 m 290 0 q 188 22 232 0 q 115 76 144 43 q 70 143 85 108 q 56 204 56 178 l 56 546 q 70 606 56 572 q 115 672 85 640 q 188 726 144 704 q 289 747 232 747 l 289 644 q 223 626 251 644 q 178 581 194 607 q 163 535 163 556 l 163 436 l 488 436 l 488 533 q 468 593 488 568 q 419 633 449 618 q 356 647 389 647 l 356 747 q 465 721 411 747 q 554 649 518 694 q 590 547 590 604 l 590 333 l 163 333 l 163 204 q 178 160 163 185 q 224 118 194 136 q 290 100 253 100 l 290 0 m 356 0 l 356 101 q 427 119 397 101 q 475 160 457 136 q 499 208 493 185 l 592 174 q 549 89 581 129 q 468 24 517 49 q 356 0 419 0 z "},"—":{"ha":1258,"x_min":36,"x_max":1222,"o":"m 36 356 l 36 458 l 1222 458 l 1222 356 l 36 356 z "},"–":{"ha":739,"x_min":36,"x_max":703,"o":"m 36 357 l 36 460 l 703 460 l 703 357 l 36 357 z "},"ę":{"ha":646,"x_min":56,"x_max":592,"o":"m 494 -254 q 371 -223 418 -254 q 303 -146 324 -192 q 283 -56 283 -100 l 368 -56 q 406 -142 368 -112 q 494 -172 443 -172 l 494 -254 m 290 0 q 188 22 232 0 q 115 76 144 43 q 70 143 85 108 q 56 204 56 178 l 56 546 q 70 606 56 572 q 115 672 85 640 q 188 726 144 704 q 289 747 232 747 l 289 644 q 223 626 251 644 q 178 581 194 607 q 163 535 163 556 l 163 436 l 488 436 l 488 533 q 468 593 488 568 q 419 633 449 618 q 356 647 389 647 l 356 747 q 465 721 411 747 q 554 649 518 694 q 590 547 590 604 l 590 333 l 163 333 l 163 204 q 178 160 163 185 q 224 118 194 136 q 290 100 253 100 l 290 0 m 356 0 l 356 101 q 427 119 397 101 q 475 160 457 136 q 499 208 493 185 l 592 174 q 549 89 581 129 q 468 24 517 49 q 356 0 419 0 z "},"=":{"ha":581,"x_min":69,"x_max":511,"o":"m 69 451 l 69 556 l 511 556 l 511 451 l 69 451 m 69 254 l 69 358 l 511 358 l 511 254 l 69 254 z "},"℮":{"ha":738,"x_min":42,"x_max":656,"o":"m 311 -1 q 171 38 232 -1 q 76 142 110 78 q 42 285 42 207 l 42 694 q 76 833 42 768 q 171 938 110 897 q 311 979 232 979 l 311 869 q 233 846 268 869 q 175 778 197 822 q 153 668 153 733 l 153 504 l 544 504 l 544 668 q 497 817 544 765 q 388 869 450 868 l 388 979 q 527 938 467 979 q 622 833 588 897 q 656 696 656 768 l 656 396 l 153 396 l 153 311 q 201 158 153 207 q 311 108 249 110 l 311 -1 m 388 -1 l 388 110 q 459 128 425 111 q 517 171 493 144 q 544 229 540 197 l 656 199 q 606 97 644 143 q 510 25 567 51 q 388 -1 453 -1 z "},"ð":{"ha":583,"x_min":39,"x_max":561,"o":"m 324 -1 l 324 96 q 392 115 365 96 q 433 162 419 135 q 446 211 446 189 l 446 513 q 431 562 446 538 q 390 603 417 586 q 324 619 363 619 l 324 717 q 390 706 361 717 q 440 676 419 696 q 433 745 440 715 q 415 799 426 775 l 329 774 l 310 836 l 383 858 q 326 904 357 888 q 267 931 294 921 l 267 992 q 374 956 322 982 q 465 883 426 931 l 542 906 l 561 843 l 501 825 q 533 731 522 783 q 544 608 544 678 l 544 196 q 531 137 544 171 q 490 72 518 103 q 422 19 463 40 q 324 -1 381 -1 m 267 -1 q 165 19 208 -1 q 94 72 122 40 q 53 138 67 104 q 39 196 39 171 l 39 522 q 53 581 39 547 q 95 645 67 614 q 167 697 124 676 q 267 717 210 717 l 267 619 q 195 600 224 619 q 153 554 167 581 q 139 504 139 528 l 139 214 q 154 163 139 190 q 199 115 169 135 q 267 96 228 96 l 267 -1 z "},"!":{"ha":246,"x_min":60,"x_max":186,"o":"m 71 231 l 71 972 l 176 972 l 176 231 l 71 231 m 122 -15 q 78 4 97 -15 q 60 49 60 24 q 78 94 60 75 q 122 113 97 113 q 168 94 150 113 q 186 49 186 75 q 168 4 186 24 q 122 -15 150 -15 z "},"¡":{"ha":251,"x_min":28,"x_max":164,"o":"m 43 -189 l 43 557 l 151 557 l 151 -189 l 43 -189 m 97 615 q 49 635 69 615 q 28 683 28 656 q 49 730 28 710 q 97 750 69 750 q 144 730 124 750 q 164 683 164 710 q 144 635 164 656 q 97 615 124 615 z "},"f":{"ha":381,"x_min":33,"x_max":364,"o":"m 125 0 l 125 582 l 33 582 l 33 686 l 125 686 l 125 769 q 134 828 125 794 q 165 897 143 863 q 224 954 186 931 q 318 978 261 978 l 364 978 l 340 875 l 315 875 q 263 856 281 874 q 238 815 244 839 q 232 769 232 792 l 232 685 l 325 686 l 325 582 l 232 582 l 232 0 l 125 0 z "},"ﬁ":{"ha":592,"x_min":69,"x_max":528,"o":"m 157 0 l 157 588 l 69 588 l 69 685 l 157 685 l 157 767 q 165 824 157 790 q 194 890 174 857 q 251 944 215 922 q 342 967 286 967 l 385 967 l 363 869 l 335 869 q 285 851 301 868 q 264 810 269 833 q 258 767 258 788 l 258 683 l 517 683 l 517 0 l 415 0 l 415 588 l 258 588 l 258 0 l 157 0 m 465 774 q 420 792 439 774 q 401 836 401 811 q 420 880 401 861 q 465 899 439 899 q 509 880 490 899 q 528 836 528 861 q 509 792 528 810 q 465 774 490 774 z "},"ﬂ":{"ha":608,"x_min":69,"x_max":532,"o":"m 157 0 l 157 588 l 69 588 l 69 685 l 157 685 l 157 767 q 165 824 157 790 q 194 890 174 857 q 251 944 215 922 q 342 967 286 967 l 532 967 l 532 0 l 428 0 l 428 869 l 340 869 q 290 852 308 869 q 265 811 272 835 q 258 767 258 788 l 258 683 l 347 685 l 347 588 l 258 588 l 258 0 l 157 0 z "},"ƒ":{"ha":531,"x_min":36,"x_max":494,"o":"m 36 -233 l 60 -143 l 114 -143 q 165 -129 147 -143 q 189 -94 182 -115 q 196 -56 196 -74 l 196 588 l 108 588 l 108 683 l 196 683 l 196 753 q 209 822 196 785 q 249 891 222 858 q 316 945 276 924 q 410 967 356 967 l 494 967 l 472 869 l 431 869 q 327 833 357 869 q 297 746 297 797 l 297 682 l 389 683 l 389 588 l 297 588 l 297 -42 q 283 -129 297 -85 q 227 -203 268 -174 q 108 -233 186 -233 l 36 -233 z "},"⁴":{"ha":376,"x_min":36,"x_max":326,"o":"m 36 611 l 36 669 l 199 947 l 199 832 l 106 669 l 199 669 l 199 611 l 36 611 m 229 535 l 229 972 l 293 972 l 293 669 l 326 669 l 326 611 l 293 611 l 293 535 l 229 535 z "},"⁄":{"ha":701,"x_min":14,"x_max":686,"o":"m 14 -1 l 614 974 l 686 974 l 90 -1 l 14 -1 z "},"g":{"ha":614,"x_min":36,"x_max":560,"o":"m 36 -257 l 63 -157 l 322 -157 q 397 -137 367 -154 q 441 -95 426 -119 q 456 -53 456 -71 l 456 51 q 431 34 447 46 q 390 13 414 22 q 335 4 367 4 l 335 101 q 394 117 367 101 q 438 158 421 133 q 456 207 456 183 l 456 544 q 436 600 456 576 q 389 637 417 624 q 335 650 361 650 l 335 750 q 385 742 361 750 q 428 724 410 735 q 456 704 447 714 l 456 750 l 560 750 l 560 -53 q 547 -110 560 -76 q 506 -178 533 -144 q 437 -234 478 -211 q 339 -257 396 -257 l 36 -257 m 274 4 q 173 26 215 4 q 103 81 131 49 q 63 148 76 114 q 50 206 50 182 l 50 551 q 64 610 50 576 q 105 676 78 643 q 174 729 132 708 q 274 750 215 750 l 274 650 q 210 631 238 650 q 167 589 182 613 q 153 547 153 565 l 153 207 q 167 164 153 188 q 209 122 182 140 q 274 104 236 104 l 274 4 z "},"ğ":{"ha":614,"x_min":36,"x_max":560,"o":"m 297 835 q 240 851 264 835 q 203 893 217 868 q 190 940 190 918 l 253 940 q 266 909 253 922 q 297 896 279 896 q 329 909 317 896 q 342 940 342 922 l 404 940 q 391 893 404 918 q 354 851 378 868 q 297 835 331 835 m 36 -257 l 63 -157 l 322 -157 q 397 -137 367 -154 q 441 -95 426 -119 q 456 -53 456 -71 l 456 51 q 431 34 447 46 q 390 13 414 22 q 335 4 367 4 l 335 101 q 394 117 367 101 q 438 158 421 133 q 456 207 456 183 l 456 544 q 436 600 456 576 q 389 637 417 624 q 335 650 361 650 l 335 750 q 385 742 361 750 q 428 724 410 735 q 456 704 447 714 l 456 750 l 560 750 l 560 -53 q 547 -110 560 -76 q 506 -178 533 -144 q 437 -234 478 -211 q 339 -257 396 -257 l 36 -257 m 274 4 q 173 26 215 4 q 103 81 131 49 q 63 148 76 114 q 50 206 50 182 l 50 551 q 64 610 50 576 q 105 676 78 643 q 174 729 132 708 q 274 750 215 750 l 274 650 q 210 631 238 650 q 167 589 182 613 q 153 547 153 565 l 153 207 q 167 164 153 188 q 209 122 182 140 q 274 104 236 104 l 274 4 z "},"ß":{"ha":725,"x_min":36,"x_max":689,"o":"m 36 0 l 36 635 q 38 706 36 663 q 50 797 39 750 q 89 885 61 844 q 170 953 117 926 q 311 979 224 979 q 432 960 385 979 q 506 909 479 940 q 546 842 533 878 q 561 773 558 806 q 564 719 564 740 l 564 564 l 486 564 q 449 553 463 563 q 429 531 435 543 q 424 510 424 518 q 430 483 424 497 q 462 451 436 468 q 543 415 488 435 q 611 381 578 404 q 667 319 644 358 q 689 215 689 279 q 657 101 689 150 q 572 26 625 53 q 454 0 519 0 l 276 0 l 276 93 l 431 93 q 505 103 468 93 q 567 140 542 114 q 592 214 592 167 q 578 275 592 254 q 540 310 565 296 q 475 344 514 325 q 408 380 442 361 q 350 429 374 399 q 326 511 326 460 q 347 589 326 560 q 401 633 368 618 q 468 651 433 647 l 468 668 q 465 748 468 710 q 447 816 461 786 q 401 864 432 846 q 314 882 369 882 q 222 863 257 882 q 170 815 188 844 q 147 753 153 786 q 142 692 142 721 l 142 0 l 36 0 z "},"`":{"ha":324,"x_min":57,"x_max":213,"o":"m 138 840 l 57 1051 l 161 1051 l 213 840 l 138 840 z "},">":{"ha":592,"x_min":50,"x_max":542,"o":"m 50 110 l 50 214 l 404 406 l 50 589 l 50 694 l 542 436 l 542 374 l 50 110 z "},"≥":{"ha":608,"x_min":39,"x_max":567,"o":"m 42 207 l 42 310 l 419 499 l 42 683 l 42 788 l 567 528 l 567 469 l 42 207 m 39 44 l 39 135 l 567 135 l 567 44 l 39 44 z "},"«":{"ha":650,"x_min":33,"x_max":619,"o":"m 619 160 l 326 378 l 326 428 l 619 644 l 619 533 l 440 406 l 619 269 l 619 160 m 326 160 l 33 378 l 33 428 l 326 644 l 326 533 l 147 406 l 326 269 l 326 160 z "},"»":{"ha":635,"x_min":21,"x_max":607,"o":"m 314 176 l 314 278 l 510 406 l 314 524 l 314 626 l 607 436 l 607 369 l 314 176 m 21 176 l 21 278 l 217 406 l 21 524 l 21 626 l 314 436 l 314 369 l 21 176 z "},"‹":{"ha":469,"x_min":78,"x_max":388,"o":"m 260 110 l 78 406 l 260 694 l 388 694 l 206 406 l 388 110 l 260 110 z "},"›":{"ha":469,"x_min":79,"x_max":389,"o":"m 79 110 l 261 406 l 79 694 l 207 694 l 389 406 l 207 110 l 79 110 z "},"h":{"ha":633,"x_min":57,"x_max":583,"o":"m 57 -4 l 57 979 l 158 979 l 158 682 q 209 716 175 699 q 292 733 243 733 l 292 633 q 228 615 258 633 q 178 572 197 597 q 160 522 160 547 l 160 -4 l 57 -4 m 481 -4 l 481 522 q 468 572 481 546 q 428 615 456 597 q 357 633 401 633 l 357 733 q 480 704 429 733 q 557 630 531 675 q 583 535 583 585 l 583 -4 l 481 -4 z "},"˝":{"ha":417,"x_min":106,"x_max":424,"o":"m 268 840 l 319 1051 l 424 1051 l 342 840 l 268 840 m 106 840 l 157 1051 l 261 1051 l 179 840 l 106 840 z "},"-":{"ha":561,"x_min":61,"x_max":500,"o":"m 61 357 l 61 460 l 500 460 l 500 357 l 61 357 z "},"i":{"ha":251,"x_min":63,"x_max":189,"o":"m 74 0 l 74 742 l 181 742 l 181 0 l 74 0 m 126 803 q 82 822 101 803 q 63 865 63 840 q 82 909 63 890 q 126 928 101 928 q 170 909 151 928 q 189 865 189 890 q 170 822 189 840 q 126 803 151 803 z "},"í":{"ha":242,"x_min":71,"x_max":240,"o":"m 85 831 l 136 1042 l 240 1042 l 158 831 l 85 831 m 71 0 l 71 717 l 172 717 l 172 0 l 71 0 z "},"î":{"ha":242,"x_min":-15,"x_max":258,"o":"m -15 831 l 89 1042 l 153 1042 l 258 831 l 183 831 l 121 957 l 60 831 l -15 831 m 71 0 l 71 717 l 172 717 l 172 0 l 71 0 z "},"ï":{"ha":242,"x_min":-32,"x_max":275,"o":"m 211 829 q 166 849 185 829 q 147 894 147 868 q 166 940 147 921 q 211 958 185 958 q 258 940 239 958 q 276 894 276 921 q 258 849 276 868 q 211 829 239 829 m 33 829 q -12 849 7 829 q -32 894 -32 868 q -12 940 -32 921 q 33 958 7 958 q 78 940 60 958 q 97 894 97 921 q 78 849 97 868 q 33 829 60 829 m 71 0 l 71 717 l 172 717 l 172 0 l 71 0 z "},"ì":{"ha":242,"x_min":1,"x_max":172,"o":"m 82 831 l 1 1042 l 106 1042 l 157 831 l 82 831 m 71 0 l 71 717 l 172 717 l 172 0 l 71 0 z "},"ī":{"ha":242,"x_min":-97,"x_max":342,"o":"m -97 831 l -97 900 l 342 900 l 342 831 l -97 831 m 71 0 l 71 717 l 172 717 l 172 0 l 71 0 z "},"∞":{"ha":1108,"x_min":42,"x_max":1071,"o":"m 326 -1 l 326 96 q 379 110 354 96 q 415 151 404 124 l 504 361 l 417 565 q 380 606 406 593 q 326 619 354 619 l 326 717 q 436 686 388 717 q 504 608 485 656 l 558 479 l 611 608 q 681 685 632 654 q 789 717 729 717 l 789 619 q 736 606 761 619 q 699 565 711 593 l 613 361 l 700 151 q 737 111 713 125 q 789 97 761 97 l 789 0 q 683 31 729 0 q 614 108 638 61 l 558 243 l 501 107 q 433 30 479 61 q 326 -1 386 -1 m 269 -1 q 168 19 211 -1 q 97 72 125 40 q 56 138 69 104 q 42 196 42 171 l 42 522 q 56 581 42 547 q 98 645 69 614 q 169 697 126 676 q 269 717 213 717 l 269 619 q 198 601 226 619 q 156 556 169 582 q 142 504 142 529 l 142 214 q 157 163 142 190 q 201 116 172 136 q 269 96 231 96 l 269 -1 m 846 -1 l 846 96 q 914 116 886 96 q 957 164 942 136 q 972 213 972 192 l 972 504 q 958 556 972 531 q 917 601 944 582 q 846 619 889 619 l 846 717 q 945 697 903 717 q 1015 645 988 676 q 1057 581 1043 614 q 1071 522 1071 547 l 1071 196 q 1057 137 1071 171 q 1015 72 1043 103 q 946 19 988 40 q 846 -1 904 -1 z "},"∫":{"ha":426,"x_min":18,"x_max":408,"o":"m 18 -257 l 18 -197 q 60 -197 33 -201 q 113 -174 86 -193 q 158 -113 139 -154 q 176 -4 176 -72 l 176 868 q 201 994 176 943 q 261 1074 225 1044 q 338 1114 297 1104 q 408 1118 378 1124 l 408 1058 q 365 1060 390 1065 q 314 1035 340 1056 q 270 975 288 1015 q 253 868 253 935 l 253 -4 q 229 -131 253 -79 q 169 -212 206 -182 q 92 -252 132 -242 q 18 -257 51 -262 z "},"į":{"ha":251,"x_min":63,"x_max":296,"o":"m 296 -251 q 172 -220 218 -251 q 105 -143 125 -189 q 85 -53 85 -97 l 169 -53 q 207 -140 169 -110 q 296 -169 244 -169 l 296 -251 m 74 0 l 74 742 l 181 742 l 181 0 l 74 0 m 126 803 q 82 822 101 803 q 63 865 63 840 q 82 909 63 890 q 126 928 101 928 q 170 909 151 928 q 189 865 189 890 q 170 822 189 840 q 126 803 151 803 z "},"j":{"ha":279,"x_min":-58,"x_max":218,"o":"m -58 -261 l -35 -158 l -8 -158 q 48 -140 24 -157 q 87 -98 72 -122 q 101 -53 101 -74 l 101 731 l 208 731 l 208 -53 q 195 -113 208 -78 q 155 -182 182 -149 q 87 -238 128 -215 q -10 -261 46 -261 l -58 -261 m 156 785 q 111 803 131 785 q 92 847 92 822 q 111 891 92 872 q 156 910 131 910 q 199 892 181 910 q 218 847 218 874 q 199 803 218 822 q 156 785 181 785 z "},"k":{"ha":660,"x_min":57,"x_max":632,"o":"m 501 0 l 201 374 l 500 744 l 631 744 l 331 374 l 632 0 l 501 0 m 57 0 l 57 979 l 167 979 l 167 0 l 57 0 z "},"l":{"ha":231,"x_min":58,"x_max":172,"o":"m 58 0 l 58 979 l 172 979 l 172 0 l 58 0 z "},"ĺ":{"ha":231,"x_min":58,"x_max":232,"o":"m 78 1088 l 129 1299 l 233 1299 l 151 1088 l 78 1088 m 58 0 l 58 979 l 172 979 l 172 0 l 58 0 z "},"ľ":{"ha":329,"x_min":53,"x_max":390,"o":"m 236 792 l 288 1003 l 392 1003 l 340 792 l 236 792 m 53 0 l 53 979 l 167 979 l 167 0 l 53 0 z "},"<":{"ha":592,"x_min":50,"x_max":542,"o":"m 542 110 l 50 374 l 50 436 l 542 694 l 542 589 l 188 406 l 542 214 l 542 110 z "},"≤":{"ha":608,"x_min":31,"x_max":567,"o":"m 556 206 l 31 469 l 31 528 l 556 786 l 556 683 l 178 499 l 556 310 l 556 206 m 39 43 l 39 135 l 567 135 l 567 43 l 39 43 z "},"¬":{"ha":718,"x_min":56,"x_max":649,"o":"m 549 289 l 549 489 l 56 489 l 56 583 l 649 583 l 649 289 l 549 289 z "},"◊":{"ha":586,"x_min":-4,"x_max":581,"o":"m 254 -3 l -4 489 l 258 981 l 321 981 l 581 489 l 317 -3 l 254 -3 m 285 135 l 476 489 l 289 843 l 101 489 l 285 135 z "},"ł":{"ha":589,"x_min":111,"x_max":494,"o":"m 172 354 l 111 432 l 433 681 l 494 603 l 172 354 m 247 -6 l 247 975 l 361 975 l 361 -6 l 247 -6 z "},"m":{"ha":1007,"x_min":53,"x_max":954,"o":"m 449 0 l 449 531 q 419 611 449 578 q 335 644 390 644 l 335 750 q 439 728 401 750 q 503 672 476 706 q 568 728 531 707 q 671 750 606 750 l 671 644 q 587 610 615 644 q 558 531 558 576 l 558 0 l 449 0 m 53 0 l 53 544 q 65 608 53 574 q 103 676 76 643 q 171 729 129 708 q 272 750 213 750 l 272 644 q 190 610 218 644 q 161 531 161 575 l 161 0 l 53 0 m 844 0 l 844 531 q 815 612 844 579 q 732 644 786 644 l 732 750 q 834 728 792 750 q 903 674 876 707 q 942 606 929 642 q 954 544 954 571 l 954 0 l 844 0 z "},"¯":{"ha":708,"x_min":50,"x_max":675,"o":"m 50 989 l 50 1081 l 675 1081 l 675 989 l 50 989 z "},"−":{"ha":578,"x_min":61,"x_max":500,"o":"m 61 357 l 61 460 l 500 460 l 500 357 l 61 357 z "},"×":{"ha":799,"x_min":149,"x_max":789,"o":"m 539 257 l 331 467 l 263 397 l 149 513 l 356 718 l 288 786 l 400 899 l 607 693 l 676 763 l 789 649 l 582 442 l 651 371 l 539 257 z "},"n":{"ha":646,"x_min":53,"x_max":592,"o":"m 53 525 q 69 603 53 564 q 115 676 85 643 q 190 729 146 710 q 292 749 235 749 l 292 643 q 227 626 257 643 q 178 580 197 608 q 160 517 160 551 l 160 0 l 53 0 l 53 525 m 486 517 q 471 572 486 543 q 426 622 456 601 q 354 643 396 643 l 354 749 q 454 728 410 749 q 529 675 499 708 q 576 602 560 642 q 592 525 592 563 l 592 0 l 486 0 l 486 517 z "},"ń":{"ha":646,"x_min":53,"x_max":592,"o":"m 286 835 l 338 1046 l 442 1046 l 360 835 l 286 835 m 53 525 q 69 603 53 564 q 115 676 85 643 q 190 729 146 710 q 292 749 235 749 l 292 643 q 227 626 257 643 q 178 580 197 608 q 160 517 160 551 l 160 0 l 53 0 l 53 525 m 486 517 q 471 572 486 543 q 426 622 456 601 q 354 643 396 643 l 354 749 q 454 728 410 749 q 529 675 499 708 q 576 602 560 642 q 592 525 592 563 l 592 0 l 486 0 l 486 517 z "}," ":{"ha":328,"x_min":0,"x_max":0,"o":""},"ň":{"ha":646,"x_min":53,"x_max":592,"o":"m 290 835 l 185 1046 l 260 1046 l 322 919 l 383 1046 l 458 1046 l 353 835 l 290 835 m 53 525 q 69 603 53 564 q 115 676 85 643 q 190 729 146 710 q 292 749 235 749 l 292 643 q 227 626 257 643 q 178 580 197 608 q 160 517 160 551 l 160 0 l 53 0 l 53 525 m 486 517 q 471 572 486 543 q 426 622 456 601 q 354 643 396 643 l 354 749 q 454 728 410 749 q 529 675 499 708 q 576 602 560 642 q 592 525 592 563 l 592 0 l 486 0 l 486 517 z "},"≠":{"ha":581,"x_min":69,"x_max":511,"o":"m 101 -100 l 344 926 l 447 926 l 206 -100 l 101 -100 m 69 451 l 69 556 l 511 556 l 511 451 l 69 451 m 69 254 l 69 358 l 511 358 l 511 254 l 69 254 z "},"ñ":{"ha":646,"x_min":53,"x_max":592,"o":"m 401 835 q 336 849 365 835 q 280 876 307 863 q 219 890 253 890 q 178 883 201 890 q 128 860 156 876 l 128 949 q 181 972 157 965 q 225 979 206 979 q 289 965 261 979 q 344 937 317 951 q 407 922 372 922 q 457 931 431 922 q 518 961 483 940 l 518 874 q 454 843 483 851 q 401 835 425 835 m 53 525 q 69 603 53 564 q 115 676 85 643 q 190 729 146 710 q 292 749 235 749 l 292 643 q 227 626 257 643 q 178 580 197 608 q 160 517 160 551 l 160 0 l 53 0 l 53 525 m 486 517 q 471 572 486 543 q 426 622 456 601 q 354 643 396 643 l 354 749 q 454 728 410 749 q 529 675 499 708 q 576 602 560 642 q 592 525 592 563 l 592 0 l 486 0 l 486 517 z "},"#":{"ha":1043,"x_min":49,"x_max":989,"o":"m 232 31 l 276 279 l 49 279 l 68 378 l 294 378 l 332 596 l 96 596 l 113 694 l 349 694 l 393 947 l 493 947 l 449 694 l 664 694 l 707 947 l 807 947 l 764 694 l 989 694 l 972 594 l 746 596 l 708 376 l 940 376 l 925 278 l 690 279 l 647 31 l 547 31 l 590 279 l 376 279 l 332 31 l 232 31 m 608 376 l 646 596 l 432 596 l 394 378 l 608 376 z "},"o":{"ha":631,"x_min":53,"x_max":583,"o":"m 289 -1 q 191 18 235 -1 q 117 70 147 38 q 69 142 86 103 q 53 219 53 181 l 53 524 q 68 602 53 563 q 114 674 83 642 q 189 727 144 707 q 289 747 233 747 l 289 643 q 219 623 247 643 q 175 572 190 603 q 160 510 160 542 l 160 233 q 176 175 160 206 q 222 124 193 144 q 289 103 251 103 l 289 -1 m 351 -1 l 351 103 q 419 123 390 103 q 463 173 447 143 q 478 231 478 203 l 478 510 q 463 571 478 540 q 419 622 447 601 q 351 643 392 643 l 351 747 q 451 727 408 747 q 524 674 493 707 q 569 602 554 642 q 583 524 583 563 l 583 219 q 567 142 583 181 q 521 70 551 103 q 448 18 490 38 q 351 -1 406 -1 z "},"ó":{"ha":631,"x_min":53,"x_max":583,"o":"m 282 831 l 333 1042 l 438 1042 l 356 831 l 282 831 m 289 -1 q 191 18 235 -1 q 117 70 147 38 q 69 142 86 103 q 53 219 53 181 l 53 524 q 68 602 53 563 q 114 674 83 642 q 189 727 144 707 q 289 747 233 747 l 289 643 q 219 623 247 643 q 175 572 190 603 q 160 510 160 542 l 160 233 q 176 175 160 206 q 222 124 193 144 q 289 103 251 103 l 289 -1 m 351 -1 l 351 103 q 419 123 390 103 q 463 173 447 143 q 478 231 478 203 l 478 510 q 463 571 478 540 q 419 622 447 601 q 351 643 392 643 l 351 747 q 451 727 408 747 q 524 674 493 707 q 569 602 554 642 q 583 524 583 563 l 583 219 q 567 142 583 181 q 521 70 551 103 q 448 18 490 38 q 351 -1 406 -1 z "},"ô":{"ha":631,"x_min":53,"x_max":583,"o":"m 182 831 l 286 1042 l 350 1042 l 456 831 l 381 831 l 318 957 l 257 831 l 182 831 m 289 -1 q 191 18 235 -1 q 117 70 147 38 q 69 142 86 103 q 53 219 53 181 l 53 524 q 68 602 53 563 q 114 674 83 642 q 189 727 144 707 q 289 747 233 747 l 289 643 q 219 623 247 643 q 175 572 190 603 q 160 510 160 542 l 160 233 q 176 175 160 206 q 222 124 193 144 q 289 103 251 103 l 289 -1 m 351 -1 l 351 103 q 419 123 390 103 q 463 173 447 143 q 478 231 478 203 l 478 510 q 463 571 478 540 q 419 622 447 601 q 351 643 392 643 l 351 747 q 451 727 408 747 q 524 674 493 707 q 569 602 554 642 q 583 524 583 563 l 583 219 q 567 142 583 181 q 521 70 551 103 q 448 18 490 38 q 351 -1 406 -1 z "},"ö":{"ha":631,"x_min":53,"x_max":583,"o":"m 408 829 q 363 849 382 829 q 344 894 344 868 q 363 940 344 921 q 408 958 382 958 q 455 940 436 958 q 474 894 474 921 q 455 849 474 868 q 408 829 436 829 m 231 829 q 185 849 204 829 q 165 894 165 868 q 185 940 165 921 q 231 958 204 958 q 276 940 257 958 q 294 894 294 921 q 276 849 294 868 q 231 829 257 829 m 289 -1 q 191 18 235 -1 q 117 70 147 38 q 69 142 86 103 q 53 219 53 181 l 53 524 q 68 602 53 563 q 114 674 83 642 q 189 727 144 707 q 289 747 233 747 l 289 643 q 219 623 247 643 q 175 572 190 603 q 160 510 160 542 l 160 233 q 176 175 160 206 q 222 124 193 144 q 289 103 251 103 l 289 -1 m 351 -1 l 351 103 q 419 123 390 103 q 463 173 447 143 q 478 231 478 203 l 478 510 q 463 571 478 540 q 419 622 447 601 q 351 643 392 643 l 351 747 q 451 727 408 747 q 524 674 493 707 q 569 602 554 642 q 583 524 583 563 l 583 219 q 567 142 583 181 q 521 70 551 103 q 448 18 490 38 q 351 -1 406 -1 z "},"œ":{"ha":1004,"x_min":39,"x_max":963,"o":"m 324 -1 l 324 93 q 392 113 365 93 q 433 159 419 132 q 447 210 447 186 l 447 504 q 433 556 447 531 q 392 601 419 582 q 324 619 365 619 l 324 717 q 430 692 389 717 q 497 633 471 667 q 568 692 525 667 q 672 717 611 717 l 672 621 q 605 603 633 621 q 560 557 576 585 q 544 501 544 529 l 544 418 l 865 418 l 865 507 q 847 566 865 540 q 798 607 828 592 q 736 622 768 622 l 736 717 q 840 690 789 717 q 926 621 892 664 q 961 525 961 578 l 961 321 l 544 321 l 544 206 q 567 146 544 172 q 628 105 590 119 q 710 90 665 90 q 816 118 769 90 q 878 199 863 146 l 963 167 q 874 43 942 86 q 704 0 807 0 q 581 24 635 0 q 499 85 528 49 q 431 24 472 50 q 324 -1 389 -1 m 267 -1 q 165 19 208 -1 q 94 73 122 40 q 53 139 67 106 q 39 196 39 172 l 39 522 q 53 580 39 547 q 95 644 67 613 q 167 697 124 676 q 267 717 210 717 l 267 619 q 197 601 225 619 q 153 556 168 583 q 139 504 139 529 l 139 213 q 155 161 139 189 q 199 113 171 133 q 267 93 228 93 l 267 -1 z "},"˛":{"ha":304,"x_min":-64,"x_max":147,"o":"m 147 -254 q 23 -223 69 -254 q -44 -146 -24 -192 q -64 -56 -64 -100 l 21 -56 q 58 -142 21 -112 q 147 -172 96 -172 l 147 -254 z "},"ò":{"ha":631,"x_min":53,"x_max":583,"o":"m 281 831 l 200 1042 l 304 1042 l 356 831 l 281 831 m 289 -1 q 191 18 235 -1 q 117 70 147 38 q 69 142 86 103 q 53 219 53 181 l 53 524 q 68 602 53 563 q 114 674 83 642 q 189 727 144 707 q 289 747 233 747 l 289 643 q 219 623 247 643 q 175 572 190 603 q 160 510 160 542 l 160 233 q 176 175 160 206 q 222 124 193 144 q 289 103 251 103 l 289 -1 m 351 -1 l 351 103 q 419 123 390 103 q 463 173 447 143 q 478 231 478 203 l 478 510 q 463 571 478 540 q 419 622 447 601 q 351 643 392 643 l 351 747 q 451 727 408 747 q 524 674 493 707 q 569 602 554 642 q 583 524 583 563 l 583 219 q 567 142 583 181 q 521 70 551 103 q 448 18 490 38 q 351 -1 406 -1 z "},"ő":{"ha":631,"x_min":53,"x_max":583,"o":"m 371 831 l 422 1042 l 526 1042 l 444 831 l 371 831 m 208 831 l 260 1042 l 364 1042 l 282 831 l 208 831 m 289 -1 q 191 18 235 -1 q 117 70 147 38 q 69 142 86 103 q 53 219 53 181 l 53 524 q 68 602 53 563 q 114 674 83 642 q 189 727 144 707 q 289 747 233 747 l 289 643 q 219 623 247 643 q 175 572 190 603 q 160 510 160 542 l 160 233 q 176 175 160 206 q 222 124 193 144 q 289 103 251 103 l 289 -1 m 351 -1 l 351 103 q 419 123 390 103 q 463 173 447 143 q 478 231 478 203 l 478 510 q 463 571 478 540 q 419 622 447 601 q 351 643 392 643 l 351 747 q 451 727 408 747 q 524 674 493 707 q 569 602 554 642 q 583 524 583 563 l 583 219 q 567 142 583 181 q 521 70 551 103 q 448 18 490 38 q 351 -1 406 -1 z "},"ō":{"ha":631,"x_min":53,"x_max":583,"o":"m 100 831 l 100 900 l 539 900 l 539 831 l 100 831 m 289 -1 q 191 18 235 -1 q 117 70 147 38 q 69 142 86 103 q 53 219 53 181 l 53 524 q 68 602 53 563 q 114 674 83 642 q 189 727 144 707 q 289 747 233 747 l 289 643 q 219 623 247 643 q 175 572 190 603 q 160 510 160 542 l 160 233 q 176 175 160 206 q 222 124 193 144 q 289 103 251 103 l 289 -1 m 351 -1 l 351 103 q 419 123 390 103 q 463 173 447 143 q 478 231 478 203 l 478 510 q 463 571 478 540 q 419 622 447 601 q 351 643 392 643 l 351 747 q 451 727 408 747 q 524 674 493 707 q 569 602 554 642 q 583 524 583 563 l 583 219 q 567 142 583 181 q 521 70 551 103 q 448 18 490 38 q 351 -1 406 -1 z "},"½":{"ha":785,"x_min":0,"x_max":735,"o":"m 118 486 l 118 889 l 79 889 l 79 942 l 118 972 l 188 972 l 188 486 l 118 486 m 0 0 l 600 972 l 672 972 l 76 0 l 0 0 m 483 342 l 419 356 q 440 419 422 390 q 486 467 457 449 q 551 488 515 485 l 551 419 q 510 401 533 418 q 483 342 488 385 m 428 99 q 445 160 428 135 q 488 201 463 185 q 537 228 513 218 q 575 246 561 239 q 639 283 613 264 q 665 340 665 301 q 647 397 665 375 q 586 419 628 418 l 586 488 q 671 467 638 488 q 719 415 704 447 q 735 342 735 382 q 709 258 735 288 q 646 211 683 229 q 603 192 626 201 q 557 170 579 182 q 521 141 535 158 q 507 99 507 124 l 428 99 m 428 0 l 428 67 l 726 67 l 726 0 l 428 0 z "},"¼":{"ha":697,"x_min":0,"x_max":672,"o":"m 0 0 l 600 972 l 672 972 l 76 0 l 0 0 m 324 85 l 324 149 l 506 458 l 506 331 l 401 149 l 506 149 l 506 85 l 324 85 m 539 0 l 539 486 l 610 486 l 610 149 l 647 149 l 647 85 l 610 85 l 610 0 l 539 0 m 118 486 l 118 889 l 79 889 l 79 942 l 118 972 l 188 972 l 188 486 l 118 486 z "},"¹":{"ha":169,"x_min":14,"x_max":104,"o":"m 47 535 l 47 896 l 14 896 l 14 943 l 47 971 l 104 971 l 104 535 l 47 535 z "},"ª":{"ha":329,"x_min":28,"x_max":306,"o":"m 28 508 l 28 560 l 299 560 l 299 508 l 28 508 m 140 606 q 80 619 106 606 q 41 651 54 632 q 28 692 28 671 l 28 725 q 30 747 28 735 q 40 770 32 758 q 64 790 47 782 q 95 801 75 796 q 140 813 115 807 q 185 826 164 819 q 220 840 206 833 q 235 857 235 847 l 235 869 q 226 901 235 888 q 203 923 217 915 q 174 931 189 931 l 174 979 q 236 962 211 979 q 274 919 261 944 q 288 871 288 894 l 288 679 q 290 665 288 675 q 306 656 293 656 l 306 606 q 272 613 283 606 q 251 631 260 619 q 217 611 238 617 q 174 606 196 606 l 174 656 q 204 661 190 656 q 226 678 218 667 q 235 713 235 690 l 235 794 q 198 780 221 786 q 152 769 175 774 q 110 758 129 764 q 85 746 92 753 q 76 725 76 740 l 76 704 q 85 676 76 686 q 108 660 93 665 q 140 656 122 656 l 140 606 m 81 868 l 33 886 q 49 933 32 913 q 90 967 65 954 q 140 979 114 979 l 140 929 q 111 922 125 929 q 89 900 97 914 q 81 868 81 886 z "},"º":{"ha":319,"x_min":36,"x_max":283,"o":"m 36 544 l 36 600 l 283 600 l 283 544 l 36 544 m 150 643 q 106 651 125 643 q 72 674 86 660 q 51 706 58 689 q 44 742 44 724 l 44 878 q 51 912 44 894 q 72 944 58 929 q 104 967 85 958 q 150 976 124 976 l 150 929 q 118 920 131 929 q 99 897 106 911 q 92 871 92 883 l 92 747 q 99 721 92 735 q 119 698 107 707 q 150 689 132 689 l 150 643 m 178 643 l 178 689 q 207 698 194 689 q 226 721 219 707 q 233 746 233 735 l 233 871 q 226 897 233 883 q 207 920 219 911 q 178 929 194 929 l 178 976 q 222 967 203 976 q 254 944 240 958 q 274 912 268 929 q 281 878 281 894 l 281 742 q 274 706 281 724 q 253 674 267 689 q 220 651 239 660 q 178 643 201 643 z "},"ø":{"ha":707,"x_min":11,"x_max":682,"o":"m 319 -1 q 201 29 249 -1 q 126 101 153 60 l 64 44 l 11 103 l 94 178 q 93 193 94 186 q 92 207 92 200 l 92 522 q 106 581 92 547 q 148 645 119 614 q 219 697 176 676 q 319 717 263 717 l 319 619 q 249 600 276 619 q 206 554 221 581 q 192 504 192 528 l 192 267 l 492 542 q 451 596 479 572 q 376 619 424 619 l 376 717 q 496 685 449 717 q 568 613 543 654 l 629 668 l 682 611 l 596 532 q 597 520 597 526 q 597 508 597 514 l 597 196 q 584 137 597 171 q 543 72 571 103 q 474 19 515 40 q 376 -1 433 -1 l 376 96 q 445 115 418 96 q 486 162 472 135 q 500 211 500 189 l 500 443 l 204 172 q 247 119 217 142 q 319 96 276 96 l 319 -1 z "},"õ":{"ha":631,"x_min":53,"x_max":583,"o":"m 397 831 q 332 844 361 831 q 276 872 303 858 q 215 886 249 886 q 174 879 197 886 q 124 856 151 872 l 124 944 q 177 968 153 961 q 221 975 201 975 q 285 961 257 975 q 340 933 313 947 q 403 918 368 918 q 453 927 426 918 q 514 957 479 936 l 514 869 q 450 839 479 847 q 397 831 421 831 m 289 -1 q 191 18 235 -1 q 117 70 147 38 q 69 142 86 103 q 53 219 53 181 l 53 524 q 68 602 53 563 q 114 674 83 642 q 189 727 144 707 q 289 747 233 747 l 289 643 q 219 623 247 643 q 175 572 190 603 q 160 510 160 542 l 160 233 q 176 175 160 206 q 222 124 193 144 q 289 103 251 103 l 289 -1 m 351 -1 l 351 103 q 419 123 390 103 q 463 173 447 143 q 478 231 478 203 l 478 510 q 463 571 478 540 q 419 622 447 601 q 351 643 392 643 l 351 747 q 451 727 408 747 q 524 674 493 707 q 569 602 554 642 q 583 524 583 563 l 583 219 q 567 142 583 181 q 521 70 551 103 q 448 18 490 38 q 351 -1 406 -1 z "},"p":{"ha":638,"x_min":57,"x_max":582,"o":"m 239 0 l 239 104 l 351 104 q 421 121 393 104 q 462 161 449 138 q 475 207 475 185 l 475 539 q 461 581 475 557 q 418 624 447 606 q 343 643 389 643 l 233 643 l 233 747 l 343 747 q 449 726 404 747 q 524 672 494 704 q 567 604 553 639 q 582 543 582 569 l 582 201 q 568 140 582 175 q 526 74 554 106 q 453 21 497 42 q 349 0 408 0 l 239 0 m 57 -262 l 57 747 l 168 747 l 168 -262 l 57 -262 z "},"¶":{"ha":569,"x_min":49,"x_max":494,"o":"m 283 -7 l 283 457 q 112 528 175 457 q 49 715 49 600 q 78 847 49 786 q 160 943 107 907 q 283 979 213 979 l 354 979 l 354 -7 l 283 -7 m 424 -7 l 424 979 l 494 979 l 494 -7 l 424 -7 z "},"(":{"ha":300,"x_min":56,"x_max":256,"o":"m 256 -25 q 128 58 171 17 q 70 149 85 100 q 56 263 56 199 l 56 708 q 72 830 56 782 q 116 908 89 878 q 179 958 143 939 q 254 996 215 978 l 256 928 q 203 892 229 913 q 163 833 178 871 q 147 725 147 794 l 147 269 q 165 152 147 196 q 207 83 182 108 q 256 43 232 58 l 256 -25 z "},")":{"ha":307,"x_min":44,"x_max":251,"o":"m 44 -28 l 44 40 q 84 68 64 51 q 122 111 104 85 q 150 180 139 138 q 161 286 161 222 l 161 724 q 143 830 161 790 q 98 893 125 869 q 44 932 71 917 l 44 999 q 163 934 118 972 q 230 841 208 896 q 251 708 251 786 l 251 268 q 246 202 251 240 q 220 122 240 164 q 158 40 200 79 q 44 -28 117 1 z "},"∂":{"ha":583,"x_min":39,"x_max":544,"o":"m 324 -1 l 324 96 q 392 116 365 96 q 433 164 419 136 q 446 214 446 192 l 446 507 q 431 559 446 533 q 390 602 417 585 q 324 619 363 619 l 324 717 q 390 706 361 717 q 440 676 419 696 q 412 799 440 750 q 334 878 383 849 q 224 919 285 907 q 97 931 163 931 l 97 992 q 349 955 250 992 q 497 837 449 918 q 544 621 544 756 l 544 196 q 531 137 544 171 q 490 72 518 103 q 422 19 463 40 q 324 -1 381 -1 m 267 -1 q 165 19 208 -1 q 94 72 122 40 q 53 138 67 104 q 39 196 39 171 l 39 522 q 53 581 39 547 q 95 645 67 614 q 167 697 124 676 q 267 717 210 717 l 267 619 q 195 599 224 619 q 153 551 167 579 q 139 499 139 524 l 139 214 q 154 163 139 190 q 199 115 169 135 q 267 96 228 96 l 267 -1 z "},"%":{"ha":596,"x_min":60,"x_max":533,"o":"m 122 -24 l 365 1003 l 468 1003 l 226 -24 l 122 -24 m 451 88 q 394 112 418 88 q 369 169 369 136 q 394 227 369 203 q 451 251 418 251 q 510 227 486 251 q 533 169 533 203 q 510 112 533 136 q 451 88 486 88 m 142 726 q 84 751 108 726 q 60 808 60 775 q 84 865 60 842 q 142 889 108 889 q 200 865 176 889 q 224 808 224 842 q 200 751 224 775 q 142 726 176 726 z "},".":{"ha":249,"x_min":50,"x_max":199,"o":"m 124 -6 q 72 16 93 -6 q 50 68 50 38 q 72 121 50 99 q 124 143 93 143 q 177 121 156 143 q 199 68 199 99 q 177 16 199 38 q 124 -6 156 -6 z "},"·":{"ha":265,"x_min":85,"x_max":233,"o":"m 158 400 q 106 422 128 400 q 85 474 85 443 q 106 526 85 504 q 158 549 128 549 q 212 526 190 549 q 233 474 233 504 q 212 422 233 443 q 158 400 190 400 z "},"‰":{"ha":1246,"x_min":25,"x_max":1221,"o":"m 110 0 l 710 972 l 782 972 l 186 0 l 110 0 m 168 489 q 124 499 149 490 q 77 534 100 508 q 40 608 54 560 q 25 733 25 656 q 48 881 25 829 q 105 953 71 933 q 168 974 139 974 l 168 907 q 133 888 150 906 q 105 838 115 871 q 93 756 94 806 l 93 725 q 106 626 93 663 q 135 574 118 590 q 168 556 151 558 l 168 489 m 678 0 q 634 10 658 1 q 587 45 610 19 q 549 119 564 71 q 535 244 535 167 q 558 392 535 340 q 615 465 581 444 q 678 485 649 485 l 678 418 q 642 399 660 417 q 615 349 625 382 q 603 267 604 317 l 603 236 q 615 137 603 172 q 644 85 628 101 q 678 67 661 69 l 678 0 m 208 489 l 208 556 q 242 574 225 558 q 272 626 260 590 q 283 725 283 663 l 283 756 q 272 838 283 806 q 244 888 261 871 q 208 907 228 906 l 208 974 q 272 953 239 974 q 328 881 306 933 q 351 733 351 829 q 337 608 351 656 q 299 534 322 560 q 252 499 276 508 q 208 489 228 490 m 718 0 l 718 67 q 752 85 735 69 q 781 137 769 101 q 793 236 793 172 l 793 267 q 782 349 793 317 q 754 399 771 382 q 718 418 738 417 l 718 485 q 782 465 749 485 q 838 392 815 444 q 861 244 861 340 q 847 119 861 167 q 809 45 832 71 q 762 10 786 19 q 718 0 738 1 m 1036 0 q 994 10 1018 1 q 947 45 969 19 q 908 119 924 71 q 893 244 893 167 q 917 392 893 340 q 974 465 940 444 q 1038 485 1007 485 l 1038 418 q 1002 399 1019 417 q 974 349 985 382 q 963 267 963 317 l 963 236 q 974 137 963 172 q 1003 85 986 101 q 1036 67 1021 69 l 1036 0 m 1078 0 l 1078 67 q 1112 85 1094 69 q 1141 137 1129 101 q 1153 236 1153 172 l 1153 267 q 1142 349 1153 317 q 1113 399 1131 382 q 1078 418 1096 417 l 1078 485 q 1142 465 1108 485 q 1198 392 1175 444 q 1221 244 1221 340 q 1206 119 1221 167 q 1168 45 1190 71 q 1121 10 1146 19 q 1078 0 1096 1 z "},"π":{"ha":647,"x_min":-7,"x_max":656,"o":"m 106 -3 l 106 614 l -7 614 l -7 718 l 656 718 l 656 614 l 546 614 l 546 197 q 558 126 546 150 q 592 96 571 103 q 636 89 613 89 l 636 -6 q 526 21 568 -6 q 466 91 485 47 q 447 185 447 135 l 447 614 l 206 614 l 206 -3 l 106 -3 z "},"+":{"ha":604,"x_min":42,"x_max":563,"o":"m 249 121 l 249 357 l 42 357 l 42 460 l 249 460 l 249 692 l 353 692 l 353 460 l 563 460 l 563 357 l 353 357 l 353 121 l 249 121 z "}}}
